<?xml version="1.0" encoding="utf-8"?>
<!-- Generator: Adobe Illustrator 16.0.0, SVG Export Plug-In . SVG Version: 6.00 Build 0)  -->
<!DOCTYPE svg PUBLIC "-//W3C//DTD SVG 1.1//EN" "http://www.w3.org/Graphics/SVG/1.1/DTD/svg11.dtd">
<svg version="1.1"
	 id="svg2" xmlns:cc="http://creativecommons.org/ns#" xmlns:rdf="http://www.w3.org/1999/02/22-rdf-syntax-ns#" xmlns:svg="http://www.w3.org/2000/svg" xmlns:dc="http://purl.org/dc/elements/1.1/"
	 xmlns="http://www.w3.org/2000/svg" xmlns:xlink="http://www.w3.org/1999/xlink" x="0px" y="0px" width="177px" height="171.924px"
	 viewBox="0 0 177 171.924" enable-background="new 0 0 177 171.924" xml:space="preserve">
<g id="Calque_2" display="none">
	<g id="Avatar" display="inline">
		<rect id="rect6" x="74.953" y="369.132" fill="#384C81" width="233.863" height="233.863"/>
		<path id="path8" fill="#E74C3D" stroke="#000000" stroke-linecap="round" stroke-miterlimit="10" d="M101.698,567.995
			c-11.077-32.463-0.562-66.93-0.562-66.93l11.637,31.446c0,0-2.055,23.666,5.604,34.149l-6.427,5.202L101.698,567.995z"/>
		<path id="path10" fill="#95A5A4" stroke="#000000" stroke-linecap="round" stroke-miterlimit="10" d="M282.34,602.996
			l-11.751-34.018c-5.063-1.929-9.825-1.971-9.825-1.971l-137.431-0.757c0,0-4.842-0.187-9.907,1.742l-1.474,34.683"/>
		<path id="path12" fill="#7E8C8D" stroke="#000000" stroke-linecap="round" stroke-miterlimit="10" d="M284.689,503.923
			c-5.938,0-10.758-3.962-10.758-8.85v-39.536c0-4.884,4.818-8.847,10.758-8.847h3.33c5.938,0,10.758,3.963,10.758,8.847v39.536
			c0,4.888-4.819,8.85-10.758,8.85H284.689z"/>
		<path id="path14" fill="#95A5A4" stroke="#000000" stroke-linecap="round" stroke-miterlimit="10" d="M149.036,568.673
			c-29.599-16.549-49.767-49.454-49.767-87.35c0-54.521,41.75-98.719,93.252-98.719c51.5,0,93.25,44.197,93.25,98.719
			c0,36.994-19.228,69.235-47.678,86.142"/>
		<path id="path16" fill="#C13A2B" stroke="#000000" stroke-linecap="round" stroke-miterlimit="10" d="M258.439,508.103
			c0,22.857-17.631,41.392-39.375,41.392H168.17c-21.745,0-39.374-18.532-39.374-41.391v-17.392
			c0-28.684,16.456-32.537,27.067-32.537c13.857,0,19.936,4.818,37.3,4.818c15.757,0,21.555-4.31,38.594-4.596
			c13.177-0.225,26.683,1.381,26.683,32.312V508.103z"/>
		<path id="path18" fill="#B9C8E7" stroke="#000000" stroke-linecap="round" stroke-miterlimit="10" d="M252.466,507.54
			c0,19.843-16.005,35.932-35.745,35.932h-46.207c-19.74,0-35.744-16.089-35.744-35.932v-15.096c0-24.9,14.938-28.247,24.572-28.247
			c12.582,0,18.102,4.184,33.865,4.184c14.305,0,19.568-3.738,35.037-3.989c11.962-0.192,24.222,1.198,24.222,28.055V507.54
			L252.466,507.54z"/>
		<path id="path20" fill="none" stroke="#000000" stroke-miterlimit="10" d="M193.618,390.323c0,0,3.405,30.225,0,65.923"/>
		
			<ellipse id="ellipse22" fill="#E74C3D" stroke="#000000" stroke-linecap="round" stroke-miterlimit="10" cx="184.191" cy="402.666" rx="2.619" ry="3.017"/>
		<path id="path24" fill="#E74C3D" stroke="#000000" stroke-linecap="round" stroke-miterlimit="10" d="M186.811,421.838
			c0,1.667-1.172,3.016-2.621,3.016c-1.443,0-2.617-1.349-2.617-3.016c0-1.669,1.174-3.02,2.617-3.02
			C185.639,418.818,186.811,420.169,186.811,421.838z"/>
		
			<ellipse id="ellipse26" fill="#E74C3D" stroke="#000000" stroke-linecap="round" stroke-miterlimit="10" cx="184.191" cy="441.007" rx="2.619" ry="3.017"/>
		
			<ellipse id="ellipse28" fill="#E74C3D" stroke="#000000" stroke-linecap="round" stroke-miterlimit="10" cx="204.098" cy="402.666" rx="2.62" ry="3.017"/>
		<path id="path30" fill="#E74C3D" stroke="#000000" stroke-linecap="round" stroke-miterlimit="10" d="M206.718,421.838
			c0,1.667-1.172,3.016-2.62,3.016c-1.445,0-2.619-1.349-2.619-3.016c0-1.669,1.174-3.02,2.619-3.02
			C205.546,418.818,206.718,420.169,206.718,421.838z"/>
		
			<ellipse id="ellipse32" fill="#E74C3D" stroke="#000000" stroke-linecap="round" stroke-miterlimit="10" cx="204.098" cy="441.007" rx="2.62" ry="3.017"/>
		<path id="path34" fill="#FFFFFF" stroke="#000000" stroke-linecap="round" stroke-miterlimit="10" d="M192.521,534.631"/>
		<path id="path36" fill="#7E8C8D" stroke="#000000" stroke-linecap="round" stroke-miterlimit="10" d="M123.333,566.252
			l1.718,0.802c13.854,6.148,38.889,10.256,67.471,10.256c27.358,0,51.469-3.763,65.631-9.479l2.232-0.836
			c1.958-6.546-4.177-9.194-6.791-10.011c-11.64,5.896-34.619,9.91-61.072,9.91c-26.912,0-50.215-4.154-61.655-10.219h-0.007
			C130.859,556.677,120.869,558.011,123.333,566.252z"/>
		<path id="path38" fill="#7E8C8D" stroke="#000000" stroke-linecap="round" stroke-miterlimit="10" d="M114.898,603.007
			c0,0,8.435-36.013-6.094-36.755c-4.343-0.223-9.055,1.971-10.82,5.531"/>
		<path id="path40" fill="#7E8C8D" stroke="#000000" stroke-linecap="round" stroke-miterlimit="10" d="M114.006,602.348
			c0,0-9.691-36.606-22.43-29.589c-3.808,2.102-5.99,5.103-6.406,8.929"/>
		<path id="path42" fill="#7E8C8D" stroke="#000000" stroke-linecap="round" stroke-miterlimit="10" d="M113.291,603.007
			c0,0-25.71-30.021-34.204-18.216c-2.54,3.529-2.7,8.271-1.2,12.29"/>
		<path id="path44" fill="#7E8C8D" stroke="#000000" stroke-linecap="round" stroke-miterlimit="10" d="M111.953,602.987
			c0,0-31.888-17.242-35.168-3.071c-0.179,0.776-0.279,2.329-0.294,3.092"/>
		<path id="path46" fill="#7E8C8D" stroke="#000000" stroke-linecap="round" stroke-miterlimit="10" d="M269.117,602.827
			c0,0-8.354-35.075,6.174-35.817c4.343-0.223,9.055,1.973,10.822,5.532"/>
		<path id="path48" fill="#7E8C8D" stroke="#000000" stroke-linecap="round" stroke-miterlimit="10" d="M269.852,602.827
			c0,0,9.932-36.33,22.67-29.312c3.809,2.101,5.988,5.103,6.404,8.929"/>
		<path id="path50" fill="#7E8C8D" stroke="#000000" stroke-linecap="round" stroke-miterlimit="10" d="M270.725,602.827
			c0,0,25.793-29.083,34.285-17.277c2.541,3.528,2.701,8.271,1.201,12.29"/>
		<path id="path52" fill="#7E8C8D" stroke="#000000" stroke-linecap="round" stroke-miterlimit="10" d="M272.062,602.806
			c0,0,31.971-16.304,35.25-2.133c0.095,0.402,0.218,1.604,0.267,2.004"/>
		<path id="path54" fill="none" stroke="#000000" stroke-linecap="round" stroke-miterlimit="10" d="M122.941,578.431
			c0,0,23.274,16.077,69.58,16.077c46.305,0,65.918-16.077,65.918-16.077"/>
		<path id="path56" fill="#E74C3D" stroke="#000000" stroke-linecap="round" stroke-miterlimit="10" d="M148.252,581.223
			c0,1.667-1.172,3.017-2.621,3.017c-1.445,0-2.619-1.35-2.619-3.017c0-1.669,1.174-3.021,2.619-3.021
			C147.08,578.203,148.252,579.554,148.252,581.223z"/>
		<path id="path58" fill="#E74C3D" stroke="#000000" stroke-linecap="round" stroke-miterlimit="10" d="M240.859,580.315
			c0,1.668-1.172,3.015-2.621,3.015c-1.444,0-2.618-1.347-2.618-3.015c0-1.671,1.174-3.021,2.618-3.021
			C239.688,577.294,240.859,578.646,240.859,580.315z"/>
		<path id="path60" fill="#E74C3D" stroke="#000000" stroke-linecap="round" stroke-miterlimit="10" d="M170.749,585.792
			c0,1.667-1.172,3.015-2.619,3.015c-1.446,0-2.619-1.348-2.619-3.015c0-1.67,1.173-3.021,2.619-3.021
			C169.577,582.771,170.749,584.123,170.749,585.792z"/>
		<path id="path62" fill="#E74C3D" stroke="#000000" stroke-linecap="round" stroke-miterlimit="10" d="M218.363,585.792
			c0,1.667-1.172,3.015-2.622,3.015c-1.443,0-2.619-1.348-2.619-3.015c0-1.67,1.176-3.021,2.619-3.021
			C217.191,582.771,218.363,584.123,218.363,585.792z"/>
		<path id="path64" fill="#E74C3D" stroke="#000000" stroke-linecap="round" stroke-miterlimit="10" d="M194.473,587.262
			c0,1.667-1.172,3.017-2.621,3.017c-1.443,0-2.619-1.35-2.619-3.017c0-1.67,1.176-3.021,2.619-3.021
			C193.301,584.242,194.473,585.592,194.473,587.262z"/>
		
			<line id="line66" fill="none" stroke="#000000" stroke-linecap="round" stroke-miterlimit="10" x1="145.633" y1="593.517" x2="145.633" y2="602.677"/>
		
			<line id="line68" fill="none" stroke="#000000" stroke-linecap="round" stroke-miterlimit="10" x1="151.684" y1="595.119" x2="151.684" y2="602.677"/>
		
			<line id="line70" fill="none" stroke="#000000" stroke-linecap="round" stroke-miterlimit="10" x1="240.859" y1="593.517" x2="240.859" y2="602.677"/>
		
			<line id="line72" fill="none" stroke="#000000" stroke-linecap="round" stroke-miterlimit="10" x1="234.811" y1="595.119" x2="234.811" y2="602.677"/>
		
			<line id="line74" fill="none" stroke="#000000" stroke-linecap="round" stroke-miterlimit="10" x1="189.232" y1="598.529" x2="189.232" y2="602.677"/>
		
			<line id="line76" fill="none" stroke="#000000" stroke-linecap="round" stroke-miterlimit="10" x1="194.375" y1="598.529" x2="194.375" y2="602.677"/>
		<path id="path78" fill="#FFFFFF" d="M192.324,468.365c-4.883-0.053-8.778-0.501-12.215-1.096l-30.313,41.116
			c-1.687,2.289-2.231,4.752-1.221,5.5l4.812,3.544c1.016,0.75,3.205-0.501,4.895-2.793l33.422-45.331
			C191.932,468.994,192.137,468.679,192.324,468.365z"/>
		<path id="path80" fill="#FFFFFF" d="M228.244,464.391c-1.775,0.028-3.401,0.107-4.936,0.219l-53.291,72.284
			c-1.733,2.354-3.002,4.623-3.631,6.319c1.354,0.156,2.729,0.258,4.127,0.258h7.733c0.085-0.111,0.17-0.213,0.254-0.328
			l57.771-78.356C233.68,464.389,230.956,464.348,228.244,464.391z"/>
		<path id="path82" fill="#FFFFFF" d="M252.466,492.444c0-2.938-0.153-5.555-0.432-7.911l-43.451,58.938h8.138
			c1.797,0,3.549-0.177,5.276-0.436l30.468-41.324L252.466,492.444L252.466,492.444z"/>
		<path id="path84" fill="none" stroke="#000000" stroke-linecap="round" stroke-miterlimit="10" d="M97.984,516.391
			c0,0,4.307,7.524,10.875,8.576"/>
		<path id="path86" fill="none" stroke="#000000" stroke-linecap="round" stroke-miterlimit="10" d="M96.736,529.872
			c0,0,3.053,7.292,14.701,6.568"/>
		<path id="path88" fill="none" stroke="#000000" stroke-linecap="round" stroke-miterlimit="10" d="M96.912,543.471
			c0,0,6.697,6.954,15.861,3.191"/>
		<path id="path90" fill="none" stroke="#000000" stroke-linecap="round" stroke-miterlimit="10" d="M99.27,555.682
			c0,0,7.045,4.823,14.736,0"/>
		
			<line id="line92" fill="none" stroke="#000000" stroke-linecap="round" stroke-miterlimit="10" x1="284.689" y1="446.692" x2="284.689" y2="411.464"/>
		
			<line id="line94" fill="none" stroke="#000000" stroke-linecap="round" stroke-miterlimit="10" x1="292.236" y1="447.397" x2="292.236" y2="426.658"/>
		
			<circle id="circle96" fill="#E74C3D" stroke="#000000" stroke-linecap="round" stroke-miterlimit="10" cx="284.689" cy="409.008" r="3.326"/>
		
			<circle id="circle98" fill="#E74C3D" stroke="#000000" stroke-linecap="round" stroke-miterlimit="10" cx="292.236" cy="424.782" r="3.326"/>
		
			<rect id="rect100" x="74.953" y="369.132" fill="none" stroke="#000000" stroke-linecap="round" stroke-miterlimit="10" width="233.863" height="233.863"/>
	</g>
	<g id="Planète" display="inline">
		
			<ellipse id="ellipse103" fill="#FFFFFF" stroke="#000000" stroke-linecap="round" stroke-miterlimit="10" cx="107.547" cy="93.017" rx="19.545" ry="7.135"/>
		<path id="path105" fill="#FFFFFF" stroke="#000000" stroke-linecap="round" stroke-miterlimit="10" d="M174.964,84.49
			c0.74,3.868-7.255,8.651-17.854,10.68c-10.603,2.032-19.797,0.542-20.539-3.328c-0.739-3.87,7.254-8.652,17.854-10.683
			C165.027,79.128,174.223,80.619,174.964,84.49z"/>
		<path id="path107" fill="#FFFFFF" stroke="#000000" stroke-linecap="round" stroke-miterlimit="10" d="M38.705,84.49
			c-0.739,3.868,7.255,8.651,17.854,10.68c10.602,2.032,19.797,0.542,20.538-3.328c0.741-3.87-7.253-8.652-17.854-10.683
			C48.642,79.128,39.447,80.619,38.705,84.49z"/>
		<path id="path109" fill="#FFFFFF" stroke="#000000" stroke-linecap="round" stroke-miterlimit="10" d="M195.918,68.976h-13.094
			c-10.396-7.39-40.619-12.737-76.299-12.737c-35.68,0-65.898,5.348-76.296,12.737H17.354L30.497,80.46l0,0l0,0l0,0
			c10.635,7.295,40.644,12.557,76.03,12.557c35.388,0,65.396-5.262,76.031-12.557l0,0L195.918,68.976z"/>
		
			<ellipse id="ellipse111" fill="#FFFFFF" stroke="#000000" stroke-linecap="round" stroke-miterlimit="10" cx="106.639" cy="63.443" rx="92.364" ry="21.186"/>
		
			<ellipse id="ellipse113" fill="#FFFFFF" stroke="#000000" stroke-linecap="round" stroke-miterlimit="10" cx="106.637" cy="58.933" rx="80.174" ry="18.391"/>
		<path id="path115" fill="#FFFFFF" stroke="#000000" stroke-linecap="round" stroke-miterlimit="10" d="M171.225,53.965
			L171.225,53.965c-10.877-15.819-40.305-33.321-64.584-33.321c-25.01,0-55.159,17.843-65.186,34.361l0,0
			c-0.194,0.469-0.303,0.945-0.303,1.428c0,8.295,29.316,15.023,65.483,15.023c36.166,0,65.485-6.729,65.485-15.023
			C172.121,55.594,171.805,54.769,171.225,53.965z"/>
		<path id="path117" fill="#FFFFFF" stroke="#000000" stroke-linecap="round" stroke-miterlimit="10" d="M92.406,28.265
			c-1.314-1.615-11.074,4.172-21.803,12.922c-10.727,8.75-18.356,17.148-17.041,18.762c1.314,1.613,11.075-4.174,21.801-12.924
			C86.095,38.275,93.723,29.875,92.406,28.265z"/>
		
			<ellipse id="ellipse119" transform="matrix(-0.7451 0.667 -0.667 -0.7451 197.83 2.2469)" fill="#FFFFFF" stroke="#000000" stroke-linecap="round" stroke-miterlimit="10" cx="98.486" cy="38.93" rx="13.734" ry="3.314"/>
		<path id="path121" fill="#FFFFFF" stroke="#000000" stroke-linecap="round" stroke-miterlimit="10" d="M158.396,48.067
			c1.213-1.579,2.278-3.142,3.174-4.609c-1.479-1.287-3.047-2.557-4.688-3.8c-1.221,1.271-2.491,2.744-3.743,4.375
			c-4.619,6.018-7.185,11.798-5.73,12.911C148.855,58.06,153.779,54.085,158.396,48.067z"/>
		<path id="path123" fill="#FFFFFF" stroke="#000000" stroke-linecap="round" stroke-miterlimit="10" d="M127.339,70.685
			c0.158-0.166,0.317-0.324,0.476-0.492c9.574-10,16.115-19.273,14.61-20.709c-1.501-1.441-10.479,5.499-20.052,15.5
			c-2.066,2.158-3.98,4.277-5.714,6.297C120.329,71.15,123.895,70.948,127.339,70.685z"/>
		
			<line id="line125" fill="none" stroke="#000000" stroke-linecap="round" stroke-miterlimit="10" x1="81.412" y1="100.151" x2="69.392" y2="143.406"/>
		
			<line id="line127" fill="none" stroke="#000000" stroke-linecap="round" stroke-miterlimit="10" x1="133.541" y1="100.151" x2="145.053" y2="143.406"/>
		
			<line id="line129" fill="none" stroke="#000000" stroke-linecap="round" stroke-miterlimit="10" x1="75.402" y1="100.151" x2="53.413" y2="143.406"/>
		
			<line id="line131" fill="none" stroke="#000000" stroke-linecap="round" stroke-miterlimit="10" x1="139.297" y1="100.151" x2="160.46" y2="143.406"/>
	</g>
	<g id="g133" display="inline">
		
			<rect id="rect135" x="409.332" y="144.817" fill="#FFFFFF" stroke="#000000" stroke-linecap="round" stroke-miterlimit="10" width="120.201" height="4"/>
		<path id="path137" fill="#FFFFFF" stroke="#000000" stroke-linecap="round" stroke-miterlimit="10" d="M412.2,120.097
			c-3.675,8.155-5.737,17.194-5.737,26.721c0,9.525,2.062,18.564,5.737,26.722V120.097z"/>
		<path id="path139" fill="#FFFFFF" stroke="#000000" stroke-linecap="round" stroke-miterlimit="10" d="M421.605,188.558
			c5.513,6.596,12.309,12.072,20,16.07V89.008c-7.691,3.998-14.487,9.476-20,16.07V188.558z"/>
		<path id="path141" fill="#FFFFFF" stroke="#000000" stroke-linecap="round" stroke-miterlimit="10" d="M450.938,208.583
			c4.475,1.495,9.154,2.536,14,3.027V82.025c-4.846,0.492-9.525,1.532-14,3.027V208.583z"/>
		<path id="path143" fill="#FFFFFF" stroke="#000000" stroke-linecap="round" stroke-miterlimit="10" d="M473.129,211.907
			c5.945-0.139,11.693-1.064,17.144-2.694V84.422c-5.448-1.629-11.196-2.556-17.144-2.694V211.907z"/>
		<path id="path145" fill="#FFFFFF" stroke="#000000" stroke-linecap="round" stroke-miterlimit="10" d="M502.717,204.039
			c3.629-1.978,7.049-4.291,10.219-6.897V96.494c-3.17-2.606-6.59-4.92-10.219-6.897V204.039L502.717,204.039z"/>
		<path id="path147" fill="#FFFFFF" stroke="#000000" stroke-linecap="round" stroke-miterlimit="10" d="M529.533,176.547
			c4.584-8.916,7.188-19.016,7.188-29.729c0-10.715-2.604-20.813-7.188-29.729V176.547z"/>
	</g>
	<g id="g149" display="inline">
		<circle id="circle151" fill="#FFFFFF" stroke="#000000" stroke-miterlimit="10" cx="467.998" cy="384.932" r="74.262"/>
		<path id="path153" fill="#FFFFFF" stroke="#000000" stroke-miterlimit="10" d="M427.665,368.356
			c-4.845,11.979-6.794,25.555-15.665,35.532c-6.312-18.938,9.904-58.136,20-73.999
			C437.309,340.505,430.788,357.892,427.665,368.356C426.888,370.278,428.676,364.969,427.665,368.356z"/>
		<path id="path155" fill="#FFFFFF" stroke="#000000" stroke-miterlimit="10" d="M453.388,393.136
			c8.333-15.213,12.771-32.443,23.612-46.246c-0.987,31.518-15.4,69.757-29,98C448,427.306,445.156,409.021,453.388,393.136
			C455.605,388.856,453.388,393.136,453.388,393.136z"/>
		<path id="path157" fill="#FFFFFF" stroke="#000000" stroke-miterlimit="10" d="M467.227,310.604
			C442.793,313.787,441,359.491,441,377.89C443.282,371.042,469.896,310.61,467.227,310.604
			C454.613,312.248,467.727,310.606,467.227,310.604z"/>
		<path id="path159" fill="#FFFFFF" stroke="#000000" stroke-miterlimit="10" d="M504.639,372.758
			C488.04,399.195,487.314,431.153,474,458.89c16.809-4.88,24.682-19.9,27.837-36.023
			C502.823,417.823,509.716,374.179,504.639,372.758C503.059,375.274,505.457,372.987,504.639,372.758z"/>
		<path id="path161" fill="#FFFFFF" stroke="#000000" stroke-miterlimit="10" d="M536.328,355.813
			c-1.111-2.271-2.223-4.537-3.334-6.808c-15.312,20.44-11.185,49.355-12.994,72.883
			C535.075,406.815,534.191,375.628,536.328,355.813C535.332,353.479,536.136,357.597,536.328,355.813z"/>
		<path id="path163" fill="#FFFFFF" stroke="#000000" stroke-miterlimit="10" d="M573.674,352.114
			c-3.438-11.078-23.187-16.319-49.149-15.34c2.219,2.91,3.834,4.97,7.584,10.66c12.263,1.455,20.142,4.252,22.146,10.711
			c4.936,15.891-29.684,40.766-77.318,55.56c-47.64,14.794-90.26,13.907-95.191-1.984c-2.026-6.523,2.62-14.564,12.096-22.801
			c-0.064-1.263-0.102-2.586-0.102-3.987c0-2.514,0.128-4.998,0.372-7.447c-22.595,14.094-35.28,29.019-31.787,40.269
			c6.046,19.467,58.26,20.557,116.625,2.432C537.309,402.058,579.72,371.582,573.674,352.114z"/>
	</g>
</g>
<g id="Calque_3" display="none">
	<g id="Avatar_167_" display="inline">
		
			<circle id="circle167" fill="#E6E6E5" stroke="#256670" stroke-linecap="round" stroke-miterlimit="10" cx="116.202" cy="117.113" r="111.498"/>
		<path id="path169" fill="#E6E6E5" stroke="#256670" stroke-linecap="round" stroke-miterlimit="10" d="M42.629,183.938
			c-9.033-26.48-0.453-54.595-0.453-54.595l9.495,25.65c0,0-1.677,19.309,4.567,27.86L51,187.099L42.629,183.938z"/>
		<path id="path171" fill="#E6E6E5" stroke="#256670" stroke-linecap="round" stroke-miterlimit="10" d="M174.02,212.465
			c4.494-2.733,8.775-5.772,12.821-9.091l-6.437-18.627c-4.131-1.578-8.014-1.609-8.014-1.609L60.28,182.521
			c0,0-3.949-0.152-8.082,1.418l-1.006,23.756c2.221,1.6,4.505,3.119,6.846,4.554"/>
		<path id="path173" fill="#E6E6E5" stroke="#256670" stroke-linecap="round" stroke-miterlimit="10" d="M191.908,131.675
			c-4.842,0-8.775-3.232-8.775-7.216V92.204c0-3.982,3.934-7.214,8.775-7.214h2.714c4.851,0,8.778,3.229,8.778,7.214v32.255
			c0,3.983-3.93,7.216-8.778,7.216H191.908z"/>
		<path id="path175" fill="#E6E6E5" stroke="#256670" stroke-linecap="round" stroke-miterlimit="10" d="M81.249,184.495
			C57.106,170.996,40.65,144.151,40.65,113.24c0-44.475,34.06-80.53,76.071-80.53c42.012,0,76.067,36.055,76.067,80.53
			c0,30.175-15.683,56.479-38.888,70.271"/>
		<path id="path177" fill="#E6E6E5" stroke="#256670" stroke-linecap="round" stroke-miterlimit="10" d="M170.495,135.085
			c0,18.646-14.382,33.764-32.121,33.764H96.857c-17.739,0-32.117-15.117-32.117-33.764v-14.188
			c0-23.397,13.421-26.543,22.079-26.543c11.303,0,16.263,3.931,30.427,3.931c12.85,0,17.583-3.513,31.482-3.749
			c10.75-0.182,21.767,1.127,21.767,26.359V135.085L170.495,135.085z"/>
		<path id="path179" fill="#E6E6E5" stroke="#256670" stroke-linecap="round" stroke-miterlimit="10" d="M165.622,134.626
			c0,16.184-13.056,29.312-29.16,29.312h-37.69c-16.104,0-29.16-13.127-29.16-29.312V122.31c0-20.312,12.185-23.041,20.045-23.041
			c10.262,0,14.768,3.414,27.627,3.414c11.668,0,15.964-3.051,28.581-3.254c9.758-0.16,19.759,0.979,19.759,22.881L165.622,134.626
			L165.622,134.626z"/>
		<path id="path181" fill="#E6E6E5" stroke="#256670" stroke-miterlimit="10" d="M117.615,39.005c0,0,2.779,24.656,0,53.778"/>
		
			<ellipse id="ellipse183" fill="#E6E6E5" stroke="#256670" stroke-linecap="round" stroke-miterlimit="10" cx="109.925" cy="49.074" rx="2.138" ry="2.459"/>
		<path id="path185" fill="#E6E6E5" stroke="#256670" stroke-linecap="round" stroke-miterlimit="10" d="M112.062,64.714
			c0,1.363-0.955,2.459-2.138,2.459c-1.18,0-2.138-1.096-2.138-2.459c0-1.363,0.958-2.462,2.138-2.462
			C111.107,62.251,112.062,63.351,112.062,64.714z"/>
		<path id="path187" fill="#E6E6E5" stroke="#256670" stroke-linecap="round" stroke-miterlimit="10" d="M112.062,80.351
			c0,1.363-0.955,2.462-2.138,2.462c-1.18,0-2.138-1.099-2.138-2.462c0-1.36,0.958-2.462,2.138-2.462
			C111.107,77.889,112.062,78.991,112.062,80.351z"/>
		<path id="path189" fill="#E6E6E5" stroke="#256670" stroke-linecap="round" stroke-miterlimit="10" d="M128.302,49.074
			c0,1.36-0.954,2.459-2.138,2.459c-1.18,0-2.135-1.099-2.135-2.459c0-1.361,0.957-2.462,2.135-2.462
			C127.35,46.612,128.302,47.713,128.302,49.074z"/>
		<path id="path191" fill="#E6E6E5" stroke="#256670" stroke-linecap="round" stroke-miterlimit="10" d="M128.302,64.714
			c0,1.363-0.954,2.459-2.138,2.459c-1.18,0-2.135-1.096-2.135-2.459c0-1.363,0.957-2.462,2.135-2.462
			C127.35,62.251,128.302,63.351,128.302,64.714z"/>
		<path id="path193" fill="#E6E6E5" stroke="#256670" stroke-linecap="round" stroke-miterlimit="10" d="M128.302,80.351
			c0,1.363-0.954,2.462-2.138,2.462c-1.18,0-2.135-1.099-2.135-2.462c0-1.36,0.957-2.462,2.135-2.462
			C127.35,77.889,128.302,78.991,128.302,80.351z"/>
		<path id="path195" fill="#E6E6E5" stroke="#256670" stroke-linecap="round" stroke-miterlimit="10" d="M116.723,156.728"/>
		<path id="path197" fill="#E6E6E5" stroke="#256670" stroke-linecap="round" stroke-miterlimit="10" d="M60.28,182.521l1.4,0.654
			c11.303,5.018,31.726,8.367,55.041,8.367c22.316,0,41.985-3.066,53.539-7.734l1.822-0.681c1.593-5.34-3.408-7.5-5.542-8.168
			c-9.495,4.813-28.239,8.085-49.819,8.085c-21.951,0-40.965-3.388-50.297-8.332h-0.003
			C66.422,174.711,58.271,175.799,60.28,182.521z"/>
		<path id="path199" fill="#E6E6E5" stroke="#256670" stroke-linecap="round" stroke-miterlimit="10" d="M59.962,192.457
			c0,0,18.987,13.114,56.761,13.114c37.772,0,53.772-13.114,53.772-13.114"/>
		<path id="path201" fill="#E6E6E5" stroke="#256670" stroke-linecap="round" stroke-miterlimit="10" d="M80.608,194.733
			c0,1.357-0.956,2.457-2.137,2.457c-1.18,0-2.136-1.1-2.136-2.457c0-1.362,0.956-2.465,2.136-2.465
			C79.652,192.269,80.608,193.371,80.608,194.733z"/>
		<path id="path203" fill="#E6E6E5" stroke="#256670" stroke-linecap="round" stroke-miterlimit="10" d="M156.154,193.992
			c0,1.36-0.956,2.457-2.139,2.457c-1.18,0-2.137-1.097-2.137-2.457c0-1.363,0.957-2.461,2.137-2.461
			C155.199,191.53,156.154,192.629,156.154,193.992z"/>
		<path id="path205" fill="#E6E6E5" stroke="#256670" stroke-linecap="round" stroke-miterlimit="10" d="M98.961,198.46
			c0,1.357-0.957,2.457-2.138,2.457s-2.136-1.1-2.136-2.457c0-1.361,0.955-2.461,2.136-2.461S98.961,197.099,98.961,198.46z"/>
		<path id="path207" fill="#E6E6E5" stroke="#256670" stroke-linecap="round" stroke-miterlimit="10" d="M137.803,198.46
			c0,1.357-0.955,2.457-2.138,2.457c-1.181,0-2.138-1.1-2.138-2.457c0-1.361,0.957-2.461,2.138-2.461
			C136.848,195.999,137.803,197.099,137.803,198.46z"/>
		<path id="path209" fill="#E6E6E5" stroke="#256670" stroke-linecap="round" stroke-miterlimit="10" d="M118.312,199.658
			c0,1.356-0.955,2.46-2.139,2.46c-1.176,0-2.135-1.104-2.135-2.46c0-1.362,0.959-2.462,2.135-2.462
			C117.355,197.196,118.312,198.296,118.312,199.658z"/>
		
			<line id="line211" fill="none" stroke="#256670" stroke-linecap="round" stroke-miterlimit="10" x1="78.471" y1="204.761" x2="78.471" y2="222.062"/>
		
			<line id="line213" fill="none" stroke="#256670" stroke-linecap="round" stroke-miterlimit="10" x1="83.409" y1="206.067" x2="83.409" y2="223.315"/>
		
			<line id="line215" fill="none" stroke="#256670" stroke-linecap="round" stroke-miterlimit="10" x1="156.154" y1="204.761" x2="156.154" y2="221.231"/>
		
			<line id="line217" fill="none" stroke="#256670" stroke-linecap="round" stroke-miterlimit="10" x1="151.221" y1="206.067" x2="151.221" y2="222.996"/>
		
			<line id="line219" fill="none" stroke="#256670" stroke-linecap="round" stroke-miterlimit="10" x1="114.04" y1="208.849" x2="114.04" y2="228.586"/>
		
			<line id="line221" fill="none" stroke="#256670" stroke-linecap="round" stroke-miterlimit="10" x1="118.234" y1="208.849" x2="118.234" y2="228.586"/>
		<path id="path223" fill="#E6E6E5" stroke="#256670" stroke-linecap="round" stroke-miterlimit="10" d="M116.561,102.668
			c-3.979-0.041-7.162-0.41-9.963-0.894l-24.729,33.541c-1.375,1.867-1.819,3.879-0.995,4.488l3.924,2.893
			c0.83,0.609,2.617-0.409,3.99-2.281l27.267-36.979C116.241,103.183,116.409,102.924,116.561,102.668z"/>
		<path id="path225" fill="#E6E6E5" stroke="#256670" stroke-linecap="round" stroke-miterlimit="10" d="M145.863,99.429
			c-1.448,0.021-2.774,0.088-4.026,0.176l-43.473,58.968c-1.415,1.913-2.449,3.771-2.96,5.153c1.104,0.129,2.226,0.211,3.365,0.211
			h6.308c0.071-0.093,0.14-0.174,0.209-0.269l47.127-63.921C150.295,99.422,148.075,99.394,145.863,99.429z"/>
		<path id="path227" fill="#E6E6E5" stroke="#256670" stroke-linecap="round" stroke-miterlimit="10" d="M165.622,122.31
			c0-2.394-0.124-4.527-0.353-6.453l-35.444,48.082h6.637c1.468,0,2.896-0.147,4.306-0.356l24.854-33.711V122.31z"/>
		<path id="path229" fill="#E6E6E5" stroke="#256670" stroke-linecap="round" stroke-miterlimit="10" d="M39.604,141.847
			c0,0,3.515,6.137,8.871,6.996"/>
		<path id="path231" fill="#E6E6E5" stroke="#256670" stroke-linecap="round" stroke-miterlimit="10" d="M38.584,152.841
			c0,0,2.49,5.95,11.993,5.359"/>
		<path id="path233" fill="#E6E6E5" stroke="#256670" stroke-linecap="round" stroke-miterlimit="10" d="M38.727,163.938
			c0,0,5.465,5.672,12.943,2.603"/>
		<path id="path235" fill="#E6E6E5" stroke="#256670" stroke-linecap="round" stroke-miterlimit="10" d="M40.65,173.897
			c0,0,5.749,3.936,12.021,0"/>
		
			<line id="line237" fill="none" stroke="#256670" stroke-linecap="round" stroke-miterlimit="10" x1="191.908" y1="84.99" x2="191.908" y2="56.252"/>
		
			<line id="line239" fill="none" stroke="#256670" stroke-linecap="round" stroke-miterlimit="10" x1="198.062" y1="85.564" x2="198.062" y2="68.644"/>
		
			<circle id="circle241" fill="#E6E6E5" stroke="#256670" stroke-linecap="round" stroke-miterlimit="10" cx="191.91" cy="54.247" r="2.712"/>
		<path id="path243" fill="#E6E6E5" stroke="#256670" stroke-linecap="round" stroke-miterlimit="10" d="M200.777,67.116
			c0,1.498-1.221,2.712-2.715,2.712c-1.5,0-2.715-1.214-2.715-2.712c0-1.5,1.215-2.712,2.715-2.712
			C199.559,64.403,200.777,65.616,200.777,67.116z"/>
		
			<circle id="circle245" fill="none" stroke="#256670" stroke-linecap="round" stroke-miterlimit="10" cx="116.202" cy="117.113" r="111.498"/>
		<path id="path247" fill="#E6E6E5" stroke="#256670" stroke-linecap="round" stroke-miterlimit="10" d="M181.296,207.64
			c7.084-5.104,13.552-11.017,19.253-17.604c-0.654-0.583-1.396-1.116-2.251-1.588C190.559,184.181,184.093,199.522,181.296,207.64z
			"/>
		<path id="path249" fill="#E6E6E5" stroke="#256670" stroke-linecap="round" stroke-miterlimit="10" d="M184.241,183.138
			c-9.542,0.487-6.981,19.131-5.622,26.375c1.224-0.83,2.429-1.688,3.622-2.564l10.829-19.299
			C191.628,184.748,187.783,182.956,184.241,183.138z"/>
		<path id="path251" fill="#E6E6E5" stroke="#256670" stroke-linecap="round" stroke-miterlimit="10" d="M34.374,187.828
			c-1.052,0.579-1.94,1.256-2.688,2.003c5.832,6.771,12.466,12.833,19.749,18.044C48.823,199.906,42.327,183.448,34.374,187.828z"/>
		<path id="path253" fill="#E6E6E5" stroke="#256670" stroke-linecap="round" stroke-miterlimit="10" d="M48.433,182.521
			c-3.545-0.181-7.387,1.608-8.83,4.515l10.935,20.188c1.135,0.826,2.281,1.639,3.446,2.424
			C55.358,202.253,57.999,183.01,48.433,182.521z"/>
	</g>
	<path id="path255" display="inline" fill="#7B3A7A" stroke="#7B3A7A" stroke-miterlimit="10" d="M36.056,36.229L46.109,5.287
		l10.052,30.942h32.538L62.378,54.5L72.43,84.89L46.109,65.629L19.783,84.745L29.835,54.5L3.514,36.229H36.056z"/>
	<g id="g257" display="inline">
		<circle id="circle259" fill="#999999" cx="19.564" cy="44.662" r="6.585"/>
		<circle id="circle261" fill="#999999" cx="46.716" cy="44.662" r="6.585"/>
		<circle id="circle263" fill="#999999" cx="72.059" cy="44.662" r="6.585"/>
	</g>
	<path id="path265" display="inline" fill="none" stroke="#E6E6E6" stroke-miterlimit="10" d="M17.312,3.313h58.81
		c3.043,0,5.646,1.073,7.796,3.227c2.15,2.154,3.231,4.753,3.231,7.801v40.427c0,3.043-1.081,5.646-3.231,7.796
		c-2.15,2.149-4.753,3.231-7.796,3.231H46.718l-25.73,18.376V65.795h-3.675c-3.044,0-5.643-1.082-7.797-3.231
		c-2.153-2.15-3.23-4.753-3.23-7.796V14.341c0-3.048,1.077-5.646,3.23-7.801C11.668,4.386,14.268,3.313,17.312,3.313z"/>
	<path id="path267" display="inline" fill="none" stroke="#E6E6E6" stroke-miterlimit="10" d="M36.168,36.05l9.941-30.598
		l9.94,30.598h32.177L62.197,54.119l9.939,30.052L46.109,65.124L20.075,84.026l9.939-29.907L3.987,36.05H36.168z"/>
	<g id="g269" display="inline">
		<path id="path271" fill="#172334" stroke="#D0C5CA" stroke-miterlimit="10" d="M118.092,17.129
			c-6.478,6.469-50.13,50.118-50.13,50.118s-23.387-2.507-30.062,0c-6.683,2.502-30.07,40.089-30.07,40.089
			s31.869-8.871,50.44-4.705l-31.275,40.214l46.908-26.759c9.218,21.09-5.942,51.392-5.942,51.392s38.016-24.222,40.104-30.063
			c2.09-5.854,0-30.076,0-30.076s45.527-44.69,50.109-50.115c4.604-5.426,14.621-47.199,10.026-50.118
			C163.62,4.183,124.559,10.656,118.092,17.129z"/>
		<path id="path273" fill="#172334" stroke="#D0C5CA" stroke-miterlimit="10" d="M144.501,32.752
			c-5.745-6.618-16.612-6.595-24.274,0.065c-7.666,6.651-9.219,17.41-3.465,24.03c5.737,6.615,16.617,6.592,24.274-0.067
			C148.702,50.125,150.255,39.366,144.501,32.752z"/>
	</g>
</g>
<g id="Calque_1" display="none">
</g>
<line fill="none" stroke="#E6E6E6" stroke-width="3" stroke-linecap="round" stroke-miterlimit="10" x1="55.428" y1="54.28" x2="119.805" y2="118.657"/>
<line fill="none" stroke="#E6E6E6" stroke-width="3" stroke-linecap="round" stroke-miterlimit="10" x1="118.805" y1="53.28" x2="54.428" y2="117.657"/>
</svg>
