<?xml version="1.0" encoding="utf-8"?>
<!-- Generator: Adobe Illustrator 16.0.0, SVG Export Plug-In . SVG Version: 6.00 Build 0)  -->
<!DOCTYPE svg PUBLIC "-//W3C//DTD SVG 1.1//EN" "http://www.w3.org/Graphics/SVG/1.1/DTD/svg11.dtd">
<svg version="1.1" id="Calque_1" xmlns="http://www.w3.org/2000/svg" xmlns:xlink="http://www.w3.org/1999/xlink" x="0px" y="0px"
	 width="91px" height="88.391px" viewBox="0 0 91 88.391" enable-background="new 0 0 91 88.391" xml:space="preserve">
<g id="Calque_2" display="none">
	<g id="Avatar" display="inline">
		<rect x="74.953" y="369.132" fill="#384C81" width="233.863" height="233.863"/>
		<path fill="#E74C3D" stroke="#000000" stroke-linecap="round" stroke-miterlimit="10" d="M101.698,567.995
			c-11.077-32.463-0.561-66.93-0.561-66.93l11.636,31.447c0,0-2.054,23.666,5.605,34.149l-6.427,5.202L101.698,567.995z"/>
		<path fill="#95A5A4" stroke="#000000" stroke-linecap="round" stroke-miterlimit="10" d="M282.34,602.996l-11.751-34.017
			c-5.063-1.929-9.825-1.971-9.825-1.971l-137.431-0.757c0,0-4.842-0.187-9.907,1.742l-1.474,34.683"/>
		<path fill="#7E8C8D" stroke="#000000" stroke-linecap="round" stroke-miterlimit="10" d="M284.689,503.923
			c-5.938,0-10.758-3.962-10.758-8.85v-39.536c0-4.884,4.819-8.847,10.758-8.847h3.33c5.938,0,10.758,3.963,10.758,8.847v39.536
			c0,4.888-4.819,8.85-10.758,8.85H284.689z"/>
		<path fill="#95A5A4" stroke="#000000" stroke-linecap="round" stroke-miterlimit="10" d="M149.036,568.673
			c-29.599-16.549-49.767-49.454-49.767-87.35c0-54.521,41.75-98.719,93.252-98.719c51.5,0,93.25,44.198,93.25,98.719
			c0,36.994-19.227,69.236-47.677,86.142"/>
		<path fill="#C13A2B" stroke="#000000" stroke-linecap="round" stroke-miterlimit="10" d="M258.439,508.102
			c0,22.857-17.631,41.391-39.375,41.391h-50.894c-21.745,0-39.374-18.532-39.374-41.391v-17.391
			c0-28.684,16.456-32.537,27.067-32.537c13.857,0,19.936,4.818,37.3,4.818c15.757,0,21.555-4.309,38.594-4.596
			c13.176-0.224,26.682,1.381,26.682,32.313V508.102z"/>
		<path fill="#B9C8E7" stroke="#000000" stroke-linecap="round" stroke-miterlimit="10" d="M252.466,507.54
			c0,19.843-16.005,35.932-35.746,35.932h-46.206c-19.74,0-35.744-16.089-35.744-35.932v-15.096c0-24.9,14.938-28.247,24.572-28.247
			c12.582,0,18.102,4.184,33.865,4.184c14.304,0,19.568-3.738,35.037-3.989c11.962-0.193,24.222,1.198,24.222,28.054V507.54z"/>
		<path fill="none" stroke="#000000" stroke-miterlimit="10" d="M193.618,390.323c0,0,3.405,30.225,0,65.923"/>
		
			<ellipse fill="#E74C3D" stroke="#000000" stroke-linecap="round" stroke-miterlimit="10" cx="184.191" cy="402.666" rx="2.619" ry="3.017"/>
		<path fill="#E74C3D" stroke="#000000" stroke-linecap="round" stroke-miterlimit="10" d="M186.811,421.838
			c0,1.667-1.172,3.015-2.621,3.015c-1.444,0-2.618-1.348-2.618-3.015c0-1.669,1.174-3.02,2.618-3.02
			C185.639,418.818,186.811,420.169,186.811,421.838z"/>
		
			<ellipse fill="#E74C3D" stroke="#000000" stroke-linecap="round" stroke-miterlimit="10" cx="184.191" cy="441.007" rx="2.619" ry="3.017"/>
		
			<ellipse fill="#E74C3D" stroke="#000000" stroke-linecap="round" stroke-miterlimit="10" cx="204.098" cy="402.666" rx="2.62" ry="3.017"/>
		<path fill="#E74C3D" stroke="#000000" stroke-linecap="round" stroke-miterlimit="10" d="M206.718,421.838
			c0,1.667-1.172,3.015-2.621,3.015c-1.444,0-2.618-1.348-2.618-3.015c0-1.669,1.174-3.02,2.618-3.02
			C205.546,418.818,206.718,420.169,206.718,421.838z"/>
		
			<ellipse fill="#E74C3D" stroke="#000000" stroke-linecap="round" stroke-miterlimit="10" cx="204.098" cy="441.007" rx="2.62" ry="3.017"/>
		<path fill="#FFFFFF" stroke="#000000" stroke-linecap="round" stroke-miterlimit="10" d="M192.521,534.631"/>
		<path fill="#7E8C8D" stroke="#000000" stroke-linecap="round" stroke-miterlimit="10" d="M123.333,566.252l1.718,0.802
			c13.854,6.148,38.889,10.256,67.471,10.256c27.358,0,51.468-3.763,65.631-9.479l2.232-0.836c1.958-6.546-4.177-9.194-6.791-10.011
			c-11.64,5.896-34.619,9.911-61.072,9.911c-26.912,0-50.216-4.155-61.656-10.219h-0.006
			C130.86,556.677,120.869,558.01,123.333,566.252z"/>
		<path fill="#7E8C8D" stroke="#000000" stroke-linecap="round" stroke-miterlimit="10" d="M114.898,603.007
			c0,0,8.435-36.013-6.093-36.755c-4.343-0.223-9.055,1.971-10.821,5.531"/>
		<path fill="#7E8C8D" stroke="#000000" stroke-linecap="round" stroke-miterlimit="10" d="M114.006,602.347
			c0,0-9.691-36.607-22.43-29.589c-3.809,2.101-5.99,5.102-6.406,8.928"/>
		<path fill="#7E8C8D" stroke="#000000" stroke-linecap="round" stroke-miterlimit="10" d="M113.291,603.007
			c0,0-25.71-30.021-34.204-18.216c-2.54,3.529-2.7,8.271-1.2,12.29"/>
		<path fill="#7E8C8D" stroke="#000000" stroke-linecap="round" stroke-miterlimit="10" d="M111.953,602.987
			c0,0-31.889-17.242-35.168-3.071c-0.18,0.776-0.279,2.329-0.294,3.092"/>
		<path fill="#7E8C8D" stroke="#000000" stroke-linecap="round" stroke-miterlimit="10" d="M269.117,602.827
			c0,0-8.354-35.075,6.174-35.817c4.343-0.223,9.055,1.972,10.822,5.532"/>
		<path fill="#7E8C8D" stroke="#000000" stroke-linecap="round" stroke-miterlimit="10" d="M269.852,602.827
			c0,0,9.931-36.33,22.67-29.311c3.808,2.1,5.988,5.102,6.404,8.928"/>
		<path fill="#7E8C8D" stroke="#000000" stroke-linecap="round" stroke-miterlimit="10" d="M270.725,602.827
			c0,0,25.793-29.083,34.285-17.277c2.541,3.528,2.701,8.271,1.201,12.29"/>
		<path fill="#7E8C8D" stroke="#000000" stroke-linecap="round" stroke-miterlimit="10" d="M272.062,602.805
			c0,0,31.971-16.304,35.25-2.133c0.095,0.402,0.218,1.604,0.267,2.004"/>
		<path fill="none" stroke="#000000" stroke-linecap="round" stroke-miterlimit="10" d="M122.941,578.43
			c0,0,23.275,16.077,69.58,16.077s65.918-16.077,65.918-16.077"/>
		<path fill="#E74C3D" stroke="#000000" stroke-linecap="round" stroke-miterlimit="10" d="M148.252,581.222
			c0,1.667-1.172,3.016-2.621,3.016c-1.445,0-2.619-1.349-2.619-3.016c0-1.669,1.174-3.021,2.619-3.021
			C147.08,578.203,148.252,579.553,148.252,581.222z"/>
		<path fill="#E74C3D" stroke="#000000" stroke-linecap="round" stroke-miterlimit="10" d="M240.86,580.315
			c0,1.668-1.173,3.015-2.621,3.015c-1.445,0-2.619-1.347-2.619-3.015c0-1.67,1.174-3.021,2.619-3.021
			C239.688,577.294,240.86,578.645,240.86,580.315z"/>
		<path fill="#E74C3D" stroke="#000000" stroke-linecap="round" stroke-miterlimit="10" d="M170.749,585.792
			c0,1.667-1.172,3.015-2.619,3.015c-1.446,0-2.619-1.348-2.619-3.015c0-1.67,1.173-3.021,2.619-3.021
			C169.577,582.772,170.749,584.123,170.749,585.792z"/>
		<path fill="#E74C3D" stroke="#000000" stroke-linecap="round" stroke-miterlimit="10" d="M218.364,585.792
			c0,1.667-1.173,3.015-2.623,3.015c-1.443,0-2.619-1.348-2.619-3.015c0-1.67,1.176-3.021,2.619-3.021
			C217.191,582.772,218.364,584.123,218.364,585.792z"/>
		<path fill="#E74C3D" stroke="#000000" stroke-linecap="round" stroke-miterlimit="10" d="M194.473,587.261
			c0,1.667-1.172,3.016-2.621,3.016c-1.444,0-2.619-1.349-2.619-3.016c0-1.67,1.175-3.021,2.619-3.021
			C193.301,584.242,194.473,585.592,194.473,587.261z"/>
		
			<line fill="none" stroke="#000000" stroke-linecap="round" stroke-miterlimit="10" x1="145.633" y1="593.516" x2="145.633" y2="602.677"/>
		
			<line fill="none" stroke="#000000" stroke-linecap="round" stroke-miterlimit="10" x1="151.684" y1="595.119" x2="151.684" y2="602.677"/>
		
			<line fill="none" stroke="#000000" stroke-linecap="round" stroke-miterlimit="10" x1="240.86" y1="593.516" x2="240.86" y2="602.677"/>
		
			<line fill="none" stroke="#000000" stroke-linecap="round" stroke-miterlimit="10" x1="234.811" y1="595.119" x2="234.811" y2="602.677"/>
		
			<line fill="none" stroke="#000000" stroke-linecap="round" stroke-miterlimit="10" x1="189.232" y1="598.529" x2="189.232" y2="602.677"/>
		
			<line fill="none" stroke="#000000" stroke-linecap="round" stroke-miterlimit="10" x1="194.375" y1="598.529" x2="194.375" y2="602.677"/>
		<path fill="#FFFFFF" stroke="#000000" stroke-linecap="round" stroke-miterlimit="10" d="M192.324,468.365
			c-4.883-0.052-8.778-0.501-12.215-1.095l-30.313,41.116c-1.687,2.289-2.231,4.752-1.221,5.5l4.812,3.544
			c1.015,0.75,3.205-0.501,4.894-2.793l33.422-45.331C191.932,468.994,192.137,468.678,192.324,468.365z"/>
		<path fill="#FFFFFF" stroke="#000000" stroke-linecap="round" stroke-miterlimit="10" d="M228.244,464.39
			c-1.775,0.028-3.401,0.107-4.936,0.218l-53.291,72.285c-1.733,2.353-3.002,4.623-3.63,6.319c1.354,0.156,2.729,0.258,4.126,0.258
			h7.734c0.085-0.112,0.17-0.213,0.254-0.328l57.771-78.357C233.68,464.388,230.956,464.347,228.244,464.39z"/>
		<path fill="#FFFFFF" stroke="#000000" stroke-linecap="round" stroke-miterlimit="10" d="M252.466,492.444
			c0-2.938-0.153-5.554-0.432-7.911l-43.451,58.938h8.137c1.798,0,3.55-0.177,5.277-0.436l30.468-41.324L252.466,492.444
			L252.466,492.444z"/>
		<path fill="none" stroke="#000000" stroke-linecap="round" stroke-miterlimit="10" d="M97.984,516.39
			c0,0,4.307,7.524,10.875,8.576"/>
		<path fill="none" stroke="#000000" stroke-linecap="round" stroke-miterlimit="10" d="M96.737,529.872c0,0,3.052,7.292,14.7,6.568
			"/>
		<path fill="none" stroke="#000000" stroke-linecap="round" stroke-miterlimit="10" d="M96.912,543.47
			c0,0,6.698,6.954,15.861,3.191"/>
		<path fill="none" stroke="#000000" stroke-linecap="round" stroke-miterlimit="10" d="M99.27,555.681c0,0,7.045,4.823,14.736,0"/>
		
			<line fill="none" stroke="#000000" stroke-linecap="round" stroke-miterlimit="10" x1="284.689" y1="446.692" x2="284.689" y2="411.464"/>
		
			<line fill="none" stroke="#000000" stroke-linecap="round" stroke-miterlimit="10" x1="292.236" y1="447.397" x2="292.236" y2="426.658"/>
		<circle fill="#E74C3D" stroke="#000000" stroke-linecap="round" stroke-miterlimit="10" cx="284.689" cy="409.008" r="3.326"/>
		<circle fill="#E74C3D" stroke="#000000" stroke-linecap="round" stroke-miterlimit="10" cx="292.236" cy="424.782" r="3.326"/>
		
			<rect x="74.953" y="369.132" fill="none" stroke="#000000" stroke-linecap="round" stroke-miterlimit="10" width="233.863" height="233.863"/>
	</g>
	<g id="Planète" display="inline">
		
			<ellipse fill="#FFFFFF" stroke="#000000" stroke-linecap="round" stroke-miterlimit="10" cx="107.547" cy="93.017" rx="19.545" ry="7.135"/>
		<path fill="#FFFFFF" stroke="#000000" stroke-linecap="round" stroke-miterlimit="10" d="M174.964,84.49
			c0.74,3.869-7.255,8.652-17.854,10.68c-10.603,2.032-19.798,0.542-20.539-3.328c-0.74-3.871,7.253-8.651,17.854-10.683
			C165.027,79.128,174.223,80.619,174.964,84.49z"/>
		<path fill="#FFFFFF" stroke="#000000" stroke-linecap="round" stroke-miterlimit="10" d="M38.705,84.49
			c-0.739,3.869,7.255,8.652,17.854,10.68c10.603,2.032,19.797,0.542,20.538-3.328c0.741-3.871-7.253-8.651-17.854-10.683
			S39.447,80.619,38.705,84.49z"/>
		<path fill="#FFFFFF" stroke="#000000" stroke-linecap="round" stroke-miterlimit="10" d="M195.918,68.976h-13.094
			c-10.396-7.391-40.619-12.737-76.298-12.737c-35.681,0-65.899,5.348-76.297,12.737H17.354L30.497,80.46l0,0l0,0l0,0
			c10.635,7.295,40.644,12.558,76.03,12.558c35.388,0,65.396-5.263,76.031-12.558l0,0L195.918,68.976z"/>
		
			<ellipse fill="#FFFFFF" stroke="#000000" stroke-linecap="round" stroke-miterlimit="10" cx="106.638" cy="63.443" rx="92.365" ry="21.186"/>
		
			<ellipse fill="#FFFFFF" stroke="#000000" stroke-linecap="round" stroke-miterlimit="10" cx="106.637" cy="58.933" rx="80.174" ry="18.391"/>
		<path fill="#FFFFFF" stroke="#000000" stroke-linecap="round" stroke-miterlimit="10" d="M171.225,53.965L171.225,53.965
			c-10.878-15.818-40.305-33.32-64.585-33.32c-25.009,0-55.157,17.843-65.185,34.36l0,0c-0.194,0.47-0.303,0.945-0.303,1.429
			c0,8.295,29.316,15.022,65.483,15.022c36.166,0,65.485-6.729,65.485-15.022C172.121,55.594,171.805,54.769,171.225,53.965z"/>
		<path fill="#FFFFFF" stroke="#000000" stroke-linecap="round" stroke-miterlimit="10" d="M92.406,28.265
			c-1.314-1.615-11.074,4.172-21.803,12.922c-10.728,8.75-18.356,17.147-17.041,18.762c1.313,1.613,11.074-4.174,21.801-12.924
			C86.095,38.275,93.723,29.875,92.406,28.265z"/>
		
			<ellipse transform="matrix(-0.667 -0.7451 0.7451 -0.667 135.1659 138.2811)" fill="#FFFFFF" stroke="#000000" stroke-linecap="round" stroke-miterlimit="10" cx="98.486" cy="38.934" rx="3.314" ry="13.734"/>
		<path fill="#FFFFFF" stroke="#000000" stroke-linecap="round" stroke-miterlimit="10" d="M158.396,48.067
			c1.214-1.579,2.279-3.143,3.175-4.609c-1.479-1.287-3.048-2.557-4.689-3.8c-1.221,1.271-2.492,2.744-3.744,4.375
			c-4.618,6.018-7.184,11.798-5.73,12.911C148.855,58.06,153.78,54.085,158.396,48.067z"/>
		<path fill="#FFFFFF" stroke="#000000" stroke-linecap="round" stroke-miterlimit="10" d="M127.339,70.685
			c0.158-0.166,0.317-0.324,0.476-0.492c9.573-10,16.114-19.273,14.61-20.709c-1.501-1.441-10.479,5.499-20.052,15.5
			c-2.066,2.158-3.98,4.276-5.714,6.297C120.329,71.15,123.895,70.948,127.339,70.685z"/>
		
			<line fill="none" stroke="#000000" stroke-linecap="round" stroke-miterlimit="10" x1="81.412" y1="100.152" x2="69.393" y2="143.406"/>
		
			<line fill="none" stroke="#000000" stroke-linecap="round" stroke-miterlimit="10" x1="133.541" y1="100.152" x2="145.053" y2="143.406"/>
		
			<line fill="none" stroke="#000000" stroke-linecap="round" stroke-miterlimit="10" x1="75.402" y1="100.152" x2="53.413" y2="143.406"/>
		
			<line fill="none" stroke="#000000" stroke-linecap="round" stroke-miterlimit="10" x1="139.297" y1="100.152" x2="160.46" y2="143.406"/>
	</g>
	<g display="inline">
		
			<rect x="409.332" y="144.817" fill="#FFFFFF" stroke="#000000" stroke-linecap="round" stroke-miterlimit="10" width="120.201" height="4"/>
		<path fill="#FFFFFF" stroke="#000000" stroke-linecap="round" stroke-miterlimit="10" d="M412.2,120.097
			c-3.675,8.154-5.737,17.193-5.737,26.72c0,9.525,2.062,18.564,5.737,26.721V120.097z"/>
		<path fill="#FFFFFF" stroke="#000000" stroke-linecap="round" stroke-miterlimit="10" d="M421.605,188.558
			c5.513,6.595,12.309,12.071,20,16.069V89.008c-7.691,3.998-14.487,9.476-20,16.07V188.558z"/>
		<path fill="#FFFFFF" stroke="#000000" stroke-linecap="round" stroke-miterlimit="10" d="M450.938,208.583
			c4.474,1.495,9.154,2.536,14,3.027V82.025c-4.846,0.492-9.526,1.532-14,3.026V208.583z"/>
		<path fill="#FFFFFF" stroke="#000000" stroke-linecap="round" stroke-miterlimit="10" d="M473.129,211.907
			c5.945-0.138,11.693-1.064,17.143-2.694V84.422c-5.448-1.629-11.196-2.556-17.143-2.693V211.907z"/>
		<path fill="#FFFFFF" stroke="#000000" stroke-linecap="round" stroke-miterlimit="10" d="M502.717,204.039
			c3.629-1.978,7.049-4.291,10.219-6.897V96.494c-3.17-2.606-6.59-4.92-10.219-6.898V204.039z"/>
		<path fill="#FFFFFF" stroke="#000000" stroke-linecap="round" stroke-miterlimit="10" d="M529.533,176.547
			c4.584-8.916,7.188-19.016,7.188-29.729s-2.604-20.814-7.188-29.729V176.547z"/>
	</g>
	<g display="inline">
		<circle fill="#FFFFFF" stroke="#000000" stroke-miterlimit="10" cx="467.998" cy="384.932" r="74.262"/>
		<path fill="#FFFFFF" stroke="#000000" stroke-miterlimit="10" d="M427.665,368.356c-4.845,11.98-6.794,25.555-15.665,35.533
			c-6.312-18.938,9.904-58.136,20-74C437.309,340.505,430.788,357.89,427.665,368.356
			C426.888,370.279,428.676,364.969,427.665,368.356z"/>
		<path fill="#FFFFFF" stroke="#000000" stroke-miterlimit="10" d="M453.388,393.135c8.333-15.213,12.771-32.443,23.612-46.246
			c-0.987,31.517-15.4,69.756-29,98C448,427.305,445.156,409.02,453.388,393.135C455.605,388.856,453.388,393.135,453.388,393.135z"
			/>
		<path fill="#FFFFFF" stroke="#000000" stroke-miterlimit="10" d="M467.227,310.604C442.793,313.787,441,359.491,441,377.889
			C443.282,371.042,469.896,310.611,467.227,310.604C454.613,312.248,467.727,310.606,467.227,310.604z"/>
		<path fill="#FFFFFF" stroke="#000000" stroke-miterlimit="10" d="M504.639,372.758c-16.599,26.438-17.324,58.396-30.639,86.132
			c16.809-4.88,24.682-19.901,27.837-36.024C502.823,417.823,509.716,374.178,504.639,372.758
			C503.059,375.275,505.457,372.987,504.639,372.758z"/>
		<path fill="#FFFFFF" stroke="#000000" stroke-miterlimit="10" d="M536.328,355.813c-1.111-2.27-2.223-4.537-3.334-6.807
			c-15.311,20.44-11.184,49.355-12.994,72.883C535.075,406.815,534.191,375.628,536.328,355.813
			C535.332,353.479,536.136,357.596,536.328,355.813z"/>
		<path fill="#FFFFFF" stroke="#000000" stroke-miterlimit="10" d="M573.674,352.114c-3.439-11.078-23.187-16.319-49.15-15.34
			c2.219,2.91,3.834,4.97,7.584,10.66c12.263,1.455,20.142,4.252,22.146,10.711c4.936,15.891-29.684,40.766-77.318,55.56
			c-47.64,14.794-90.26,13.907-95.192-1.984c-2.026-6.524,2.62-14.565,12.096-22.801c-0.065-1.263-0.102-2.586-0.102-3.987
			c0-2.514,0.128-4.998,0.372-7.447c-22.594,14.093-35.28,29.018-31.787,40.268c6.046,19.467,58.26,20.557,116.625,2.432
			C537.309,402.057,579.72,371.582,573.674,352.114z"/>
	</g>
</g>
<g id="Calque_1_1_" display="none">
	
		<image display="inline" overflow="visible" opacity="0.3" enable-background="new    " width="1204" height="1204" xlink:href="9AAF790E069D2BC1.jpeg"  transform="matrix(0.24 0 0 0.24 153 276.8894)">
	</image>
</g>
<path fill="none" stroke="#E6E6E6" stroke-width="3" stroke-miterlimit="10" d="M31.713,10.477h26.651l6.661,9.993h9.993
	c2.756,0,5.11,0.994,7.063,2.982c1.952,1.982,2.929,4.356,2.929,7.116v36.586c0,2.756-0.977,5.107-2.929,7.04
	c-1.953,1.929-4.308,2.897-7.063,2.897H15.061c-2.762,0-5.116-0.973-7.064-2.929c-1.953-1.945-2.93-4.3-2.93-7.063V30.515
	c0-2.76,0.977-5.122,2.93-7.091c1.948-1.973,4.303-2.955,7.064-2.955h9.993L31.713,10.477z M45.039,30.462
	c2.256,0,4.411,0.443,6.467,1.327c2.051,0.882,3.818,2.065,5.307,3.547c1.484,1.482,2.67,3.254,3.552,5.309
	c0.882,2.057,1.319,4.213,1.323,6.465c0.004,2.257-0.441,4.405-1.323,6.465c-0.886,2.06-2.071,3.831-3.552,5.312
	c-1.48,1.488-3.252,2.662-5.307,3.551c-2.06,0.883-4.219,1.323-6.467,1.323c-2.254,0-4.408-0.44-6.467-1.323
	c-2.058-0.889-3.827-2.062-5.308-3.551c-1.482-1.48-2.668-3.252-3.552-5.312c-0.886-2.06-1.326-4.208-1.326-6.465
	c0-2.252,0.442-4.408,1.326-6.465c0.884-2.055,2.065-3.827,3.552-5.309c1.484-1.482,3.254-2.666,5.308-3.547
	C40.627,30.905,42.785,30.462,45.039,30.462z"/>
</svg>
