<?xml version="1.0" encoding="utf-8"?>
<!-- Generator: Adobe Illustrator 16.0.0, SVG Export Plug-In . SVG Version: 6.00 Build 0)  -->
<!DOCTYPE svg PUBLIC "-//W3C//DTD SVG 1.1//EN" "http://www.w3.org/Graphics/SVG/1.1/DTD/svg11.dtd">
<svg version="1.1" id="Calque_1" xmlns="http://www.w3.org/2000/svg" xmlns:xlink="http://www.w3.org/1999/xlink" x="0px" y="0px"
	 width="420.5px" height="236.891px" viewBox="0 0 420.5 236.891" enable-background="new 0 0 420.5 236.891" xml:space="preserve">
<g id="Calque_2" display="none">
	<g id="Avatar" display="inline">
		<rect x="151.453" y="369.132" fill="#384C81" width="233.863" height="233.863"/>
		<path fill="#E74C3D" stroke="#000000" stroke-linecap="round" stroke-miterlimit="10" d="M178.198,567.995
			c-11.077-32.463-0.561-66.93-0.561-66.93l11.636,31.447c0,0-2.054,23.666,5.605,34.149l-6.427,5.202L178.198,567.995z"/>
		<path fill="#95A5A4" stroke="#000000" stroke-linecap="round" stroke-miterlimit="10" d="M358.84,602.996l-11.751-34.017
			c-5.063-1.929-9.825-1.971-9.825-1.971l-137.431-0.757c0,0-4.842-0.187-9.907,1.742l-1.474,34.683"/>
		<path fill="#7E8C8D" stroke="#000000" stroke-linecap="round" stroke-miterlimit="10" d="M361.189,503.923
			c-5.938,0-10.758-3.962-10.758-8.85v-39.536c0-4.884,4.819-8.847,10.758-8.847h3.33c5.938,0,10.758,3.963,10.758,8.847v39.536
			c0,4.888-4.819,8.85-10.758,8.85H361.189z"/>
		<path fill="#95A5A4" stroke="#000000" stroke-linecap="round" stroke-miterlimit="10" d="M225.536,568.673
			c-29.598-16.549-49.767-49.454-49.767-87.35c0-54.521,41.75-98.719,93.252-98.719c51.5,0,93.25,44.198,93.25,98.719
			c0,36.994-19.227,69.236-47.677,86.142"/>
		<path fill="#C13A2B" stroke="#000000" stroke-linecap="round" stroke-miterlimit="10" d="M334.939,508.102
			c0,22.857-17.631,41.391-39.375,41.391h-50.894c-21.745,0-39.374-18.532-39.374-41.391v-17.391
			c0-28.684,16.456-32.537,27.067-32.537c13.857,0,19.936,4.818,37.3,4.818c15.757,0,21.555-4.309,38.594-4.596
			c13.176-0.224,26.682,1.381,26.682,32.313V508.102z"/>
		<path fill="#B9C8E7" stroke="#000000" stroke-linecap="round" stroke-miterlimit="10" d="M328.966,507.54
			c0,19.843-16.005,35.932-35.746,35.932h-46.206c-19.74,0-35.744-16.089-35.744-35.932v-15.096c0-24.9,14.938-28.247,24.572-28.247
			c12.582,0,18.102,4.184,33.865,4.184c14.304,0,19.568-3.738,35.037-3.989c11.962-0.193,24.222,1.198,24.222,28.054V507.54z"/>
		<path fill="none" stroke="#000000" stroke-miterlimit="10" d="M270.118,390.323c0,0,3.405,30.225,0,65.923"/>
		
			<ellipse fill="#E74C3D" stroke="#000000" stroke-linecap="round" stroke-miterlimit="10" cx="260.691" cy="402.666" rx="2.619" ry="3.017"/>
		<path fill="#E74C3D" stroke="#000000" stroke-linecap="round" stroke-miterlimit="10" d="M263.311,421.838
			c0,1.667-1.172,3.015-2.621,3.015c-1.444,0-2.618-1.348-2.618-3.015c0-1.669,1.174-3.02,2.618-3.02
			C262.139,418.818,263.311,420.169,263.311,421.838z"/>
		
			<ellipse fill="#E74C3D" stroke="#000000" stroke-linecap="round" stroke-miterlimit="10" cx="260.691" cy="441.007" rx="2.619" ry="3.017"/>
		
			<ellipse fill="#E74C3D" stroke="#000000" stroke-linecap="round" stroke-miterlimit="10" cx="280.598" cy="402.666" rx="2.62" ry="3.017"/>
		<path fill="#E74C3D" stroke="#000000" stroke-linecap="round" stroke-miterlimit="10" d="M283.218,421.838
			c0,1.667-1.172,3.015-2.621,3.015c-1.444,0-2.618-1.348-2.618-3.015c0-1.669,1.174-3.02,2.618-3.02
			C282.046,418.818,283.218,420.169,283.218,421.838z"/>
		
			<ellipse fill="#E74C3D" stroke="#000000" stroke-linecap="round" stroke-miterlimit="10" cx="280.598" cy="441.007" rx="2.62" ry="3.017"/>
		<path fill="#FFFFFF" stroke="#000000" stroke-linecap="round" stroke-miterlimit="10" d="M269.021,534.631"/>
		<path fill="#7E8C8D" stroke="#000000" stroke-linecap="round" stroke-miterlimit="10" d="M199.833,566.252l1.718,0.802
			c13.854,6.148,38.889,10.256,67.471,10.256c27.358,0,51.468-3.763,65.631-9.479l2.232-0.836c1.958-6.546-4.177-9.194-6.791-10.011
			c-11.64,5.896-34.619,9.911-61.072,9.911c-26.911,0-50.216-4.155-61.656-10.219h-0.006
			C207.36,556.677,197.369,558.01,199.833,566.252z"/>
		<path fill="#7E8C8D" stroke="#000000" stroke-linecap="round" stroke-miterlimit="10" d="M191.399,603.007
			c0,0,8.434-36.013-6.093-36.755c-4.343-0.223-9.055,1.971-10.822,5.531"/>
		<path fill="#7E8C8D" stroke="#000000" stroke-linecap="round" stroke-miterlimit="10" d="M190.506,602.347
			c0,0-9.692-36.607-22.43-29.589c-3.808,2.101-5.99,5.102-6.406,8.928"/>
		<path fill="#7E8C8D" stroke="#000000" stroke-linecap="round" stroke-miterlimit="10" d="M189.791,603.007
			c0,0-25.71-30.021-34.204-18.216c-2.54,3.529-2.7,8.271-1.2,12.29"/>
		<path fill="#7E8C8D" stroke="#000000" stroke-linecap="round" stroke-miterlimit="10" d="M188.453,602.987
			c0,0-31.888-17.242-35.168-3.071c-0.179,0.776-0.279,2.329-0.294,3.092"/>
		<path fill="#7E8C8D" stroke="#000000" stroke-linecap="round" stroke-miterlimit="10" d="M345.617,602.827
			c0,0-8.354-35.075,6.174-35.817c4.343-0.223,9.055,1.972,10.822,5.532"/>
		<path fill="#7E8C8D" stroke="#000000" stroke-linecap="round" stroke-miterlimit="10" d="M346.352,602.827
			c0,0,9.931-36.33,22.67-29.311c3.808,2.1,5.988,5.102,6.404,8.928"/>
		<path fill="#7E8C8D" stroke="#000000" stroke-linecap="round" stroke-miterlimit="10" d="M347.225,602.827
			c0,0,25.793-29.083,34.285-17.277c2.541,3.528,2.701,8.271,1.201,12.29"/>
		<path fill="#7E8C8D" stroke="#000000" stroke-linecap="round" stroke-miterlimit="10" d="M348.562,602.805
			c0,0,31.971-16.304,35.25-2.133c0.095,0.402,0.218,1.604,0.267,2.004"/>
		<path fill="none" stroke="#000000" stroke-linecap="round" stroke-miterlimit="10" d="M199.441,578.43
			c0,0,23.276,16.077,69.581,16.077s65.918-16.077,65.918-16.077"/>
		<path fill="#E74C3D" stroke="#000000" stroke-linecap="round" stroke-miterlimit="10" d="M224.752,581.222
			c0,1.667-1.172,3.016-2.621,3.016c-1.445,0-2.619-1.349-2.619-3.016c0-1.669,1.174-3.021,2.619-3.021
			C223.58,578.203,224.752,579.553,224.752,581.222z"/>
		<path fill="#E74C3D" stroke="#000000" stroke-linecap="round" stroke-miterlimit="10" d="M317.359,580.315
			c0,1.668-1.172,3.015-2.62,3.015c-1.445,0-2.619-1.347-2.619-3.015c0-1.67,1.174-3.021,2.619-3.021
			C316.188,577.294,317.359,578.645,317.359,580.315z"/>
		<path fill="#E74C3D" stroke="#000000" stroke-linecap="round" stroke-miterlimit="10" d="M247.249,585.792
			c0,1.667-1.172,3.015-2.619,3.015c-1.446,0-2.619-1.348-2.619-3.015c0-1.67,1.173-3.021,2.619-3.021
			C246.077,582.772,247.249,584.123,247.249,585.792z"/>
		<path fill="#E74C3D" stroke="#000000" stroke-linecap="round" stroke-miterlimit="10" d="M294.864,585.792
			c0,1.667-1.173,3.015-2.623,3.015c-1.443,0-2.619-1.348-2.619-3.015c0-1.67,1.176-3.021,2.619-3.021
			C293.691,582.772,294.864,584.123,294.864,585.792z"/>
		<path fill="#E74C3D" stroke="#000000" stroke-linecap="round" stroke-miterlimit="10" d="M270.973,587.261
			c0,1.667-1.172,3.016-2.621,3.016c-1.444,0-2.619-1.349-2.619-3.016c0-1.67,1.175-3.021,2.619-3.021
			C269.801,584.242,270.973,585.592,270.973,587.261z"/>
		
			<line fill="none" stroke="#000000" stroke-linecap="round" stroke-miterlimit="10" x1="222.133" y1="593.516" x2="222.133" y2="602.677"/>
		
			<line fill="none" stroke="#000000" stroke-linecap="round" stroke-miterlimit="10" x1="228.184" y1="595.119" x2="228.184" y2="602.677"/>
		
			<line fill="none" stroke="#000000" stroke-linecap="round" stroke-miterlimit="10" x1="317.359" y1="593.516" x2="317.359" y2="602.677"/>
		
			<line fill="none" stroke="#000000" stroke-linecap="round" stroke-miterlimit="10" x1="311.311" y1="595.119" x2="311.311" y2="602.677"/>
		
			<line fill="none" stroke="#000000" stroke-linecap="round" stroke-miterlimit="10" x1="265.732" y1="598.529" x2="265.732" y2="602.677"/>
		
			<line fill="none" stroke="#000000" stroke-linecap="round" stroke-miterlimit="10" x1="270.875" y1="598.529" x2="270.875" y2="602.677"/>
		<path fill="#FFFFFF" d="M268.824,468.365c-4.883-0.052-8.778-0.501-12.215-1.095l-30.313,41.116
			c-1.687,2.289-2.231,4.752-1.221,5.5l4.812,3.544c1.015,0.75,3.205-0.501,4.894-2.793l33.422-45.331
			C268.432,468.994,268.637,468.678,268.824,468.365z"/>
		<path fill="#FFFFFF" d="M304.744,464.39c-1.775,0.028-3.401,0.107-4.936,0.218l-53.291,72.285
			c-1.733,2.353-3.002,4.623-3.63,6.319c1.354,0.156,2.729,0.258,4.126,0.258h7.734c0.085-0.112,0.17-0.213,0.254-0.328
			l57.771-78.357C310.18,464.388,307.456,464.347,304.744,464.39z"/>
		<path fill="#FFFFFF" d="M328.966,492.444c0-2.938-0.153-5.554-0.432-7.911l-43.451,58.938h8.137c1.798,0,3.55-0.177,5.277-0.436
			l30.468-41.324L328.966,492.444L328.966,492.444z"/>
		<path fill="none" stroke="#000000" stroke-linecap="round" stroke-miterlimit="10" d="M174.484,516.39
			c0,0,4.307,7.524,10.875,8.576"/>
		<path fill="none" stroke="#000000" stroke-linecap="round" stroke-miterlimit="10" d="M173.237,529.872
			c0,0,3.052,7.292,14.7,6.568"/>
		<path fill="none" stroke="#000000" stroke-linecap="round" stroke-miterlimit="10" d="M173.412,543.47
			c0,0,6.698,6.954,15.862,3.191"/>
		<path fill="none" stroke="#000000" stroke-linecap="round" stroke-miterlimit="10" d="M175.769,555.681c0,0,7.046,4.823,14.737,0"
			/>
		
			<line fill="none" stroke="#000000" stroke-linecap="round" stroke-miterlimit="10" x1="361.189" y1="446.692" x2="361.189" y2="411.464"/>
		
			<line fill="none" stroke="#000000" stroke-linecap="round" stroke-miterlimit="10" x1="368.736" y1="447.397" x2="368.736" y2="426.658"/>
		<circle fill="#E74C3D" stroke="#000000" stroke-linecap="round" stroke-miterlimit="10" cx="361.189" cy="409.008" r="3.326"/>
		<circle fill="#E74C3D" stroke="#000000" stroke-linecap="round" stroke-miterlimit="10" cx="368.736" cy="424.782" r="3.326"/>
		
			<rect x="151.453" y="369.132" fill="none" stroke="#000000" stroke-linecap="round" stroke-miterlimit="10" width="233.863" height="233.863"/>
	</g>
	<g id="Planète" display="inline">
		
			<ellipse fill="#FFFFFF" stroke="#000000" stroke-linecap="round" stroke-miterlimit="10" cx="184.047" cy="93.017" rx="19.545" ry="7.135"/>
		<path fill="#FFFFFF" stroke="#000000" stroke-linecap="round" stroke-miterlimit="10" d="M251.464,84.49
			c0.74,3.869-7.255,8.652-17.854,10.68c-10.603,2.032-19.798,0.542-20.539-3.328c-0.74-3.871,7.253-8.651,17.854-10.683
			C241.527,79.128,250.723,80.619,251.464,84.49z"/>
		<path fill="#FFFFFF" stroke="#000000" stroke-linecap="round" stroke-miterlimit="10" d="M115.205,84.49
			c-0.739,3.869,7.255,8.652,17.854,10.68c10.602,2.032,19.797,0.542,20.538-3.328c0.741-3.871-7.253-8.651-17.854-10.683
			C125.142,79.128,115.947,80.619,115.205,84.49z"/>
		<path fill="#FFFFFF" stroke="#000000" stroke-linecap="round" stroke-miterlimit="10" d="M272.418,68.976h-13.094
			c-10.396-7.391-40.619-12.737-76.298-12.737c-35.68,0-65.899,5.348-76.297,12.737H93.854l13.143,11.483l0,0l0,0l0,0
			c10.635,7.295,40.644,12.558,76.03,12.558c35.388,0,65.396-5.263,76.031-12.558l0,0L272.418,68.976z"/>
		
			<ellipse fill="#FFFFFF" stroke="#000000" stroke-linecap="round" stroke-miterlimit="10" cx="183.138" cy="63.443" rx="92.365" ry="21.186"/>
		
			<ellipse fill="#FFFFFF" stroke="#000000" stroke-linecap="round" stroke-miterlimit="10" cx="183.137" cy="58.933" rx="80.174" ry="18.391"/>
		<path fill="#FFFFFF" stroke="#000000" stroke-linecap="round" stroke-miterlimit="10" d="M247.725,53.965L247.725,53.965
			c-10.878-15.818-40.305-33.32-64.584-33.32c-25.009,0-55.158,17.843-65.185,34.36l0,0c-0.194,0.47-0.303,0.945-0.303,1.429
			c0,8.295,29.316,15.022,65.483,15.022c36.166,0,65.485-6.729,65.485-15.022C248.621,55.594,248.305,54.769,247.725,53.965z"/>
		<path fill="#FFFFFF" stroke="#000000" stroke-linecap="round" stroke-miterlimit="10" d="M168.906,28.265
			c-1.314-1.615-11.074,4.172-21.803,12.922c-10.727,8.75-18.356,17.147-17.041,18.762c1.314,1.613,11.075-4.174,21.801-12.924
			C162.595,38.275,170.223,29.875,168.906,28.265z"/>
		
			<ellipse transform="matrix(-0.667 -0.7451 0.7451 -0.667 262.6949 195.2793)" fill="#FFFFFF" stroke="#000000" stroke-linecap="round" stroke-miterlimit="10" cx="174.988" cy="38.933" rx="3.314" ry="13.735"/>
		<path fill="#FFFFFF" stroke="#000000" stroke-linecap="round" stroke-miterlimit="10" d="M234.896,48.067
			c1.214-1.579,2.279-3.143,3.175-4.609c-1.479-1.287-3.048-2.557-4.689-3.8c-1.221,1.271-2.492,2.744-3.744,4.375
			c-4.618,6.018-7.184,11.798-5.73,12.911C225.355,58.06,230.28,54.085,234.896,48.067z"/>
		<path fill="#FFFFFF" stroke="#000000" stroke-linecap="round" stroke-miterlimit="10" d="M203.839,70.685
			c0.158-0.166,0.317-0.324,0.476-0.492c9.573-10,16.114-19.273,14.61-20.709c-1.501-1.441-10.479,5.499-20.052,15.5
			c-2.066,2.158-3.98,4.276-5.714,6.297C196.829,71.15,200.395,70.948,203.839,70.685z"/>
		
			<line fill="none" stroke="#000000" stroke-linecap="round" stroke-miterlimit="10" x1="157.912" y1="100.152" x2="145.892" y2="143.406"/>
		
			<line fill="none" stroke="#000000" stroke-linecap="round" stroke-miterlimit="10" x1="210.041" y1="100.152" x2="221.553" y2="143.406"/>
		
			<line fill="none" stroke="#000000" stroke-linecap="round" stroke-miterlimit="10" x1="151.902" y1="100.152" x2="129.913" y2="143.406"/>
		
			<line fill="none" stroke="#000000" stroke-linecap="round" stroke-miterlimit="10" x1="215.797" y1="100.152" x2="236.96" y2="143.406"/>
	</g>
	<g display="inline">
		
			<rect x="485.832" y="144.817" fill="#FFFFFF" stroke="#000000" stroke-linecap="round" stroke-miterlimit="10" width="120.201" height="4"/>
		<path fill="#FFFFFF" stroke="#000000" stroke-linecap="round" stroke-miterlimit="10" d="M488.7,120.097
			c-3.675,8.154-5.737,17.193-5.737,26.72c0,9.525,2.062,18.564,5.737,26.721V120.097z"/>
		<path fill="#FFFFFF" stroke="#000000" stroke-linecap="round" stroke-miterlimit="10" d="M498.105,188.558
			c5.513,6.595,12.309,12.071,20,16.069V89.008c-7.691,3.998-14.487,9.476-20,16.07V188.558z"/>
		<path fill="#FFFFFF" stroke="#000000" stroke-linecap="round" stroke-miterlimit="10" d="M527.438,208.583
			c4.474,1.495,9.154,2.536,14,3.027V82.025c-4.846,0.492-9.526,1.532-14,3.026V208.583z"/>
		<path fill="#FFFFFF" stroke="#000000" stroke-linecap="round" stroke-miterlimit="10" d="M549.629,211.907
			c5.945-0.138,11.693-1.064,17.143-2.694V84.422c-5.448-1.629-11.196-2.556-17.143-2.693V211.907z"/>
		<path fill="#FFFFFF" stroke="#000000" stroke-linecap="round" stroke-miterlimit="10" d="M579.217,204.039
			c3.629-1.978,7.049-4.291,10.219-6.897V96.494c-3.17-2.606-6.59-4.92-10.219-6.898V204.039z"/>
		<path fill="#FFFFFF" stroke="#000000" stroke-linecap="round" stroke-miterlimit="10" d="M606.033,176.547
			c4.584-8.916,7.188-19.016,7.188-29.729s-2.604-20.814-7.188-29.729V176.547z"/>
	</g>
	<g display="inline">
		<circle fill="#FFFFFF" stroke="#000000" stroke-miterlimit="10" cx="544.498" cy="384.932" r="74.262"/>
		<path fill="#FFFFFF" stroke="#000000" stroke-miterlimit="10" d="M504.165,368.356c-4.845,11.98-6.794,25.555-15.665,35.533
			c-6.312-18.938,9.904-58.136,20-74C513.809,340.505,507.288,357.89,504.165,368.356
			C503.388,370.279,505.176,364.969,504.165,368.356z"/>
		<path fill="#FFFFFF" stroke="#000000" stroke-miterlimit="10" d="M529.888,393.135c8.333-15.213,12.771-32.443,23.612-46.246
			c-0.987,31.517-15.4,69.756-29,98C524.5,427.305,521.656,409.02,529.888,393.135C532.105,388.856,529.888,393.135,529.888,393.135
			z"/>
		<path fill="#FFFFFF" stroke="#000000" stroke-miterlimit="10" d="M543.727,310.604c-24.434,3.182-26.227,48.887-26.227,67.285
			C519.782,371.042,546.396,310.611,543.727,310.604C531.113,312.248,544.227,310.606,543.727,310.604z"/>
		<path fill="#FFFFFF" stroke="#000000" stroke-miterlimit="10" d="M581.139,372.758c-16.599,26.438-17.324,58.396-30.639,86.132
			c16.809-4.88,24.682-19.901,27.837-36.024C579.323,417.823,586.216,374.178,581.139,372.758
			C579.559,375.275,581.957,372.987,581.139,372.758z"/>
		<path fill="#FFFFFF" stroke="#000000" stroke-miterlimit="10" d="M612.828,355.813c-1.111-2.27-2.223-4.537-3.334-6.807
			c-15.311,20.439-11.186,49.354-12.994,72.882C611.575,406.815,610.691,375.628,612.828,355.813
			C611.832,353.479,612.636,357.596,612.828,355.813z"/>
		<path fill="#FFFFFF" stroke="#000000" stroke-miterlimit="10" d="M650.174,352.114c-3.439-11.078-23.187-16.319-49.15-15.34
			c2.219,2.91,3.834,4.97,7.584,10.66c12.263,1.455,20.142,4.252,22.146,10.711c4.936,15.891-29.684,40.766-77.318,55.56
			c-47.64,14.794-90.26,13.907-95.192-1.984c-2.026-6.524,2.62-14.565,12.096-22.801c-0.065-1.263-0.103-2.586-0.103-3.987
			c0-2.514,0.129-4.998,0.373-7.447c-22.595,14.093-35.28,29.018-31.787,40.268c6.046,19.467,58.26,20.557,116.625,2.432
			C613.809,402.057,656.22,371.582,650.174,352.114z"/>
	</g>
</g>
<g id="Calque_3">
	<g id="LignesDerriereAvatar">
		<circle fill="#E6E6E6" cx="9.768" cy="36.652" r="3.601"/>
		<circle fill="#E6E6E6" cx="34.078" cy="198.718" r="3.601"/>
		<circle fill="#E6E6E6" cx="412.232" cy="9.641" r="3.602"/>
		<circle fill="#E6E6E6" cx="393.324" cy="228.429" r="3.602"/>
		<line fill="none" stroke="#E6E6E6" stroke-miterlimit="10" x1="9.768" y1="36.652" x2="393.324" y2="228.428"/>
		<line fill="none" stroke="#E6E6E6" stroke-miterlimit="10" x1="9.768" y1="36.652" x2="101.604" y2="142.118"/>
		<line fill="none" stroke="#E6E6E6" stroke-miterlimit="10" x1="34.078" y1="198.718" x2="144.147" y2="46.943"/>
		<line fill="none" stroke="#E6E6E6" stroke-miterlimit="10" x1="34.078" y1="198.718" x2="412.23" y2="9.641"/>
	</g>
	<g id="Avatar_161_" display="none">
		
			<circle display="inline" fill="#E6E6E6" stroke="#359792" stroke-linecap="round" stroke-miterlimit="10" cx="193.264" cy="117.4" r="111.428"/>
		<path display="inline" fill="#E6E6E6" stroke="#359792" stroke-linecap="round" stroke-miterlimit="10" d="M119.737,184.187
			c-9.029-26.465-0.455-54.564-0.455-54.564l9.487,25.638c0,0-1.674,19.295,4.567,27.842l-5.237,4.239L119.737,184.187z"/>
		<path display="inline" fill="#E6E6E6" stroke="#359792" stroke-linecap="round" stroke-miterlimit="10" d="M251.045,212.692
			c4.489-2.729,8.77-5.769,12.812-9.084l-6.432-18.616c-4.129-1.574-8.01-1.608-8.01-1.608l-112.042-0.614
			c0,0-3.946-0.152-8.076,1.419l-1.008,23.739c2.222,1.598,4.502,3.115,6.843,4.55"/>
		<path display="inline" fill="#E6E6E6" stroke="#359792" stroke-linecap="round" stroke-miterlimit="10" d="M268.922,131.954
			c-4.84,0-8.769-3.229-8.769-7.214V92.506c0-3.979,3.929-7.209,8.769-7.209h2.715c4.842,0,8.771,3.23,8.771,7.209v32.233
			c0,3.984-3.927,7.214-8.771,7.214L268.922,131.954L268.922,131.954z"/>
		<path display="inline" fill="#E6E6E6" stroke="#359792" stroke-linecap="round" stroke-miterlimit="10" d="M158.331,184.742
			c-24.129-13.492-40.572-40.318-40.572-71.213c0-44.447,34.037-80.479,76.023-80.479c41.985,0,76.021,36.032,76.021,80.479
			c0,30.159-15.673,56.446-38.865,70.227"/>
		<path display="inline" fill="#E6E6E6" stroke="#359792" stroke-linecap="round" stroke-miterlimit="10" d="M247.523,135.362
			c0,18.635-14.375,33.743-32.103,33.743H173.93c-17.727,0-32.099-15.108-32.099-33.743v-14.179
			c0-23.384,13.414-26.525,22.065-26.525c11.298,0,16.253,3.927,30.41,3.927c12.844,0,17.573-3.511,31.464-3.746
			c10.742-0.181,21.752,1.126,21.752,26.345v14.179H247.523z"/>
		<path display="inline" fill="#E6E6E6" stroke="#359792" stroke-linecap="round" stroke-miterlimit="10" d="M242.652,134.902
			c0,16.175-13.049,29.293-29.142,29.293h-37.669c-16.094,0-29.141-13.119-29.141-29.293v-12.308
			c0-20.301,12.178-23.027,20.031-23.027c10.256,0,14.758,3.41,27.61,3.41c11.662,0,15.953-3.047,28.563-3.252
			c9.751-0.158,19.747,0.978,19.747,22.869V134.902L242.652,134.902z"/>
		<path display="inline" fill="#E6E6E6" stroke="#359792" stroke-miterlimit="10" d="M194.676,39.34c0,0,2.775,24.643,0,53.744"/>
		
			<ellipse display="inline" fill="#E6E6E6" stroke="#359792" stroke-linecap="round" stroke-miterlimit="10" cx="186.99" cy="49.404" rx="2.137" ry="2.458"/>
		<path display="inline" fill="#E6E6E6" stroke="#359792" stroke-linecap="round" stroke-miterlimit="10" d="M189.127,65.032
			c0,1.362-0.955,2.459-2.137,2.459c-1.178,0-2.137-1.097-2.137-2.459c0-1.36,0.958-2.461,2.137-2.461
			C188.172,62.571,189.127,63.672,189.127,65.032z"/>
		<path display="inline" fill="#E6E6E6" stroke="#359792" stroke-linecap="round" stroke-miterlimit="10" d="M189.127,80.662
			c0,1.36-0.955,2.458-2.137,2.458c-1.178,0-2.137-1.099-2.137-2.458c0-1.361,0.958-2.462,2.137-2.462
			C188.172,78.2,189.127,79.301,189.127,80.662z"/>
		<path display="inline" fill="#E6E6E6" stroke="#359792" stroke-linecap="round" stroke-miterlimit="10" d="M205.355,49.404
			c0,1.358-0.954,2.458-2.137,2.458c-1.177,0-2.135-1.1-2.135-2.458c0-1.36,0.958-2.461,2.135-2.461
			C204.401,46.943,205.355,48.044,205.355,49.404z"/>
		<path display="inline" fill="#E6E6E6" stroke="#359792" stroke-linecap="round" stroke-miterlimit="10" d="M205.355,65.032
			c0,1.362-0.954,2.459-2.137,2.459c-1.177,0-2.135-1.097-2.135-2.459c0-1.36,0.958-2.461,2.135-2.461
			C204.401,62.571,205.355,63.672,205.355,65.032z"/>
		<path display="inline" fill="#E6E6E6" stroke="#359792" stroke-linecap="round" stroke-miterlimit="10" d="M205.355,80.662
			c0,1.36-0.954,2.458-2.137,2.458c-1.177,0-2.135-1.099-2.135-2.458c0-1.361,0.958-2.462,2.135-2.462
			C204.401,78.2,205.355,79.301,205.355,80.662z"/>
		<path display="inline" fill="#E6E6E6" stroke="#359792" stroke-linecap="round" stroke-miterlimit="10" d="M193.782,156.989"/>
		<path display="inline" fill="#E6E6E6" stroke="#359792" stroke-linecap="round" stroke-miterlimit="10" d="M137.375,182.768
			l1.401,0.651c11.296,5.015,31.705,8.363,55.006,8.363c22.304,0,41.96-3.068,53.506-7.73l1.819-0.681
			c1.596-5.336-3.406-7.495-5.536-8.161c-9.489,4.809-28.222,8.08-49.79,8.08c-21.938,0-40.938-3.388-50.266-8.33h-0.004
			C143.513,174.961,135.368,176.049,137.375,182.768z"/>
		<path display="inline" fill="#E6E6E6" stroke="#359792" stroke-linecap="round" stroke-miterlimit="10" d="M137.057,192.697
			c0,0,18.975,13.104,56.725,13.104c37.749,0,53.741-13.104,53.741-13.104"/>
		<path display="inline" fill="#E6E6E6" stroke="#359792" stroke-linecap="round" stroke-miterlimit="10" d="M157.692,194.972
			c0,1.357-0.956,2.457-2.138,2.457c-1.178,0-2.134-1.1-2.134-2.457c0-1.361,0.956-2.463,2.134-2.463
			C156.737,192.51,157.692,193.611,157.692,194.972z"/>
		<path display="inline" fill="#E6E6E6" stroke="#359792" stroke-linecap="round" stroke-miterlimit="10" d="M233.191,194.232
			c0,1.358-0.957,2.457-2.138,2.457c-1.178,0-2.134-1.098-2.134-2.457c0-1.361,0.956-2.462,2.134-2.462
			C232.234,191.77,233.191,192.871,233.191,194.232z"/>
		
			<ellipse display="inline" fill="#E6E6E6" stroke="#359792" stroke-linecap="round" stroke-miterlimit="10" cx="173.896" cy="198.696" rx="2.135" ry="2.458"/>
		
			<ellipse display="inline" fill="#E6E6E6" stroke="#359792" stroke-linecap="round" stroke-miterlimit="10" cx="212.714" cy="198.696" rx="2.136" ry="2.458"/>
		<path display="inline" fill="#E6E6E6" stroke="#359792" stroke-linecap="round" stroke-miterlimit="10" d="M195.374,199.895
			c0,1.357-0.957,2.458-2.137,2.458c-1.178,0-2.135-1.101-2.135-2.458c0-1.361,0.957-2.462,2.135-2.462
			C194.417,197.433,195.374,198.534,195.374,199.895z"/>
		
			<line display="inline" fill="none" stroke="#359792" stroke-linecap="round" stroke-miterlimit="10" x1="155.556" y1="204.995" x2="155.556" y2="222.283"/>
		
			<line display="inline" fill="none" stroke="#359792" stroke-linecap="round" stroke-miterlimit="10" x1="160.49" y1="206.3" x2="160.49" y2="223.535"/>
		
			<line display="inline" fill="none" stroke="#359792" stroke-linecap="round" stroke-miterlimit="10" x1="233.191" y1="204.995" x2="233.191" y2="221.456"/>
		
			<line display="inline" fill="none" stroke="#359792" stroke-linecap="round" stroke-miterlimit="10" x1="228.258" y1="206.3" x2="228.258" y2="223.216"/>
		
			<line display="inline" fill="none" stroke="#359792" stroke-linecap="round" stroke-miterlimit="10" x1="191.102" y1="209.081" x2="191.102" y2="228.803"/>
		
			<line display="inline" fill="none" stroke="#359792" stroke-linecap="round" stroke-miterlimit="10" x1="195.294" y1="209.081" x2="195.294" y2="228.803"/>
		<path display="inline" fill="#E6E6E6" stroke="#359792" stroke-linecap="round" stroke-miterlimit="10" d="M193.622,102.964
			c-3.98-0.041-7.157-0.408-9.958-0.894l-24.715,33.521c-1.373,1.866-1.818,3.874-0.994,4.485l3.922,2.889
			c0.828,0.61,2.615-0.41,3.989-2.277l27.249-36.956C193.301,103.477,193.469,103.22,193.622,102.964z"/>
		<path display="inline" fill="#E6E6E6" stroke="#359792" stroke-linecap="round" stroke-miterlimit="10" d="M222.905,99.725
			c-1.447,0.021-2.772,0.088-4.022,0.177l-43.447,58.93c-1.413,1.916-2.447,3.771-2.958,5.152c1.103,0.128,2.225,0.21,3.364,0.21
			h6.303c0.07-0.092,0.14-0.174,0.208-0.269l47.099-63.881C227.337,99.723,225.115,99.691,222.905,99.725z"/>
		<path display="inline" fill="#E6E6E6" stroke="#359792" stroke-linecap="round" stroke-miterlimit="10" d="M242.652,122.594
			c0-2.394-0.125-4.525-0.353-6.449l-35.424,48.05h6.634c1.465,0,2.896-0.146,4.303-0.354l24.838-33.691v-7.555H242.652z"/>
		<path display="inline" fill="#E6E6E6" stroke="#359792" stroke-linecap="round" stroke-miterlimit="10" d="M116.711,142.118
			c0,0,3.511,6.135,8.866,6.993"/>
		<path display="inline" fill="#E6E6E6" stroke="#359792" stroke-linecap="round" stroke-miterlimit="10" d="M115.694,153.108
			c0,0,2.487,5.943,11.983,5.354"/>
		<path display="inline" fill="#E6E6E6" stroke="#359792" stroke-linecap="round" stroke-miterlimit="10" d="M115.836,164.195
			c0,0,5.461,5.668,12.933,2.602"/>
		<path display="inline" fill="#E6E6E6" stroke="#359792" stroke-linecap="round" stroke-miterlimit="10" d="M117.759,174.15
			c0,0,5.744,3.933,12.013,0"/>
		
			<line display="inline" fill="none" stroke="#359792" stroke-linecap="round" stroke-miterlimit="10" x1="268.922" y1="85.297" x2="268.922" y2="56.577"/>
		
			<line display="inline" fill="none" stroke="#359792" stroke-linecap="round" stroke-miterlimit="10" x1="275.076" y1="85.871" x2="275.076" y2="68.962"/>
		<path display="inline" fill="#E6E6E6" stroke="#359792" stroke-linecap="round" stroke-miterlimit="10" d="M271.634,54.572
			c0,1.499-1.214,2.713-2.712,2.713c-1.497,0-2.709-1.215-2.709-2.713c0-1.496,1.212-2.71,2.709-2.71
			C270.42,51.862,271.634,53.077,271.634,54.572z"/>
		<path display="inline" fill="#E6E6E6" stroke="#359792" stroke-linecap="round" stroke-miterlimit="10" d="M277.788,67.433
			c0,1.498-1.218,2.712-2.712,2.712c-1.5,0-2.714-1.214-2.714-2.712c0-1.497,1.214-2.709,2.714-2.709
			C276.569,64.723,277.788,65.936,277.788,67.433z"/>
		
			<circle display="inline" fill="none" stroke="#359792" stroke-linecap="round" stroke-miterlimit="10" cx="193.264" cy="117.4" r="111.428"/>
		<path display="inline" fill="#E6E6E6" stroke="#359792" stroke-linecap="round" stroke-miterlimit="10" d="M258.314,207.87
			c7.082-5.101,13.543-11.01,19.242-17.594c-0.651-0.583-1.396-1.115-2.25-1.586C267.574,184.427,261.111,199.759,258.314,207.87z"
			/>
		<path display="inline" fill="#E6E6E6" stroke="#359792" stroke-linecap="round" stroke-miterlimit="10" d="M261.259,183.383
			c-9.536,0.489-6.976,19.121-5.621,26.36c1.228-0.829,2.432-1.689,3.622-2.563l10.824-19.285
			C268.643,184.992,264.8,183.204,261.259,183.383z"/>
		<path display="inline" fill="#E6E6E6" stroke="#359792" stroke-linecap="round" stroke-miterlimit="10" d="M111.486,188.072
			c-1.053,0.581-1.942,1.255-2.687,2.003c5.828,6.766,12.455,12.826,19.736,18.031C125.926,200.141,119.435,183.694,111.486,188.072
			z"/>
		<path display="inline" fill="#E6E6E6" stroke="#359792" stroke-linecap="round" stroke-miterlimit="10" d="M125.534,182.768
			c-3.542-0.184-7.382,1.605-8.823,4.51l10.929,20.175c1.133,0.827,2.278,1.637,3.443,2.422
			C132.456,202.486,135.096,183.255,125.534,182.768z"/>
	</g>
</g>
<g id="Calque_1_1_" display="none">
	
		<image display="inline" overflow="visible" opacity="0.3" enable-background="new    " width="1204" height="1204" xlink:href="66F819A29F767E15.jpeg"  transform="matrix(0.24 0 0 0.24 229.5 276.8894)">
	</image>
</g>
<g id="Icônes" display="none">
	<g id="Rocket" display="inline">
		<path fill="#172334" stroke="#D0C5CA" stroke-miterlimit="10" d="M194.592,17.129c-6.478,6.47-50.13,50.118-50.13,50.118
			s-23.387-2.507-30.062,0c-6.683,2.502-30.07,40.089-30.07,40.089s31.869-8.871,50.44-4.705l-31.275,40.214l46.908-26.759
			c9.218,21.09-5.942,51.393-5.942,51.393s38.016-24.223,40.104-30.065c2.088-5.855,0-30.076,0-30.076s45.527-44.689,50.109-50.114
			c4.604-5.427,14.621-47.199,10.026-50.118C240.12,4.183,201.058,10.656,194.592,17.129z"/>
		<path fill="#172334" stroke="#D0C5CA" stroke-miterlimit="10" d="M221.001,32.752c-5.745-6.618-16.613-6.595-24.274,0.065
			c-7.666,6.65-9.219,17.41-3.465,24.03c5.737,6.614,16.617,6.592,24.274-0.067C225.202,50.125,226.755,39.366,221.001,32.752z"/>
	</g>
	<g id="Rocket2" display="inline">
		<path fill="#CCDED6" stroke="#111B29" stroke-miterlimit="10" d="M210.106,59.311c-7.585,0.158-58.721,1.288-58.721,1.288
			s-12.764-15.838-18.228-18.312c-5.468-2.482-40.895,7.141-40.895,7.141s24.336,13.781,33.247,27.732l-41.698,6.481l43.569,11.587
			c-6.33,19.003-32.647,29.003-32.647,29.003s36.746,7.777,41.312,5.34c4.573-2.438,16.997-19.089,16.997-19.089
			s52.867-0.646,58.709-1.296c5.854-0.649,35.539-21.074,34.404-25.722C245.029,78.819,217.688,59.145,210.106,59.311z"/>
		<path fill="#FFFFFF" stroke="#111B29" stroke-miterlimit="10" d="M217.37,85.239c0.257-7.706-6.341-14.311-14.754-14.747
			c-8.406-0.445-15.427,5.437-15.68,13.146c-0.265,7.692,6.349,14.304,14.755,14.741C210.096,98.824,217.123,92.938,217.37,85.239z"
			/>
	</g>
	<g id="Loupe" display="inline">
		<path fill="none" stroke="#E6E6E6" stroke-miterlimit="10" d="M153.993,17.321c7.755,0,15.154,1.515,22.232,4.543
			c7.072,3.034,13.167,7.103,18.258,12.201c5.11,5.1,9.18,11.189,12.209,18.266c3.029,7.071,4.539,14.479,4.539,22.233
			c0,6.652-1.087,13.029-3.252,19.125c-2.176,6.101-5.271,11.628-9.265,16.598l36.121,36.069c1.229,1.229,1.838,2.732,1.838,4.523
			c0,1.829-0.609,3.345-1.811,4.548c-1.209,1.211-2.719,1.815-4.547,1.815c-1.791,0-3.301-0.61-4.521-1.838l-36.065-36.121
			c-4.979,4-10.512,7.085-16.607,9.264c-6.094,2.167-12.461,3.25-19.129,3.25c-7.745,0-15.163-1.515-22.233-4.544
			c-7.071-3.027-13.156-7.098-18.267-12.198c-5.101-5.106-9.153-11.191-12.19-18.258c-3.039-7.074-4.549-14.487-4.549-22.232
			c0-7.754,1.51-15.162,4.549-22.233c3.037-7.075,7.089-13.166,12.19-18.266c5.11-5.099,11.196-9.167,18.267-12.201
			C138.83,18.835,146.248,17.321,153.993,17.321z"/>
		<line fill="none" stroke="#E6E6E6" stroke-miterlimit="10" x1="189.729" y1="119.283" x2="198.713" y2="110.286"/>
	</g>
	<g id="Bonhomme" display="inline">
		<path fill="none" stroke="#E6E6E6" stroke-miterlimit="10" d="M165.529,16.158c7.294,0,14.017,1.798,20.167,5.391
			c6.16,3.598,11.042,8.471,14.622,14.63c3.604,6.155,5.402,12.883,5.402,20.173v6.7c0,5.58-1.076,10.865-3.234,15.854
			c-2.168,4.987-5.186,9.328-9.06,13.025c10.176,1.608,19.235,3.97,27.159,7.096c7.916,3.126,14.117,6.807,18.596,11.059
			c4.479,4.256,6.724,8.739,6.724,13.458v13.186c0,5.55-1.958,10.286-5.882,14.21s-8.664,5.886-14.209,5.886H105.246
			c-5.546,0-10.277-1.962-14.201-5.886s-5.891-8.66-5.891-14.21v-13.243c0-4.71,2.252-9.189,6.723-13.449
			c4.487-4.252,10.68-7.941,18.571-11.059c7.907-3.122,16.949-5.471,27.142-7.046c-3.84-3.731-6.84-8.08-9.008-13.051
			c-2.16-4.971-3.244-10.248-3.235-15.828v-6.7c0-7.29,1.798-14.018,5.396-20.172c3.588-6.16,8.462-11.033,14.63-14.631
			c6.151-3.592,12.882-5.391,20.167-5.391L165.529,16.158L165.529,16.158z"/>
		<path fill="none" stroke="#E6E6E6" stroke-miterlimit="10" d="M137.589,91.928c0,0,27.915,23.234,55.838,0"/>
	</g>
	<path id="Message" display="inline" fill="none" stroke="#E6E6E6" stroke-miterlimit="10" d="M114.054,16.935H215.88
		c5.271,0,9.773,1.855,13.501,5.585c3.721,3.731,5.588,8.23,5.588,13.508v69.995c0,5.27-1.869,9.776-5.588,13.497
		c-3.729,3.725-8.232,5.597-13.501,5.597h-50.905l-44.559,31.816v-31.816h-6.363c-5.27,0-9.771-1.872-13.501-5.597
		c-3.729-3.721-5.589-8.228-5.589-13.497V36.028c0-5.277,1.86-9.776,5.589-13.508C104.282,18.791,108.785,16.935,114.054,16.935z"/>
	<g id="Notif" display="inline">
		<path fill="none" stroke="#E6E6E6" stroke-miterlimit="10" d="M164.963,18.214c1.407,0,4.253,0.878,9.104,2.647
			c4.865,1.77,9.167,4.198,12.919,7.299c3.769,3.105,7.156,6.793,10.161,11.063c3.005,4.277,5.51,8.901,7.505,13.865
			c1.996,4.961,3.554,10.232,4.675,15.813c3.331,16.735,6.877,29.961,10.622,39.685c3.752,9.721,8.658,17.619,14.724,23.689h-51.79
			c0.731,2.079,1.097,4.188,1.097,6.336c0,5.251-1.86,9.73-5.573,13.445c-3.713,3.712-8.189,5.568-13.444,5.568
			c-5.248,0-9.724-1.856-13.437-5.568c-3.713-3.715-5.573-8.194-5.573-13.445c0-2.146,0.366-4.257,1.089-6.336H95.261
			c6.066-6.071,10.98-13.97,14.725-23.689c3.745-9.724,7.283-22.948,10.622-39.685c1.122-5.573,2.68-10.844,4.667-15.813
			c2.004-4.973,4.508-9.588,7.505-13.865c3.013-4.266,6.399-7.958,10.161-11.063c3.76-3.104,8.062-5.537,12.919-7.299
			c4.858-1.761,8.015-2.647,9.112-2.647H164.963z"/>
		<line fill="none" stroke="#E6E6E6" stroke-miterlimit="10" x1="147.042" y1="132.277" x2="182.884" y2="132.277"/>
	</g>
	<path id="EtoilePleine" display="inline" fill="#D58CBC" stroke="#D58CBC" stroke-miterlimit="10" d="M147.374,70.423l17.63-54.266
		l17.63,54.266H239.7l-46.163,32.045l17.63,53.299l-46.164-33.779l-46.17,33.522l17.63-53.042L90.3,70.423H147.374z"/>
	<g id="Points" display="inline">
		<circle fill="#999999" cx="113.224" cy="85.962" r="12.99"/>
		<circle fill="#999999" cx="166.784" cy="85.962" r="12.99"/>
		<circle fill="#999999" cx="216.775" cy="85.962" r="12.99"/>
	</g>
	<path id="Validation" display="inline" fill="none" stroke="#E6E6E6" stroke-linecap="round" stroke-miterlimit="10" d="
		M215.072,54.28l-61.878,61.878c-0.995,0.994-2.214,1.485-3.664,1.485c-1.449,0-2.675-0.492-3.663-1.485l-30.939-30.939"/>
	<path id="Photo" display="inline" fill="none" stroke="#E6E6E6" stroke-miterlimit="10" d="M142.476,29.664h45.042l11.262,16.89
		h16.89c4.658,0,8.639,1.681,11.94,5.04c3.295,3.354,4.95,7.366,4.95,12.032v61.835c0,4.659-1.654,8.632-4.95,11.896
		c-3.302,3.27-7.282,4.904-11.94,4.904H114.33c-4.666,0-8.646-1.646-11.941-4.949c-3.302-3.295-4.949-7.276-4.949-11.94V63.534
		c0-4.665,1.647-8.659,4.949-11.986c3.295-3.334,7.275-4.994,11.941-4.994h16.89L142.476,29.664z M165,63.444
		c3.813,0,7.457,0.75,10.933,2.242c3.463,1.491,6.455,3.488,8.968,5.997c2.507,2.507,4.511,5.498,6.003,8.975
		c1.485,3.476,2.229,7.121,2.234,10.926c0.007,3.812-0.743,7.45-2.234,10.927c-1.5,3.476-3.502,6.475-6.003,8.981
		c-2.507,2.507-5.499,4.497-8.968,5.996c-3.483,1.492-7.134,2.243-10.933,2.243c-3.813,0-7.45-0.75-10.933-2.243
		c-3.476-1.499-6.468-3.489-8.968-5.996c-2.507-2.507-4.511-5.506-6.003-8.981c-1.499-3.477-2.242-7.114-2.242-10.927
		c0-3.806,0.75-7.45,2.242-10.926c1.492-3.477,3.489-6.468,6.003-8.975c2.507-2.508,5.498-4.505,8.968-5.997
		C157.543,64.193,161.188,63.444,165,63.444z"/>
	<path id="Etoile" display="inline" fill="none" stroke="#E6E6E6" stroke-miterlimit="10" d="M147.374,70.423l17.63-54.266
		l17.63,54.266H239.7l-46.163,32.045l17.63,53.299l-46.164-33.779l-46.17,33.522l17.63-53.042L90.3,70.423H147.374z"/>
	<g id="Croix" display="inline">
		
			<line fill="none" stroke="#E6E6E6" stroke-linecap="round" stroke-linejoin="round" stroke-miterlimit="10" x1="115.307" y1="36.269" x2="214.693" y2="135.655"/>
		
			<line fill="none" stroke="#E6E6E6" stroke-linecap="round" stroke-linejoin="round" stroke-miterlimit="10" x1="115.307" y1="135.655" x2="214.693" y2="36.269"/>
	</g>
	<g id="Nouveau" display="inline">
		<path fill="none" stroke="#E6E6E6" stroke-miterlimit="10" d="M165,16.212c9.474,0,18.515,1.842,27.122,5.523
			c8.601,3.681,16.014,8.635,22.243,14.86c6.229,6.229,11.184,13.643,14.861,22.246c3.679,8.602,5.523,17.643,5.523,27.119
			c0,9.475-1.845,18.516-5.523,27.122c-3.678,8.602-8.632,16.013-14.861,22.243c-6.229,6.229-13.643,11.184-22.243,14.862
			c-8.607,3.678-17.648,5.522-27.122,5.522s-18.515-1.845-27.122-5.522c-8.601-3.679-16.014-8.632-22.243-14.862
			c-6.229-6.229-11.183-13.642-14.861-22.243c-3.678-8.606-5.523-17.647-5.523-27.122c0-9.478,1.845-18.518,5.523-27.119
			c3.678-8.604,8.632-16.017,14.861-22.246c6.229-6.226,13.643-11.18,22.243-14.86C146.485,18.053,155.526,16.212,165,16.212z"/>
		<line fill="none" stroke="#E6E6E6" stroke-linecap="round" stroke-miterlimit="10" x1="165" y1="54.257" x2="165" y2="117.667"/>
		
			<line fill="none" stroke="#E6E6E6" stroke-linecap="round" stroke-miterlimit="10" x1="133.295" y1="85.962" x2="196.705" y2="85.962"/>
	</g>
	<g id="FlechesBas" display="inline">
		<path fill="none" stroke="#989898" stroke-linecap="round" stroke-linejoin="round" stroke-miterlimit="10" d="M224.316,82.593
			l-53.848,53.848c-1.518,1.517-3.351,2.283-5.469,2.283s-3.952-0.767-5.469-2.283l-53.847-53.848 M224.316,36.438l-53.848,53.847
			c-1.518,1.518-3.351,2.284-5.469,2.284s-3.952-0.767-5.469-2.284l-53.847-53.847"/>
	</g>
	<g id="Scintillement" display="inline">
		
			<line fill="none" stroke="#E6E6E6" stroke-linecap="round" stroke-linejoin="round" stroke-miterlimit="10" x1="124.457" y1="47.059" x2="146.533" y2="69.14"/>
		
			<line fill="none" stroke="#E6E6E6" stroke-linecap="round" stroke-linejoin="round" stroke-miterlimit="10" x1="183.375" y1="105.981" x2="205.436" y2="128.082"/>
		
			<line fill="none" stroke="#E6E6E6" stroke-linecap="round" stroke-linejoin="round" stroke-miterlimit="10" x1="164.935" y1="30.327" x2="164.935" y2="61.556"/>
		
			<line fill="none" stroke="#E6E6E6" stroke-linecap="round" stroke-linejoin="round" stroke-miterlimit="10" x1="183.335" y1="69.178" x2="205.436" y2="47.079"/>
		
			<line fill="none" stroke="#E6E6E6" stroke-linecap="round" stroke-linejoin="round" stroke-miterlimit="10" x1="190.959" y1="87.581" x2="222.188" y2="87.581"/>
		
			<line fill="none" stroke="#E6E6E6" stroke-linecap="round" stroke-linejoin="round" stroke-miterlimit="10" x1="138.91" y1="87.581" x2="107.681" y2="87.581"/>
		
			<line fill="none" stroke="#E6E6E6" stroke-linecap="round" stroke-linejoin="round" stroke-miterlimit="10" x1="146.533" y1="105.981" x2="124.457" y2="128.102"/>
		
			<line fill="none" stroke="#E6E6E6" stroke-linecap="round" stroke-linejoin="round" stroke-miterlimit="10" x1="164.935" y1="113.605" x2="164.935" y2="144.834"/>
	</g>
	<path id="Rouage" display="inline" fill="none" stroke="#E6E6E6" stroke-miterlimit="10" d="M178.301,16.222l5.511,16.535
		c1.532,0.524,3.38,1.274,5.536,2.251l15.58-7.785l18.814,18.812l-7.79,15.58c0.978,2.155,1.728,4,2.251,5.536l16.536,5.51v26.604
		l-16.536,5.511c-0.523,1.532-1.273,3.38-2.251,5.535l7.79,15.58l-18.814,18.812l-15.58-7.786c-2.156,0.979-4.004,1.729-5.536,2.251
		l-5.511,16.536h-26.602l-5.511-16.536c-1.536-0.522-3.38-1.272-5.536-2.251l-15.527,7.786l-18.814-18.812l7.737-15.58
		c-0.978-2.155-1.728-4.003-2.248-5.535l-16.539-5.511V72.661l16.539-5.51c0.521-1.536,1.271-3.381,2.248-5.536l-7.737-15.58
		l18.814-18.812l15.527,7.785c2.156-0.977,4-1.727,5.536-2.251l5.511-16.535H178.301z M165,60.878
		c6.919,0,12.838,2.449,17.735,7.349c4.897,4.897,7.349,10.812,7.349,17.735c0,6.919-2.45,12.837-7.349,17.735
		c-4.897,4.897-10.816,7.348-17.735,7.348c-6.923,0-12.838-2.449-17.735-7.348s-7.349-10.816-7.349-17.735
		c0-6.923,2.45-12.838,7.349-17.735C152.162,63.328,158.077,60.878,165,60.878z"/>
</g>
</svg>
