<?xml version="1.0" encoding="utf-8"?>
<!-- Generator: Adobe Illustrator 16.0.0, SVG Export Plug-In . SVG Version: 6.00 Build 0)  -->
<!DOCTYPE svg PUBLIC "-//W3C//DTD SVG 1.1//EN" "http://www.w3.org/Graphics/SVG/1.1/DTD/svg11.dtd">
<svg version="1.1" id="Calque_1" xmlns="http://www.w3.org/2000/svg" xmlns:xlink="http://www.w3.org/1999/xlink" x="0px" y="0px"
	 width="237px" height="236.891px" viewBox="0 0 237 236.891" enable-background="new 0 0 237 236.891" xml:space="preserve">
<g id="Calque_2" display="none">
	<g id="Avatar" display="inline">
		<rect x="61.453" y="369.132" fill="#384C81" width="233.863" height="233.863"/>
		<path fill="#E74C3D" stroke="#000000" stroke-linecap="round" stroke-miterlimit="10" d="M88.198,567.995
			c-11.077-32.463-0.562-66.93-0.562-66.93l11.636,31.446c0,0-2.054,23.666,5.605,34.149l-6.427,5.202L88.198,567.995z"/>
		<path fill="#95A5A4" stroke="#000000" stroke-linecap="round" stroke-miterlimit="10" d="M268.84,602.996l-11.751-34.017
			c-5.063-1.93-9.825-1.972-9.825-1.972l-137.431-0.757c0,0-4.842-0.188-9.907,1.742l-1.474,34.683"/>
		<path fill="#7E8C8D" stroke="#000000" stroke-linecap="round" stroke-miterlimit="10" d="M271.189,503.923
			c-5.938,0-10.759-3.962-10.759-8.85v-39.536c0-4.884,4.819-8.847,10.759-8.847h3.33c5.938,0,10.758,3.963,10.758,8.847v39.536
			c0,4.888-4.819,8.85-10.758,8.85H271.189z"/>
		<path fill="#95A5A4" stroke="#000000" stroke-linecap="round" stroke-miterlimit="10" d="M135.536,568.673
			c-29.598-16.549-49.767-49.454-49.767-87.35c0-54.521,41.75-98.719,93.252-98.719c51.5,0,93.25,44.197,93.25,98.719
			c0,36.994-19.228,69.235-47.678,86.142"/>
		<path fill="#C13A2B" stroke="#000000" stroke-linecap="round" stroke-miterlimit="10" d="M244.939,508.103
			c0,22.856-17.631,41.391-39.375,41.391H154.67c-21.745,0-39.374-18.532-39.374-41.391v-17.392
			c0-28.684,16.456-32.537,27.067-32.537c13.856,0,19.936,4.818,37.3,4.818c15.757,0,21.555-4.31,38.594-4.597
			c13.177-0.224,26.683,1.382,26.683,32.313V508.103z"/>
		<path fill="#B9C8E7" stroke="#000000" stroke-linecap="round" stroke-miterlimit="10" d="M238.966,507.54
			c0,19.843-16.005,35.932-35.746,35.932h-46.206c-19.74,0-35.744-16.089-35.744-35.932v-15.096c0-24.9,14.938-28.247,24.572-28.247
			c12.582,0,18.103,4.184,33.865,4.184c14.304,0,19.568-3.738,35.037-3.989c11.962-0.192,24.222,1.198,24.222,28.055V507.54z"/>
		<path fill="none" stroke="#000000" stroke-miterlimit="10" d="M180.118,390.323c0,0,3.405,30.225,0,65.923"/>
		
			<ellipse fill="#E74C3D" stroke="#000000" stroke-linecap="round" stroke-miterlimit="10" cx="170.691" cy="402.666" rx="2.619" ry="3.017"/>
		<path fill="#E74C3D" stroke="#000000" stroke-linecap="round" stroke-miterlimit="10" d="M173.311,421.838
			c0,1.667-1.172,3.015-2.621,3.015c-1.443,0-2.617-1.348-2.617-3.015c0-1.669,1.174-3.02,2.617-3.02
			C172.139,418.819,173.311,420.169,173.311,421.838z"/>
		
			<ellipse fill="#E74C3D" stroke="#000000" stroke-linecap="round" stroke-miterlimit="10" cx="170.691" cy="441.008" rx="2.619" ry="3.017"/>
		
			<ellipse fill="#E74C3D" stroke="#000000" stroke-linecap="round" stroke-miterlimit="10" cx="190.598" cy="402.666" rx="2.62" ry="3.017"/>
		<path fill="#E74C3D" stroke="#000000" stroke-linecap="round" stroke-miterlimit="10" d="M193.218,421.838
			c0,1.667-1.172,3.015-2.621,3.015c-1.443,0-2.618-1.348-2.618-3.015c0-1.669,1.175-3.02,2.618-3.02
			C192.046,418.819,193.218,420.169,193.218,421.838z"/>
		
			<ellipse fill="#E74C3D" stroke="#000000" stroke-linecap="round" stroke-miterlimit="10" cx="190.598" cy="441.008" rx="2.62" ry="3.017"/>
		<path fill="#FFFFFF" stroke="#000000" stroke-linecap="round" stroke-miterlimit="10" d="M179.021,534.631"/>
		<path fill="#7E8C8D" stroke="#000000" stroke-linecap="round" stroke-miterlimit="10" d="M109.833,566.252l1.718,0.802
			c13.854,6.148,38.889,10.256,67.471,10.256c27.358,0,51.469-3.763,65.632-9.479l2.231-0.836c1.958-6.546-4.177-9.194-6.791-10.011
			c-11.64,5.896-34.619,9.911-61.072,9.911c-26.91,0-50.216-4.155-61.655-10.22h-0.006
			C117.36,556.677,107.369,558.01,109.833,566.252z"/>
		<path fill="#7E8C8D" stroke="#000000" stroke-linecap="round" stroke-miterlimit="10" d="M101.399,603.007
			c0,0,8.434-36.013-6.093-36.755c-4.343-0.223-9.055,1.971-10.822,5.531"/>
		<path fill="#7E8C8D" stroke="#000000" stroke-linecap="round" stroke-miterlimit="10" d="M100.506,602.347
			c0,0-9.692-36.606-22.43-29.589c-3.808,2.102-5.99,5.103-6.406,8.929"/>
		<path fill="#7E8C8D" stroke="#000000" stroke-linecap="round" stroke-miterlimit="10" d="M99.791,603.007
			c0,0-25.71-30.021-34.204-18.216c-2.54,3.529-2.7,8.271-1.2,12.29"/>
		<path fill="#7E8C8D" stroke="#000000" stroke-linecap="round" stroke-miterlimit="10" d="M98.453,602.988
			c0,0-31.888-17.242-35.168-3.071c-0.179,0.776-0.279,2.329-0.294,3.092"/>
		<path fill="#7E8C8D" stroke="#000000" stroke-linecap="round" stroke-miterlimit="10" d="M255.617,602.827
			c0,0-8.354-35.075,6.174-35.817c4.343-0.223,9.055,1.972,10.822,5.532"/>
		<path fill="#7E8C8D" stroke="#000000" stroke-linecap="round" stroke-miterlimit="10" d="M256.352,602.827
			c0,0,9.932-36.33,22.67-29.311c3.809,2.1,5.988,5.102,6.404,8.928"/>
		<path fill="#7E8C8D" stroke="#000000" stroke-linecap="round" stroke-miterlimit="10" d="M257.225,602.827
			c0,0,25.793-29.083,34.285-17.277c2.541,3.528,2.701,8.271,1.201,12.29"/>
		<path fill="#7E8C8D" stroke="#000000" stroke-linecap="round" stroke-miterlimit="10" d="M258.562,602.805
			c0,0,31.971-16.304,35.25-2.133c0.095,0.402,0.218,1.604,0.267,2.004"/>
		<path fill="none" stroke="#000000" stroke-linecap="round" stroke-miterlimit="10" d="M109.441,578.43
			c0,0,23.276,16.077,69.581,16.077c46.306,0,65.918-16.077,65.918-16.077"/>
		<path fill="#E74C3D" stroke="#000000" stroke-linecap="round" stroke-miterlimit="10" d="M134.752,581.222
			c0,1.667-1.172,3.017-2.621,3.017c-1.445,0-2.619-1.35-2.619-3.017c0-1.669,1.174-3.021,2.619-3.021
			C133.58,578.203,134.752,579.553,134.752,581.222z"/>
		<path fill="#E74C3D" stroke="#000000" stroke-linecap="round" stroke-miterlimit="10" d="M227.36,580.316
			c0,1.668-1.173,3.015-2.621,3.015c-1.445,0-2.619-1.347-2.619-3.015c0-1.67,1.174-3.021,2.619-3.021
			C226.188,577.294,227.36,578.646,227.36,580.316z"/>
		<path fill="#E74C3D" stroke="#000000" stroke-linecap="round" stroke-miterlimit="10" d="M157.249,585.792
			c0,1.667-1.172,3.015-2.619,3.015c-1.446,0-2.619-1.348-2.619-3.015c0-1.67,1.173-3.021,2.619-3.021
			C156.077,582.773,157.249,584.123,157.249,585.792z"/>
		<path fill="#E74C3D" stroke="#000000" stroke-linecap="round" stroke-miterlimit="10" d="M204.864,585.792
			c0,1.667-1.173,3.015-2.623,3.015c-1.443,0-2.619-1.348-2.619-3.015c0-1.67,1.176-3.021,2.619-3.021
			C203.691,582.773,204.864,584.123,204.864,585.792z"/>
		<path fill="#E74C3D" stroke="#000000" stroke-linecap="round" stroke-miterlimit="10" d="M180.973,587.261
			c0,1.667-1.172,3.017-2.621,3.017c-1.443,0-2.619-1.35-2.619-3.017c0-1.67,1.176-3.021,2.619-3.021
			C179.801,584.242,180.973,585.592,180.973,587.261z"/>
		
			<line fill="none" stroke="#000000" stroke-linecap="round" stroke-miterlimit="10" x1="132.133" y1="593.516" x2="132.133" y2="602.677"/>
		
			<line fill="none" stroke="#000000" stroke-linecap="round" stroke-miterlimit="10" x1="138.184" y1="595.119" x2="138.184" y2="602.677"/>
		
			<line fill="none" stroke="#000000" stroke-linecap="round" stroke-miterlimit="10" x1="227.36" y1="593.516" x2="227.36" y2="602.677"/>
		
			<line fill="none" stroke="#000000" stroke-linecap="round" stroke-miterlimit="10" x1="221.311" y1="595.119" x2="221.311" y2="602.677"/>
		
			<line fill="none" stroke="#000000" stroke-linecap="round" stroke-miterlimit="10" x1="175.732" y1="598.53" x2="175.732" y2="602.677"/>
		
			<line fill="none" stroke="#000000" stroke-linecap="round" stroke-miterlimit="10" x1="180.875" y1="598.53" x2="180.875" y2="602.677"/>
		<path fill="#FFFFFF" d="M178.824,468.365c-4.883-0.052-8.778-0.501-12.215-1.095l-30.313,41.115
			c-1.687,2.289-2.231,4.752-1.221,5.5l4.812,3.544c1.016,0.75,3.205-0.501,4.895-2.793l33.422-45.331
			C178.432,468.994,178.637,468.678,178.824,468.365z"/>
		<path fill="#FFFFFF" d="M214.744,464.39c-1.775,0.028-3.401,0.107-4.936,0.219l-53.291,72.285
			c-1.733,2.353-3.003,4.622-3.631,6.318c1.354,0.156,2.729,0.258,4.126,0.258h7.734c0.085-0.111,0.17-0.213,0.254-0.328
			l57.771-78.356C220.18,464.388,217.456,464.347,214.744,464.39z"/>
		<path fill="#FFFFFF" d="M238.966,492.445c0-2.938-0.153-5.555-0.432-7.911l-43.451,58.938h8.137c1.798,0,3.55-0.177,5.277-0.436
			l30.468-41.324L238.966,492.445L238.966,492.445z"/>
		<path fill="none" stroke="#000000" stroke-linecap="round" stroke-miterlimit="10" d="M84.484,516.39
			c0,0,4.307,7.524,10.875,8.576"/>
		<path fill="none" stroke="#000000" stroke-linecap="round" stroke-miterlimit="10" d="M83.237,529.872c0,0,3.052,7.292,14.7,6.568
			"/>
		<path fill="none" stroke="#000000" stroke-linecap="round" stroke-miterlimit="10" d="M83.412,543.47
			c0,0,6.698,6.954,15.862,3.191"/>
		<path fill="none" stroke="#000000" stroke-linecap="round" stroke-miterlimit="10" d="M85.769,555.681c0,0,7.046,4.823,14.737,0"
			/>
		
			<line fill="none" stroke="#000000" stroke-linecap="round" stroke-miterlimit="10" x1="271.189" y1="446.693" x2="271.189" y2="411.464"/>
		
			<line fill="none" stroke="#000000" stroke-linecap="round" stroke-miterlimit="10" x1="278.736" y1="447.398" x2="278.736" y2="426.658"/>
		<circle fill="#E74C3D" stroke="#000000" stroke-linecap="round" stroke-miterlimit="10" cx="271.189" cy="409.008" r="3.326"/>
		<circle fill="#E74C3D" stroke="#000000" stroke-linecap="round" stroke-miterlimit="10" cx="278.736" cy="424.782" r="3.326"/>
		
			<rect x="61.453" y="369.132" fill="none" stroke="#000000" stroke-linecap="round" stroke-miterlimit="10" width="233.863" height="233.863"/>
	</g>
	<g id="Planète" display="inline">
		
			<ellipse fill="#FFFFFF" stroke="#000000" stroke-linecap="round" stroke-miterlimit="10" cx="94.047" cy="93.017" rx="19.545" ry="7.135"/>
		<path fill="#FFFFFF" stroke="#000000" stroke-linecap="round" stroke-miterlimit="10" d="M161.464,84.49
			c0.74,3.868-7.255,8.651-17.854,10.68c-10.604,2.032-19.798,0.542-20.539-3.328c-0.74-3.871,7.253-8.651,17.854-10.683
			C151.527,79.128,160.723,80.619,161.464,84.49z"/>
		<path fill="#FFFFFF" stroke="#000000" stroke-linecap="round" stroke-miterlimit="10" d="M25.205,84.49
			c-0.739,3.868,7.255,8.651,17.854,10.68c10.602,2.032,19.797,0.542,20.538-3.328c0.741-3.871-7.253-8.651-17.854-10.683
			C35.142,79.128,25.947,80.619,25.205,84.49z"/>
		<path fill="#FFFFFF" stroke="#000000" stroke-linecap="round" stroke-miterlimit="10" d="M182.418,68.976h-13.094
			c-10.396-7.391-40.619-12.736-76.298-12.736c-35.682,0-65.899,5.348-76.297,12.736H3.854L16.997,80.46l0,0l0,0l0,0
			c10.635,7.295,40.644,12.558,76.03,12.558c35.388,0,65.396-5.263,76.031-12.558l0,0L182.418,68.976z"/>
		
			<ellipse fill="#FFFFFF" stroke="#000000" stroke-linecap="round" stroke-miterlimit="10" cx="93.138" cy="63.443" rx="92.365" ry="21.186"/>
		
			<ellipse fill="#FFFFFF" stroke="#000000" stroke-linecap="round" stroke-miterlimit="10" cx="93.137" cy="58.933" rx="80.174" ry="18.391"/>
		<path fill="#FFFFFF" stroke="#000000" stroke-linecap="round" stroke-miterlimit="10" d="M157.725,53.965L157.725,53.965
			c-10.878-15.818-40.305-33.32-64.585-33.32c-25.009,0-55.158,17.844-65.185,34.36l0,0c-0.194,0.47-0.303,0.945-0.303,1.429
			c0,8.295,29.315,15.022,65.482,15.022c36.166,0,65.485-6.729,65.485-15.022C158.621,55.594,158.305,54.769,157.725,53.965z"/>
		<path fill="#FFFFFF" stroke="#000000" stroke-linecap="round" stroke-miterlimit="10" d="M78.906,28.265
			c-1.314-1.615-11.074,4.172-21.803,12.922c-10.727,8.75-18.356,17.147-17.041,18.763c1.314,1.612,11.075-4.175,21.801-12.925
			C72.595,38.275,80.223,29.875,78.906,28.265z"/>
		
			<ellipse transform="matrix(-0.7451 0.667 -0.667 -0.7451 174.273 11.2539)" fill="#FFFFFF" stroke="#000000" stroke-linecap="round" stroke-miterlimit="10" cx="84.986" cy="38.931" rx="13.735" ry="3.314"/>
		<path fill="#FFFFFF" stroke="#000000" stroke-linecap="round" stroke-miterlimit="10" d="M144.896,48.067
			c1.214-1.578,2.278-3.143,3.175-4.608c-1.479-1.287-3.048-2.558-4.689-3.8c-1.221,1.271-2.492,2.743-3.744,4.375
			c-4.618,6.018-7.184,11.798-5.729,12.91C135.355,58.06,140.28,54.085,144.896,48.067z"/>
		<path fill="#FFFFFF" stroke="#000000" stroke-linecap="round" stroke-miterlimit="10" d="M113.839,70.685
			c0.158-0.166,0.317-0.324,0.476-0.492c9.573-10,16.114-19.272,14.61-20.709c-1.501-1.44-10.479,5.499-20.052,15.5
			c-2.066,2.158-3.98,4.276-5.714,6.298C106.829,71.15,110.395,70.948,113.839,70.685z"/>
		
			<line fill="none" stroke="#000000" stroke-linecap="round" stroke-miterlimit="10" x1="67.912" y1="100.152" x2="55.892" y2="143.406"/>
		
			<line fill="none" stroke="#000000" stroke-linecap="round" stroke-miterlimit="10" x1="120.041" y1="100.152" x2="131.553" y2="143.406"/>
		
			<line fill="none" stroke="#000000" stroke-linecap="round" stroke-miterlimit="10" x1="61.902" y1="100.152" x2="39.913" y2="143.406"/>
		
			<line fill="none" stroke="#000000" stroke-linecap="round" stroke-miterlimit="10" x1="125.797" y1="100.152" x2="146.96" y2="143.406"/>
	</g>
	<g display="inline">
		
			<rect x="395.832" y="144.817" fill="#FFFFFF" stroke="#000000" stroke-linecap="round" stroke-miterlimit="10" width="120.201" height="4"/>
		<path fill="#FFFFFF" stroke="#000000" stroke-linecap="round" stroke-miterlimit="10" d="M398.7,120.097
			c-3.675,8.154-5.737,17.193-5.737,26.72c0,9.525,2.062,18.564,5.737,26.722V120.097z"/>
		<path fill="#FFFFFF" stroke="#000000" stroke-linecap="round" stroke-miterlimit="10" d="M408.105,188.558
			c5.513,6.595,12.309,12.071,20,16.069V89.008c-7.691,3.998-14.487,9.476-20,16.07V188.558z"/>
		<path fill="#FFFFFF" stroke="#000000" stroke-linecap="round" stroke-miterlimit="10" d="M437.438,208.583
			c4.475,1.495,9.154,2.536,14,3.026V82.025c-4.846,0.492-9.525,1.532-14,3.026V208.583z"/>
		<path fill="#FFFFFF" stroke="#000000" stroke-linecap="round" stroke-miterlimit="10" d="M459.629,211.907
			c5.945-0.139,11.693-1.064,17.143-2.694V84.422c-5.447-1.629-11.195-2.556-17.143-2.693V211.907z"/>
		<path fill="#FFFFFF" stroke="#000000" stroke-linecap="round" stroke-miterlimit="10" d="M489.217,204.039
			c3.629-1.979,7.049-4.291,10.219-6.897V96.494c-3.17-2.606-6.59-4.92-10.219-6.898V204.039z"/>
		<path fill="#FFFFFF" stroke="#000000" stroke-linecap="round" stroke-miterlimit="10" d="M516.033,176.547
			c4.584-8.916,7.188-19.016,7.188-29.729c0-10.713-2.604-20.813-7.188-29.729V176.547z"/>
	</g>
	<g display="inline">
		<circle fill="#FFFFFF" stroke="#000000" stroke-miterlimit="10" cx="454.498" cy="384.932" r="74.262"/>
		<path fill="#FFFFFF" stroke="#000000" stroke-miterlimit="10" d="M414.165,368.357c-4.845,11.979-6.794,25.555-15.665,35.532
			c-6.312-18.938,9.904-58.136,20-74C423.809,340.505,417.288,357.89,414.165,368.357
			C413.388,370.28,415.176,364.969,414.165,368.357z"/>
		<path fill="#FFFFFF" stroke="#000000" stroke-miterlimit="10" d="M439.888,393.135c8.333-15.213,12.771-32.442,23.612-46.246
			c-0.987,31.518-15.4,69.757-29,98C434.5,427.305,431.656,409.021,439.888,393.135
			C442.105,388.857,439.888,393.135,439.888,393.135z"/>
		<path fill="#FFFFFF" stroke="#000000" stroke-miterlimit="10" d="M453.727,310.605c-24.434,3.182-26.227,48.887-26.227,67.284
			C429.782,371.042,456.396,310.612,453.727,310.605C441.113,312.248,454.227,310.607,453.727,310.605z"/>
		<path fill="#FFFFFF" stroke="#000000" stroke-miterlimit="10" d="M491.139,372.758c-16.599,26.438-17.324,58.396-30.639,86.132
			c16.809-4.88,24.682-19.9,27.837-36.023C489.323,417.823,496.216,374.178,491.139,372.758
			C489.559,375.276,491.957,372.988,491.139,372.758z"/>
		<path fill="#FFFFFF" stroke="#000000" stroke-miterlimit="10" d="M522.828,355.814c-1.111-2.271-2.223-4.537-3.334-6.808
			c-15.311,20.439-11.186,49.354-12.994,72.882C521.575,406.816,520.691,375.628,522.828,355.814
			C521.832,353.48,522.636,357.596,522.828,355.814z"/>
		<path fill="#FFFFFF" stroke="#000000" stroke-miterlimit="10" d="M560.174,352.115c-3.439-11.078-23.187-16.319-49.15-15.34
			c2.22,2.91,3.834,4.97,7.584,10.66c12.264,1.454,20.143,4.252,22.146,10.711c4.936,15.891-29.684,40.766-77.318,55.56
			c-47.64,14.794-90.26,13.907-95.191-1.984c-2.026-6.523,2.62-14.564,12.096-22.801c-0.064-1.263-0.102-2.586-0.102-3.987
			c0-2.514,0.128-4.998,0.372-7.446c-22.595,14.093-35.28,29.018-31.787,40.268c6.046,19.467,58.26,20.558,116.625,2.433
			C523.809,402.057,566.22,371.582,560.174,352.115z"/>
	</g>
</g>
<g id="Calque_3">
	<g id="LignesDerriereAvatar" display="none">
		<circle display="inline" fill="#E6E6E6" cx="-80.232" cy="36.652" r="3.601"/>
		<circle display="inline" fill="#E6E6E6" cx="-55.922" cy="198.718" r="3.601"/>
		<circle display="inline" fill="#E6E6E6" cx="322.232" cy="9.641" r="3.602"/>
		<circle display="inline" fill="#E6E6E6" cx="303.324" cy="228.429" r="3.602"/>
		
			<line display="inline" fill="none" stroke="#E6E6E6" stroke-width="0.5" stroke-miterlimit="10" x1="-80.232" y1="36.652" x2="303.324" y2="228.428"/>
		
			<line display="inline" fill="none" stroke="#E6E6E6" stroke-width="0.5" stroke-miterlimit="10" x1="-80.232" y1="36.652" x2="11.604" y2="142.118"/>
		
			<line display="inline" fill="none" stroke="#E6E6E6" stroke-width="0.5" stroke-miterlimit="10" x1="-55.922" y1="198.718" x2="54.147" y2="46.943"/>
		
			<line display="inline" fill="none" stroke="#E6E6E6" stroke-width="0.5" stroke-miterlimit="10" x1="-55.922" y1="198.718" x2="322.23" y2="9.641"/>
	</g>
	<g id="Avatar_161_">
		
			<circle fill="#E6E6E6" stroke="#EF4646" stroke-width="3" stroke-linecap="round" stroke-miterlimit="10" cx="118.5" cy="118.447" r="111.428"/>
		<path fill="#E6E6E6" stroke="#EF4646" stroke-width="3" stroke-linecap="round" stroke-miterlimit="10" d="M44.973,185.234
			c-9.027-26.465-0.455-54.563-0.455-54.563l9.487,25.64c0,0-1.674,19.294,4.567,27.841l-5.237,4.24L44.973,185.234z"/>
		<path fill="#E6E6E6" stroke="#EF4646" stroke-width="3" stroke-linecap="round" stroke-miterlimit="10" d="M176.282,213.74
			c4.489-2.729,8.77-5.77,12.812-9.084l-6.432-18.616c-4.129-1.574-8.01-1.607-8.01-1.607L62.61,183.817
			c0,0-3.946-0.151-8.076,1.419l-1.008,23.74c2.222,1.598,4.502,3.114,6.843,4.549"/>
		<path fill="#E6E6E6" stroke="#EF4646" stroke-width="3" stroke-linecap="round" stroke-miterlimit="10" d="M194.158,133
			c-4.84,0-8.771-3.229-8.771-7.214V93.552c0-3.979,3.931-7.21,8.771-7.21h2.715c4.842,0,8.77,3.23,8.77,7.21v32.233
			c0,3.982-3.927,7.214-8.77,7.214L194.158,133L194.158,133z"/>
		<path fill="#E6E6E6" stroke="#EF4646" stroke-width="3" stroke-linecap="round" stroke-miterlimit="10" d="M83.567,185.789
			c-24.129-13.492-40.572-40.318-40.572-71.213c0-44.447,34.037-80.479,76.022-80.479s76.021,36.031,76.021,80.479
			c0,30.157-15.673,56.445-38.866,70.227"/>
		<path fill="#E6E6E6" stroke="#EF4646" stroke-width="3" stroke-linecap="round" stroke-miterlimit="10" d="M172.759,136.409
			c0,18.635-14.374,33.741-32.102,33.741h-41.49c-17.727,0-32.099-15.106-32.099-33.741v-14.18
			c0-23.383,13.414-26.524,22.064-26.524c11.298,0,16.253,3.928,30.41,3.928c12.844,0,17.573-3.512,31.463-3.746
			c10.743-0.182,21.753,1.126,21.753,26.345L172.759,136.409L172.759,136.409z"/>
		<path fill="#E6E6E6" stroke="#EF4646" stroke-width="3" stroke-linecap="round" stroke-miterlimit="10" d="M167.889,135.949
			c0,16.175-13.048,29.293-29.141,29.293h-37.669c-16.094,0-29.141-13.118-29.141-29.293v-12.308
			c0-20.302,12.178-23.027,20.031-23.027c10.256,0,14.758,3.409,27.61,3.409c11.662,0,15.953-3.047,28.563-3.252
			c9.75-0.157,19.745,0.979,19.745,22.87L167.889,135.949L167.889,135.949z"/>
		<path fill="#E6E6E6" stroke="#EF4646" stroke-width="3" stroke-miterlimit="10" d="M119.913,40.386c0,0,2.774,24.644,0,53.744"/>
		<path fill="#E6E6E6" stroke="#EF4646" stroke-width="3" stroke-linecap="round" stroke-miterlimit="10" d="M114.363,50.451
			c0,1.358-0.955,2.458-2.137,2.458c-1.178,0-2.137-1.1-2.137-2.458c0-1.36,0.958-2.461,2.137-2.461
			C113.409,47.99,114.363,49.09,114.363,50.451z"/>
		<path fill="#E6E6E6" stroke="#EF4646" stroke-width="3" stroke-linecap="round" stroke-miterlimit="10" d="M114.363,66.079
			c0,1.361-0.955,2.46-2.137,2.46c-1.178,0-2.137-1.099-2.137-2.46c0-1.359,0.958-2.461,2.137-2.461
			C113.409,63.618,114.363,64.719,114.363,66.079z"/>
		
			<ellipse fill="#E6E6E6" stroke="#EF4646" stroke-width="3" stroke-linecap="round" stroke-miterlimit="10" cx="112.227" cy="81.708" rx="2.137" ry="2.459"/>
		<path fill="#E6E6E6" stroke="#EF4646" stroke-width="3" stroke-linecap="round" stroke-miterlimit="10" d="M130.592,50.451
			c0,1.358-0.954,2.458-2.137,2.458c-1.177,0-2.135-1.1-2.135-2.458c0-1.36,0.958-2.461,2.135-2.461
			C129.638,47.99,130.592,49.09,130.592,50.451z"/>
		<path fill="#E6E6E6" stroke="#EF4646" stroke-width="3" stroke-linecap="round" stroke-miterlimit="10" d="M130.592,66.079
			c0,1.361-0.954,2.46-2.137,2.46c-1.177,0-2.135-1.099-2.135-2.46c0-1.359,0.958-2.461,2.135-2.461
			C129.638,63.618,130.592,64.719,130.592,66.079z"/>
		<path fill="#E6E6E6" stroke="#EF4646" stroke-width="3" stroke-linecap="round" stroke-miterlimit="10" d="M130.592,81.708
			c0,1.359-0.954,2.459-2.137,2.459c-1.177,0-2.135-1.1-2.135-2.459s0.958-2.462,2.135-2.462
			C129.638,79.247,130.592,80.348,130.592,81.708z"/>
		<path fill="#E6E6E6" stroke="#EF4646" stroke-width="3" stroke-linecap="round" stroke-miterlimit="10" d="M119.02,158.036"/>
		<path fill="#E6E6E6" stroke="#EF4646" stroke-width="3" stroke-linecap="round" stroke-miterlimit="10" d="M62.612,183.815
			l1.399,0.651c11.296,5.015,31.705,8.363,55.008,8.363c22.304,0,41.959-3.068,53.506-7.729l1.817-0.682
			c1.597-5.337-3.405-7.495-5.534-8.161c-9.489,4.809-28.223,8.08-49.791,8.08c-21.938,0-40.938-3.388-50.267-8.33h-0.004
			C68.749,176.008,60.604,177.095,62.612,183.815z"/>
		<path fill="#E6E6E6" stroke="#EF4646" stroke-width="3" stroke-linecap="round" stroke-miterlimit="10" d="M62.293,193.744
			c0,0,18.975,13.104,56.725,13.104c37.75,0,53.741-13.104,53.741-13.104"/>
		<path fill="#E6E6E6" stroke="#EF4646" stroke-width="3" stroke-linecap="round" stroke-miterlimit="10" d="M82.929,196.019
			c0,1.356-0.956,2.458-2.138,2.458c-1.178,0-2.134-1.102-2.134-2.458c0-1.36,0.956-2.463,2.134-2.463
			C81.973,193.556,82.929,194.658,82.929,196.019z"/>
		<path fill="#E6E6E6" stroke="#EF4646" stroke-width="3" stroke-linecap="round" stroke-miterlimit="10" d="M158.427,195.28
			c0,1.357-0.957,2.455-2.137,2.455c-1.178,0-2.134-1.098-2.134-2.455c0-1.361,0.956-2.464,2.134-2.464
			C157.47,192.816,158.427,193.917,158.427,195.28z"/>
		<path fill="#E6E6E6" stroke="#EF4646" stroke-width="3" stroke-linecap="round" stroke-miterlimit="10" d="M101.268,199.743
			c0,1.358-0.954,2.458-2.135,2.458c-1.18,0-2.135-1.1-2.135-2.458c0-1.36,0.956-2.461,2.135-2.461
			C100.314,197.282,101.268,198.382,101.268,199.743z"/>
		<path fill="#E6E6E6" stroke="#EF4646" stroke-width="3" stroke-linecap="round" stroke-miterlimit="10" d="M140.086,199.743
			c0,1.358-0.956,2.458-2.137,2.458c-1.178,0-2.135-1.1-2.135-2.458c0-1.36,0.957-2.461,2.135-2.461
			C139.131,197.282,140.086,198.382,140.086,199.743z"/>
		<path fill="#E6E6E6" stroke="#EF4646" stroke-width="3" stroke-linecap="round" stroke-miterlimit="10" d="M120.61,200.942
			c0,1.357-0.957,2.458-2.139,2.458c-1.178,0-2.135-1.101-2.135-2.458c0-1.36,0.957-2.462,2.135-2.462
			C119.653,198.48,120.61,199.581,120.61,200.942z"/>
		
			<line fill="none" stroke="#EF4646" stroke-width="3" stroke-linecap="round" stroke-miterlimit="10" x1="80.792" y1="206.042" x2="80.792" y2="223.33"/>
		
			<line fill="none" stroke="#EF4646" stroke-width="3" stroke-linecap="round" stroke-miterlimit="10" x1="85.726" y1="207.345" x2="85.726" y2="224.582"/>
		
			<line fill="none" stroke="#EF4646" stroke-width="3" stroke-linecap="round" stroke-miterlimit="10" x1="158.427" y1="206.042" x2="158.427" y2="222.502"/>
		
			<line fill="none" stroke="#EF4646" stroke-width="3" stroke-linecap="round" stroke-miterlimit="10" x1="153.495" y1="207.345" x2="153.495" y2="224.262"/>
		
			<line fill="none" stroke="#EF4646" stroke-width="3" stroke-linecap="round" stroke-miterlimit="10" x1="116.338" y1="210.127" x2="116.338" y2="229.851"/>
		
			<line fill="none" stroke="#EF4646" stroke-width="3" stroke-linecap="round" stroke-miterlimit="10" x1="120.53" y1="210.127" x2="120.53" y2="229.851"/>
		<path fill="#E6E6E6" stroke="#EF4646" stroke-width="3" stroke-linecap="round" stroke-miterlimit="10" d="M118.858,104.01
			c-3.98-0.041-7.157-0.408-9.958-0.894l-24.715,33.521c-1.373,1.866-1.818,3.874-0.994,4.485l3.922,2.889
			c0.828,0.61,2.615-0.408,3.989-2.277l27.249-36.955C118.538,104.524,118.706,104.268,118.858,104.01z"/>
		<path fill="#E6E6E6" stroke="#EF4646" stroke-width="3" stroke-linecap="round" stroke-miterlimit="10" d="M148.143,100.772
			c-1.446,0.021-2.771,0.088-4.021,0.178l-43.447,58.931c-1.413,1.916-2.447,3.771-2.958,5.152c1.104,0.128,2.225,0.21,3.364,0.21
			h6.303c0.07-0.093,0.14-0.175,0.208-0.269l47.101-63.882C152.573,100.769,150.352,100.739,148.143,100.772z"/>
		<path fill="#E6E6E6" stroke="#EF4646" stroke-width="3" stroke-linecap="round" stroke-miterlimit="10" d="M167.889,123.642
			c0-2.395-0.125-4.525-0.352-6.45l-35.424,48.051h6.634c1.465,0,2.896-0.146,4.302-0.354l24.839-33.69L167.889,123.642
			L167.889,123.642z"/>
		<path fill="#E6E6E6" stroke="#EF4646" stroke-width="3" stroke-linecap="round" stroke-miterlimit="10" d="M41.948,143.165
			c0,0,3.511,6.135,8.866,6.992"/>
		<path fill="#E6E6E6" stroke="#EF4646" stroke-width="3" stroke-linecap="round" stroke-miterlimit="10" d="M40.93,154.156
			c0,0,2.488,5.943,11.984,5.354"/>
		<path fill="#E6E6E6" stroke="#EF4646" stroke-width="3" stroke-linecap="round" stroke-miterlimit="10" d="M41.073,165.242
			c0,0,5.461,5.669,12.933,2.603"/>
		<path fill="#E6E6E6" stroke="#EF4646" stroke-width="3" stroke-linecap="round" stroke-miterlimit="10" d="M42.996,175.198
			c0,0,5.744,3.933,12.013,0"/>
		
			<line fill="none" stroke="#EF4646" stroke-width="3" stroke-linecap="round" stroke-miterlimit="10" x1="194.158" y1="86.343" x2="194.158" y2="57.624"/>
		
			<line fill="none" stroke="#EF4646" stroke-width="3" stroke-linecap="round" stroke-miterlimit="10" x1="200.312" y1="86.917" x2="200.312" y2="70.009"/>
		<path fill="#E6E6E6" stroke="#EF4646" stroke-width="3" stroke-linecap="round" stroke-miterlimit="10" d="M196.871,55.619
			c0,1.499-1.214,2.714-2.712,2.714c-1.497,0-2.709-1.215-2.709-2.714c0-1.495,1.212-2.71,2.709-2.71
			C195.657,52.909,196.871,54.124,196.871,55.619z"/>
		<path fill="#E6E6E6" stroke="#EF4646" stroke-width="3" stroke-linecap="round" stroke-miterlimit="10" d="M203.023,68.479
			c0,1.498-1.219,2.713-2.711,2.713c-1.5,0-2.716-1.215-2.716-2.713c0-1.496,1.216-2.709,2.716-2.709
			C201.806,65.77,203.023,66.983,203.023,68.479z"/>
		
			<circle fill="none" stroke="#EF4646" stroke-width="3" stroke-linecap="round" stroke-miterlimit="10" cx="118.5" cy="118.447" r="111.428"/>
		<path fill="#E6E6E6" stroke="#EF4646" stroke-width="3" stroke-linecap="round" stroke-miterlimit="10" d="M183.55,208.917
			c7.082-5.102,13.544-11.01,19.243-17.594c-0.652-0.583-1.396-1.115-2.25-1.588C192.811,185.474,186.348,200.806,183.55,208.917z"
			/>
		<path fill="#E6E6E6" stroke="#EF4646" stroke-width="3" stroke-linecap="round" stroke-miterlimit="10" d="M186.496,184.429
			c-9.536,0.489-6.977,19.121-5.621,26.36c1.227-0.829,2.431-1.688,3.622-2.562l10.824-19.286
			C193.878,186.039,190.036,184.25,186.496,184.429z"/>
		<path fill="#E6E6E6" stroke="#EF4646" stroke-width="3" stroke-linecap="round" stroke-miterlimit="10" d="M36.723,189.119
			c-1.053,0.58-1.94,1.255-2.686,2.003c5.828,6.767,12.455,12.826,19.736,18.029C51.162,201.188,44.671,184.741,36.723,189.119z"/>
		<path fill="#E6E6E6" stroke="#EF4646" stroke-width="3" stroke-linecap="round" stroke-miterlimit="10" d="M50.771,183.815
			c-3.542-0.184-7.382,1.605-8.823,4.511L52.877,208.5c1.133,0.827,2.278,1.638,3.443,2.423
			C57.692,203.533,60.333,184.302,50.771,183.815z"/>
	</g>
	<g display="none">
		<g display="inline">
			<path fill="#FFFFFF" stroke="#000000" stroke-linecap="round" stroke-linejoin="round" stroke-miterlimit="10" d="
				M287.291-122.13c22.543,0,42.82,3.888,56.9,10.083"/>
			<path fill="#FFFFFF" stroke="#000000" stroke-linecap="round" stroke-linejoin="round" stroke-miterlimit="10" d="
				M230.39-112.047c14.079-6.195,34.357-10.083,56.901-10.083"/>
		</g>
		
			<path display="inline" fill="#FFFFFF" stroke="#000000" stroke-linecap="round" stroke-linejoin="round" stroke-miterlimit="10" d="
			M287.291-95.598c22.018,0,41.824-5.284,55.576-13.704c-13.752-15.083-33.559-24.551-55.576-24.551
			c-22.02,0-41.826,9.467-55.577,24.551C245.465-100.882,265.271-95.598,287.291-95.598z"/>
		
			<path display="inline" fill="#FFFFFF" stroke="#000000" stroke-linecap="round" stroke-linejoin="round" stroke-miterlimit="10" d="
			M344.191-111.736c-14.08,8.619-34.357,14.03-56.9,14.03s-42.822-5.411-56.9-14.03c-12.473,13.681-20.08,31.873-20.08,51.845
			c0,42.515,34.467,76.979,76.98,76.979s76.979-34.465,76.979-76.979C364.27-79.863,356.662-98.055,344.191-111.736z"/>
		
			<path display="inline" fill="#FFFFFF" stroke="#000000" stroke-linecap="round" stroke-linejoin="round" stroke-miterlimit="10" d="
			M185.076-36.532l54.445,37.007c14.654,3.518,30.806,5.464,47.77,5.464c16.965,0,33.115-1.947,47.773-5.465l54.363-36.954"/>
		<path display="inline" fill="none" stroke="#000000" stroke-miterlimit="10" d="M221.211-51.083
			c-1.511-26.446,5.66-36.563,5.66-36.563s12.667,7.999,33.4,9.941c-2.358,18.058,0,35.883,0,35.883"/>
		<path display="inline" fill="none" stroke="#000000" stroke-miterlimit="10" d="M266.439-41.313c-1.918-19.459,0-35.833,0-35.833
			s9.582,0.999,21.582,0.999s20.25-0.999,20.25-0.999s1.625,19.688,0,36.219"/>
		
			<path display="inline" fill="#FFFFFF" stroke="#000000" stroke-linecap="round" stroke-linejoin="round" stroke-miterlimit="10" d="
			M389.43-36.481c-23.156,15.863-60.285,26.146-102.139,26.146c-41.901,0-79.064-10.305-102.215-26.197l25.422-18.979
			c20.967,9.714,47.415,15.345,76.793,15.345c29.182,0,55.951-5.746,76.857-15.345L389.43-36.481z"/>
		<path display="inline" fill="none" stroke="#000000" stroke-miterlimit="10" d="M354.801-51.083
			c1.512-26.446-5.66-36.563-5.66-36.563s-12.666,7.999-33.398,9.941c2.357,18.058,0,35.883,0,35.883"/>
		<path display="inline" fill="none" stroke="#000000" stroke-miterlimit="10" d="M275.174-32.607c0,0,12.117,0.552,24,0.006
			l2.75,15.159c-14.633,1.46-29.25,0.025-29.25,0.025L275.174-32.607z"/>
		<path display="inline" fill="none" stroke="#000000" stroke-miterlimit="10" d="M315.74-33.948c0,0,9.84-1.305,21.904-3.66
			l6.289,12.228c-13.553,4.149-24.092,5.657-24.092,5.657L315.74-33.948z"/>
		<path display="inline" fill="none" stroke="#000000" stroke-miterlimit="10" d="M350.326-40.928c0,0,12.92-4.22,16.338-5.845
			l11,9.375c-7.688,3.218-19.875,7.625-19.875,7.625L350.326-40.928z"/>
		<path display="inline" fill="none" stroke="#000000" stroke-miterlimit="10" d="M258.84-33.948c0,0-9.839-1.305-21.902-3.66
			l-6.291,12.228c13.554,4.149,24.093,5.657,24.093,5.657L258.84-33.948z"/>
		<path display="inline" fill="none" stroke="#000000" stroke-miterlimit="10" d="M224.254-40.928c0,0-12.923-3.97-16.341-5.595
			l-11.54,8.915c7.54,3.835,20.419,7.835,20.419,7.835L224.254-40.928z"/>
		<ellipse display="inline" fill="none" stroke="#000000" stroke-miterlimit="10" cx="287.253" cy="-1.292" rx="7.083" ry="3.042"/>
		
			<ellipse transform="matrix(-0.9908 0.1356 -0.1356 -0.9908 634.887 -50.5282)" display="inline" fill="none" stroke="#000000" stroke-miterlimit="10" cx="319.164" cy="-3.645" rx="6.576" ry="3.042"/>
		
			<ellipse transform="matrix(0.9908 0.1354 -0.1354 0.9908 1.8582 -34.5668)" display="inline" fill="none" stroke="#000000" stroke-miterlimit="10" cx="254.988" cy="-3.626" rx="6.576" ry="3.042"/>
		
			<path display="inline" fill="#FFFFFF" stroke="#000000" stroke-linecap="round" stroke-linejoin="round" stroke-miterlimit="10" d="
			M227.417-11.272c-1.983-0.588-3.872-0.511-5.063,0.078l8.373,5.69c0.608-0.293,1.053-0.71,1.213-1.254
			C232.417-8.368,230.393-10.389,227.417-11.272z"/>
		
			<path display="inline" fill="#FFFFFF" stroke="#000000" stroke-linecap="round" stroke-linejoin="round" stroke-miterlimit="10" d="
			M346.162-11.272c-2.977,0.883-5,2.903-4.523,4.516c0.215,0.721,0.91,1.224,1.863,1.495l8.248-5.607
			C350.656-11.746,348.469-11.957,346.162-11.272z"/>
	</g>
	<g display="none">
		<circle display="inline" fill="#E6E6E6" stroke="#359792" stroke-miterlimit="10" cx="118.229" cy="118.447" r="111.417"/>
		<path display="inline" fill="#E6E6E6" stroke="#359792" stroke-miterlimit="10" d="M35.015,192.531
			c25.736,4.485,28.212-7.084,55.93-7.308c1.99-0.018,20.462,0.673,19.966-3.535c-0.577-4.898-38.124-8.07-43.259-8.44
			c-12.102-0.87-19.246-8.325,5.499-8.65c15.962-0.21,24.903-0.771,39.434-1.629c8.549-0.506,64.455-14.009,13.771-11.401
			c-17.652,0.907-35.057,0.52-52.759,0.271c-8.975-0.127-27.074-5.602-7.357-8.194c18.33-2.413,35.729-0.889,54.188-5.257
			c1.046-0.246,29.487-5.668,28.249-8.58c-1.366-3.219-141.863,1.562-141.863,1.562"/>
		<path display="inline" fill="#E6E6E6" stroke="#359792" stroke-miterlimit="10" d="M170.896,133.323
			c-6.934,1.407-14.055,4.156-21.185,5.521c-4.335,0.829-17.2,0.121-19.163,4.841c3.84,2.865,14.084,0.242,18.846,0.717
			c3.985,0.396,12.977,2.629,15.558,5.941c4.075,5.238-5.857,6.677-9.041,7.486c-6.088,1.546-12.21,3.505-17.918,6.195
			c-5.408,2.553-10.864,3.543-15.962,6.109c-1.296,0.652-6.329,1.172-6.938,2.192c-1.289,2.16,3.78,4.462,5.382,5.227
			c2.557,1.223,12.574,4.703,12.321,8.545c-0.268,4.062-11.944,7.688-15.001,8.716c-4.44,1.492-8.467,4.345-12.689,6.352
			c-4.85,2.303-9.975,4.188-14.602,6.834c-4.479,2.561-9.437,6.106-6.525,11.312c1.437,2.565,3.604,4.245,4.885,6.858"/>
		
			<line display="inline" fill="none" stroke="#359792" stroke-miterlimit="10" x1="148.676" y1="129.803" x2="187.186" y2="128.691"/>
		<circle display="inline" fill="#E6E6E6" stroke="#359792" stroke-miterlimit="10" cx="96.555" cy="32.089" r="9.858"/>
		<circle display="inline" fill="#E6E6E6" stroke="#359792" stroke-miterlimit="10" cx="149.286" cy="115.186" r="5.646"/>
		<circle display="inline" fill="#E6E6E6" stroke="#359792" stroke-miterlimit="10" cx="153.559" cy="66.609" r="29.609"/>
		<line display="inline" fill="none" stroke="#359792" stroke-miterlimit="10" x1="105.095" y1="37" x2="127.907" y2="51.828"/>
		<line display="inline" fill="none" stroke="#359792" stroke-miterlimit="10" x1="149.286" y1="109.54" x2="151.023" y2="96.217"/>
		<path display="inline" fill="#E6E6E6" stroke="#359792" stroke-miterlimit="10" d="M29.834,163.293
			c2.988-6.913,4.101-24.453,4.478-30.648c1.037-17.049,1.824-34.025,3.413-51.045c4.001,14.813,3.837,32.014,3.202,47.16
			c-0.323,7.693,3.477,30.624,6.499,36.488"/>
		<path display="inline" fill="#E6E6E6" stroke="#359792" stroke-miterlimit="10" d="M73.148,135.602
			c0.528-7.333,5.553-29.062,5.553-39.386c0-14.617,2.812-25.241,3.909-38.449c2.908,17.831,3.422,26.877,3.056,37.521
			c-0.432,12.515,1.03,28.138,2.156,40.314"/>
		<path display="inline" fill="#E6E6E6" stroke="#359792" stroke-miterlimit="10" d="M123.658,186.423
			c7.552-21.175,6.039-54.389,7.527-77.198c4.821,14.199,3.877,27.654,4.852,36.587c0.79,7.234,2.966,26.932,2.281,33.119"/>
		<path display="inline" fill="#E6E6E6" stroke="#359792" stroke-miterlimit="10" d="M174.479,130.064
			c5.683-2.171,3.26-24.922,5.864-41.354c0.864,9.823,4.363,19.901,4.02,29.845"/>
		<path display="inline" fill="#E6E6E6" stroke="#359792" stroke-miterlimit="10" d="M118.229,229.863
			c61.533,0,111.416-49.883,111.416-111.416c0-19.642-5.101-38.084-14.021-54.107c-1.642,1.558-3.159,3.389-4.678,4.357
			c-3.363,2.146-6.208,2.991-8.218,6.935c-1.85,3.636-3.343,7.498-4.371,11.32c-1.969,7.318-1.568,15.733-4.859,18.68
			c-3.742,3.352-5.698,5.292-6.312,6.477c-0.944,1.82-1.604,3.684-2.822,6.446c-1.072,2.436-3.028,7.831-3.028,7.831
			c-4.657,4.883-12.596,1.713-15.433,8.883c-3.652,9.23-7.49,18.438-12.577,26.989c-1.827,3.073-3.759,7.229-6.73,9.366
			c-3.298,2.371-7.864,1.629-11.098,4.052c-2.957,2.217-3.789,6.207-6.492,8.476c-2.6,2.185-4.5,0.888-7.517,2.181
			c-3.701,1.586-3.485,8.644-3.934,12.669c-0.604,5.441-0.846,10.489-2.669,15.661c-0.866,2.457-4.593,9.188-7.191,14.691
			C111.162,229.677,114.674,229.863,118.229,229.863z"/>
		<path display="inline" fill="#E6E6E6" stroke="#359792" stroke-miterlimit="10" d="M181.333,126.384
			c-2.138,10.809-6.82,17.735-8.591,28.331"/>
		<path display="inline" fill="#E6E6E6" stroke="#359792" stroke-miterlimit="10" d="M230.188,118.662
			c-6.963,1.479-11.604,17.48-12.705,23.021c-1.381,6.961-2.16,12.07-7.047,17.713c-3.114,3.597-5.522,8.788-9.664,11.359
			c-4.477,2.78-10.525,1.554-15.469,3.359c-4.466,1.633-5.593,4.562-7.248,8.723c-1.324,3.326-3.917,6.669-7.095,8.886
			c-1.413,0.984-3.711,1.233-4.887,2.257c-1.931,1.679-1.132,3.851-2.021,6.125"/>
		<circle display="inline" fill="none" stroke="#359792" stroke-miterlimit="10" cx="118.229" cy="118.447" r="111.417"/>
	</g>
</g>
<g id="Calque_1_1_" display="none">
	
		<image display="inline" overflow="visible" opacity="0.3" enable-background="new    " width="1204" height="1204" xlink:href="6C3A5A6588DFB4FA.jpeg"  transform="matrix(0.24 0 0 0.24 139.5 276.8899)">
	</image>
</g>
<g id="Icônes" display="none">
	<g id="Rocket" display="inline">
		<path fill="#172334" stroke="#D0C5CA" stroke-miterlimit="10" d="M104.592,17.129c-6.478,6.47-50.13,50.118-50.13,50.118
			s-23.387-2.507-30.062,0c-6.683,2.502-30.07,40.089-30.07,40.089s31.869-8.871,50.44-4.705l-31.275,40.214l46.908-26.759
			c9.218,21.09-5.942,51.393-5.942,51.393s38.016-24.223,40.104-30.064c2.088-5.855,0-30.076,0-30.076s45.527-44.689,50.109-50.114
			c4.604-5.427,14.621-47.199,10.026-50.118C150.12,4.183,111.058,10.656,104.592,17.129z"/>
		<path fill="#172334" stroke="#D0C5CA" stroke-miterlimit="10" d="M131.001,32.752c-5.745-6.618-16.613-6.595-24.274,0.064
			c-7.666,6.65-9.219,17.41-3.465,24.03c5.737,6.614,16.617,6.592,24.274-0.066C135.202,50.125,136.755,39.366,131.001,32.752z"/>
	</g>
	<g id="Rocket2" display="inline">
		<path fill="#CCDED6" stroke="#111B29" stroke-miterlimit="10" d="M120.105,59.311c-7.584,0.158-58.722,1.288-58.722,1.288
			S48.621,44.76,43.157,42.288c-5.468-2.482-40.896,7.141-40.896,7.141s24.336,13.78,33.247,27.732l-41.698,6.48L37.38,95.229
			c-6.33,19.003-32.647,29.003-32.647,29.003s36.746,7.777,41.312,5.341c4.573-2.438,16.997-19.09,16.997-19.09
			s52.867-0.646,58.709-1.296c5.854-0.648,35.539-21.073,34.404-25.722C155.029,78.819,127.688,59.145,120.105,59.311z"/>
		<path fill="#FFFFFF" stroke="#111B29" stroke-miterlimit="10" d="M127.37,85.24c0.257-7.706-6.341-14.312-14.754-14.747
			c-8.406-0.445-15.427,5.437-15.68,13.146c-0.265,7.692,6.349,14.304,14.755,14.741C120.096,98.824,127.123,92.938,127.37,85.24z"
			/>
	</g>
	<g id="Loupe" display="inline">
		<path fill="none" stroke="#E6E6E6" stroke-miterlimit="10" d="M63.993,17.322c7.755,0,15.154,1.515,22.232,4.543
			c7.072,3.033,13.167,7.103,18.258,12.2c5.11,5.101,9.18,11.189,12.209,18.267c3.029,7.07,4.539,14.479,4.539,22.232
			c0,6.652-1.088,13.029-3.251,19.125c-2.176,6.102-5.271,11.628-9.265,16.599l36.121,36.068c1.229,1.229,1.838,2.732,1.838,4.523
			c0,1.829-0.608,3.345-1.811,4.548c-1.209,1.211-2.72,1.815-4.548,1.815c-1.791,0-3.301-0.61-4.521-1.838l-36.065-36.121
			c-4.979,4-10.512,7.085-16.607,9.264c-6.094,2.167-12.461,3.25-19.129,3.25c-7.745,0-15.163-1.515-22.233-4.544
			c-7.071-3.027-13.156-7.098-18.267-12.198c-5.101-5.105-9.153-11.19-12.19-18.258C8.264,89.723,6.754,82.31,6.754,74.565
			c0-7.754,1.51-15.162,4.549-22.232c3.037-7.075,7.089-13.166,12.19-18.267c5.11-5.099,11.196-9.167,18.267-12.2
			C48.83,18.835,56.248,17.322,63.993,17.322z"/>
		<line fill="none" stroke="#E6E6E6" stroke-miterlimit="10" x1="99.729" y1="119.283" x2="108.713" y2="110.286"/>
	</g>
	<g id="Bonhomme" display="inline">
		<path fill="none" stroke="#E6E6E6" stroke-miterlimit="10" d="M75.529,16.158c7.294,0,14.017,1.798,20.167,5.391
			c6.16,3.598,11.042,8.471,14.622,14.63c3.604,6.155,5.401,12.883,5.401,20.173v6.7c0,5.58-1.076,10.865-3.233,15.854
			c-2.168,4.986-5.187,9.327-9.061,13.024c10.176,1.608,19.235,3.97,27.159,7.096c7.916,3.126,14.117,6.808,18.596,11.06
			c4.479,4.256,6.725,8.739,6.725,13.458v13.186c0,5.551-1.958,10.286-5.882,14.21c-3.925,3.925-8.664,5.887-14.209,5.887H15.246
			c-5.546,0-10.277-1.962-14.201-5.887c-3.924-3.924-5.891-8.659-5.891-14.21v-13.242c0-4.711,2.252-9.189,6.723-13.449
			c4.487-4.252,10.68-7.941,18.571-11.06c7.907-3.122,16.949-5.471,27.142-7.046c-3.84-3.73-6.84-8.08-9.008-13.051
			c-2.16-4.971-3.244-10.248-3.235-15.828v-6.7c0-7.29,1.798-14.018,5.396-20.172c3.588-6.16,8.462-11.033,14.63-14.631
			c6.151-3.592,12.882-5.391,20.167-5.391L75.529,16.158L75.529,16.158z"/>
		<path fill="none" stroke="#E6E6E6" stroke-miterlimit="10" d="M47.589,91.928c0,0,27.915,23.234,55.838,0"/>
	</g>
	<path id="Message" display="inline" fill="none" stroke="#E6E6E6" stroke-miterlimit="10" d="M24.054,16.935H125.88
		c5.271,0,9.773,1.855,13.501,5.585c3.721,3.731,5.588,8.23,5.588,13.508v69.995c0,5.271-1.869,9.776-5.588,13.497
		c-3.729,3.726-8.232,5.598-13.501,5.598H74.976l-44.559,31.815v-31.815h-6.363c-5.27,0-9.771-1.872-13.501-5.598
		c-3.729-3.721-5.589-8.228-5.589-13.497V36.028c0-5.276,1.86-9.775,5.589-13.508C14.282,18.791,18.785,16.935,24.054,16.935z"/>
	<g id="Notif" display="inline">
		<path fill="none" stroke="#E6E6E6" stroke-miterlimit="10" d="M74.963,18.214c1.407,0,4.253,0.878,9.104,2.646
			c4.865,1.771,9.167,4.198,12.919,7.3c3.769,3.104,7.156,6.793,10.161,11.062c3.005,4.277,5.51,8.901,7.505,13.865
			c1.996,4.961,3.554,10.231,4.675,15.812c3.331,16.735,6.877,29.962,10.622,39.686c3.752,9.721,8.658,17.619,14.724,23.688h-51.79
			c0.731,2.079,1.097,4.188,1.097,6.336c0,5.252-1.86,9.73-5.573,13.445c-3.713,3.712-8.189,5.568-13.444,5.568
			c-5.248,0-9.724-1.856-13.437-5.568c-3.713-3.715-5.573-8.193-5.573-13.445c0-2.146,0.366-4.257,1.089-6.336H5.261
			c6.066-6.07,10.98-13.97,14.726-23.688c3.745-9.724,7.283-22.948,10.622-39.686c1.122-5.572,2.68-10.844,4.667-15.812
			c2.004-4.973,4.508-9.588,7.505-13.865c3.013-4.266,6.398-7.958,10.161-11.062c3.76-3.104,8.062-5.537,12.919-7.3
			c4.857-1.761,8.015-2.646,9.111-2.646H74.963z"/>
		<line fill="none" stroke="#E6E6E6" stroke-miterlimit="10" x1="57.042" y1="132.277" x2="92.884" y2="132.277"/>
	</g>
	<path id="EtoilePleine" display="inline" fill="#D58CBC" stroke="#D58CBC" stroke-miterlimit="10" d="M57.374,70.423l17.63-54.266
		l17.63,54.266H149.7l-46.163,32.045l17.63,53.299l-46.164-33.778l-46.17,33.521l17.63-53.042L0.3,70.423H57.374z"/>
	<g id="Points" display="inline">
		<circle fill="#999999" cx="23.224" cy="85.962" r="12.99"/>
		<circle fill="#999999" cx="76.784" cy="85.962" r="12.99"/>
		<circle fill="#999999" cx="126.775" cy="85.962" r="12.99"/>
	</g>
	<path id="Validation" display="inline" fill="none" stroke="#E6E6E6" stroke-linecap="round" stroke-miterlimit="10" d="
		M125.072,54.281l-61.878,61.878c-0.995,0.993-2.214,1.484-3.664,1.484c-1.449,0-2.675-0.492-3.663-1.484L24.928,85.219"/>
	<path id="Photo" display="inline" fill="none" stroke="#E6E6E6" stroke-miterlimit="10" d="M52.476,29.664h45.042l11.262,16.89
		h16.89c4.658,0,8.639,1.681,11.94,5.04c3.295,3.354,4.95,7.366,4.95,12.032v61.835c0,4.659-1.654,8.632-4.95,11.896
		c-3.302,3.271-7.282,4.904-11.94,4.904H24.33c-4.666,0-8.646-1.646-11.941-4.949c-3.302-3.295-4.949-7.275-4.949-11.939V63.534
		c0-4.665,1.647-8.659,4.949-11.986c3.295-3.334,7.275-4.994,11.941-4.994h16.89L52.476,29.664z M75,63.444
		c3.813,0,7.457,0.75,10.933,2.242c3.463,1.491,6.455,3.488,8.968,5.997c2.507,2.507,4.511,5.498,6.003,8.976
		c1.484,3.476,2.229,7.121,2.233,10.926c0.007,3.812-0.743,7.45-2.233,10.927c-1.5,3.477-3.502,6.475-6.003,8.981
		c-2.507,2.507-5.499,4.497-8.968,5.996c-3.483,1.491-7.134,2.242-10.933,2.242c-3.813,0-7.45-0.75-10.933-2.242
		c-3.476-1.499-6.468-3.489-8.968-5.996c-2.507-2.508-4.511-5.507-6.003-8.981c-1.499-3.477-2.242-7.114-2.242-10.927
		c0-3.807,0.75-7.45,2.242-10.926c1.492-3.478,3.489-6.469,6.003-8.976c2.507-2.508,5.498-4.505,8.968-5.997
		C67.543,64.193,71.188,63.444,75,63.444z"/>
	<path id="Etoile" display="inline" fill="none" stroke="#E6E6E6" stroke-miterlimit="10" d="M57.374,70.423l17.63-54.266
		l17.63,54.266H149.7l-46.163,32.045l17.63,53.299l-46.164-33.778l-46.17,33.521l17.63-53.042L0.3,70.423H57.374z"/>
	<g id="Croix" display="inline">
		
			<line fill="none" stroke="#E6E6E6" stroke-linecap="round" stroke-linejoin="round" stroke-miterlimit="10" x1="25.307" y1="36.269" x2="124.693" y2="135.656"/>
		
			<line fill="none" stroke="#E6E6E6" stroke-linecap="round" stroke-linejoin="round" stroke-miterlimit="10" x1="25.307" y1="135.656" x2="124.693" y2="36.269"/>
	</g>
	<g id="Nouveau" display="inline">
		<path fill="none" stroke="#E6E6E6" stroke-miterlimit="10" d="M75,16.212c9.474,0,18.515,1.842,27.122,5.522
			c8.601,3.682,16.014,8.636,22.243,14.86c6.229,6.229,11.184,13.644,14.861,22.246c3.679,8.602,5.522,17.643,5.522,27.119
			c0,9.475-1.845,18.516-5.522,27.122c-3.679,8.602-8.633,16.013-14.861,22.243c-6.229,6.229-13.644,11.184-22.243,14.861
			c-8.607,3.679-17.648,5.522-27.122,5.522c-9.474,0-18.515-1.845-27.122-5.522c-8.601-3.679-16.014-8.632-22.243-14.861
			c-6.229-6.229-11.183-13.643-14.861-22.243c-3.679-8.605-5.524-17.646-5.524-27.12c0-9.479,1.845-18.519,5.523-27.119
			c3.678-8.604,8.632-16.017,14.861-22.245c6.229-6.227,13.642-11.181,22.243-14.86C56.485,18.053,65.526,16.212,75,16.212z"/>
		<line fill="none" stroke="#E6E6E6" stroke-linecap="round" stroke-miterlimit="10" x1="75" y1="54.257" x2="75" y2="117.667"/>
		
			<line fill="none" stroke="#E6E6E6" stroke-linecap="round" stroke-miterlimit="10" x1="43.295" y1="85.962" x2="106.705" y2="85.962"/>
	</g>
	<g id="FlechesBas" display="inline">
		<path fill="none" stroke="#989898" stroke-linecap="round" stroke-linejoin="round" stroke-miterlimit="10" d="M134.316,82.593
			L80.469,136.44c-1.518,1.518-3.351,2.283-5.469,2.283s-3.952-0.767-5.469-2.283L15.684,82.593 M134.316,36.438L80.469,90.285
			c-1.518,1.518-3.351,2.283-5.469,2.283s-3.952-0.767-5.469-2.283L15.684,36.438"/>
	</g>
	<g id="Scintillement" display="inline">
		
			<line fill="none" stroke="#E6E6E6" stroke-linecap="round" stroke-linejoin="round" stroke-miterlimit="10" x1="34.457" y1="47.059" x2="56.533" y2="69.14"/>
		
			<line fill="none" stroke="#E6E6E6" stroke-linecap="round" stroke-linejoin="round" stroke-miterlimit="10" x1="93.375" y1="105.981" x2="115.436" y2="128.082"/>
		
			<line fill="none" stroke="#E6E6E6" stroke-linecap="round" stroke-linejoin="round" stroke-miterlimit="10" x1="74.935" y1="30.327" x2="74.935" y2="61.556"/>
		
			<line fill="none" stroke="#E6E6E6" stroke-linecap="round" stroke-linejoin="round" stroke-miterlimit="10" x1="93.335" y1="69.178" x2="115.436" y2="47.079"/>
		
			<line fill="none" stroke="#E6E6E6" stroke-linecap="round" stroke-linejoin="round" stroke-miterlimit="10" x1="100.959" y1="87.581" x2="132.188" y2="87.581"/>
		
			<line fill="none" stroke="#E6E6E6" stroke-linecap="round" stroke-linejoin="round" stroke-miterlimit="10" x1="48.91" y1="87.581" x2="17.681" y2="87.581"/>
		
			<line fill="none" stroke="#E6E6E6" stroke-linecap="round" stroke-linejoin="round" stroke-miterlimit="10" x1="56.533" y1="105.981" x2="34.457" y2="128.102"/>
		
			<line fill="none" stroke="#E6E6E6" stroke-linecap="round" stroke-linejoin="round" stroke-miterlimit="10" x1="74.935" y1="113.605" x2="74.935" y2="144.834"/>
	</g>
	<path id="Rouage" display="inline" fill="none" stroke="#E6E6E6" stroke-miterlimit="10" d="M88.301,16.222l5.511,16.535
		c1.532,0.524,3.38,1.274,5.536,2.251l15.58-7.785l18.814,18.812l-7.79,15.58c0.978,2.154,1.728,4,2.251,5.535l16.536,5.511v26.604
		l-16.536,5.511c-0.523,1.532-1.273,3.381-2.251,5.535l7.79,15.58l-18.814,18.812l-15.58-7.786
		c-2.156,0.979-4.004,1.729-5.536,2.251l-5.511,16.536H61.699l-5.511-16.536c-1.536-0.522-3.38-1.272-5.536-2.251l-15.527,7.786
		L16.311,125.89l7.737-15.58c-0.978-2.154-1.728-4.003-2.248-5.535L5.261,99.262V72.661L21.8,67.151
		c0.521-1.535,1.271-3.381,2.248-5.535l-7.737-15.58l18.814-18.812l15.527,7.785c2.156-0.977,4-1.727,5.536-2.251l5.511-16.535
		H88.301z M75,60.878c6.919,0,12.838,2.449,17.735,7.349c4.896,4.897,7.349,10.812,7.349,17.735c0,6.919-2.45,12.837-7.349,17.735
		c-4.897,4.896-10.816,7.348-17.735,7.348c-6.923,0-12.838-2.449-17.735-7.348c-4.896-4.899-7.349-10.816-7.349-17.735
		c0-6.923,2.45-12.838,7.349-17.735C62.162,63.328,68.077,60.878,75,60.878z"/>
</g>
</svg>
