<?xml version="1.0" encoding="utf-8"?>
<!-- Generator: Adobe Illustrator 16.0.0, SVG Export Plug-In . SVG Version: 6.00 Build 0)  -->
<!DOCTYPE svg PUBLIC "-//W3C//DTD SVG 1.1//EN" "http://www.w3.org/Graphics/SVG/1.1/DTD/svg11.dtd">
<svg version="1.1" id="Calque_1" xmlns="http://www.w3.org/2000/svg" xmlns:xlink="http://www.w3.org/1999/xlink" x="0px" y="0px"
	 width="388.235px" height="299.999px" viewBox="0 0 388.235 299.999" enable-background="new 0 0 388.235 299.999"
	 xml:space="preserve">
<g>
	<path fill="#E6E6E6" stroke="#101A29" stroke-miterlimit="10" d="M290.978,256.14c-2.708,2.573-7.37,2.055-10.419-1.15
		L164.57,132.811c-3.04-3.207-3.318-7.892-0.614-10.459l6.329-6.003c2.708-2.573,7.37-2.06,10.415,1.147l115.988,122.176
		c3.049,3.209,3.322,7.893,0.61,10.461L290.978,256.14z"/>
	<path fill="#E6E6E6" stroke="#101A29" stroke-miterlimit="10" d="M253.392,123.706c0,45.095-36.559,81.653-81.653,81.653
		c-45.102,0-81.657-36.559-81.657-81.653s36.556-81.653,81.657-81.653C216.833,42.053,253.392,78.611,253.392,123.706z"/>
	<path fill="#F7F0F7" stroke="#101A29" stroke-miterlimit="10" d="M237.212,123.706c0,36.162-29.315,65.474-65.474,65.474
		c-36.165,0-65.479-29.312-65.479-65.474c0-36.165,29.314-65.473,65.479-65.473C207.896,58.233,237.212,87.542,237.212,123.706z"/>
	<path fill="#FFFFFF" stroke="#101A29" stroke-miterlimit="10" d="M235.249,108.059c-1.318-5.37-3.238-10.495-5.786-15.25
		l-22.055,33.773c-1.992,3.051-1.133,7.136,1.916,9.126c3.045,1.99,7.134,1.135,9.122-1.914L235.249,108.059z"/>
	<path fill="#FFFFFF" stroke="#101A29" stroke-miterlimit="10" d="M224.624,85.221c-2.851-3.913-6.11-7.492-9.745-10.682
		c-1.575,0.408-3.007,1.356-3.967,2.824l-38.079,58.316c-2.038,3.123-1.158,7.311,1.963,9.353l1.975,1.289
		c3.125,2.039,7.312,1.163,9.35-1.962l38.083-58.318C224.376,85.777,224.498,85.499,224.624,85.221z"/>
</g>
</svg>
