<?xml version="1.0" encoding="utf-8"?>
<!-- Generator: Adobe Illustrator 16.0.0, SVG Export Plug-In . SVG Version: 6.00 Build 0)  -->
<!DOCTYPE svg PUBLIC "-//W3C//DTD SVG 1.1//EN" "http://www.w3.org/Graphics/SVG/1.1/DTD/svg11.dtd">
<svg version="1.1" id="Calque_1" xmlns="http://www.w3.org/2000/svg" xmlns:xlink="http://www.w3.org/1999/xlink" x="0px" y="0px"
	 width="388.234px" height="300px" viewBox="0 0 388.234 300" enable-background="new 0 0 388.234 300" xml:space="preserve">
<g>
	<path fill="#F7F0F7" stroke="#101A29" stroke-width="2" stroke-miterlimit="10" d="M156.343,106.363v138.07
		c0,0,5.472,12.594,38.301,12.594c32.835,0,38.307-12.594,38.307-12.594v-138.07"/>
	<path fill="#E6E6E6" stroke="#101A29" stroke-width="2" stroke-miterlimit="10" d="M194.644,251.003"/>
	<path fill="#E6E6E6" stroke="#101A29" stroke-width="2" stroke-miterlimit="10" d="M230.672,94.065
		c-3.187-10.118-10.502-18.765-18.062-22.664c-3.96-2.036-7.489-3.847-8.67-6.544c-1.809-4.184,0.122-9.393,0.122-12.47
		c0-5.05-4.215-9.414-9.42-9.414c-5.201,0-9.423,4.213-9.423,9.414c0,3.283,2.345,8.235,0.304,12.47
		c-1.191,2.473-4.841,4.16-8.847,6.555c-8.14,4.853-15.167,13.021-18.165,22.827l0.021-0.062c-9.487,3.13-5.839,8.491-5.839,8.491
		s5.989,12.688,41.948,12.688l0,0c35.961,0,41.951-12.688,41.951-12.688s3.651-5.361-5.835-8.491L230.672,94.065z"/>
	<path fill="#E6E6E6" stroke="#101A29" stroke-width="2" stroke-miterlimit="10" d="M158.492,94.274
		c5.637,3.453,16.35,7.301,36.15,7.301l0,0c6.81,0,12.539-0.455,17.36-1.191"/>
	<path fill="#E6E6E6" stroke="#101A29" stroke-width="2" stroke-miterlimit="10" d="M156.343,237.683"/>
	<path fill="#E6E6E6" stroke="#101A29" stroke-width="2" stroke-miterlimit="10" d="M156.343,231.81c0,0,3.372,2.58,6.745,2.193"/>
	<path fill="#E6E6E6" stroke="#101A29" stroke-width="2" stroke-miterlimit="10" d="M156.343,216.765c0,0,2.149,2.678,8.207,2.189"
		/>
	<path fill="#E6E6E6" stroke="#101A29" stroke-width="2" stroke-miterlimit="10" d="M156.343,201.392c0,0,7.479,5.203,17.693,2.191"
		/>
	<path fill="#E6E6E6" stroke="#101A29" stroke-width="2" stroke-miterlimit="10" d="M156.343,186.56c0,0,2.149,2.719,6.93,2.186"/>
	<path fill="#E6E6E6" stroke="#101A29" stroke-width="2" stroke-miterlimit="10" d="M156.343,171.39c0,0,2.149,2.418,7.479,2.189"/>
	<path fill="#E6E6E6" stroke="#101A29" stroke-width="2" stroke-miterlimit="10" d="M156.343,156.417c0,0,2.149,2.744,9.116,2.201"
		/>
	<path fill="#E6E6E6" stroke="#101A29" stroke-width="2" stroke-miterlimit="10" d="M156.343,141.25c0,0,7.479,5.146,18.421,2.189"
		/>
	<path fill="#E6E6E6" stroke="#101A29" stroke-width="2" stroke-miterlimit="10" d="M186.801,72.344c0,0-11.218,7.552-15.591,21.93"
		/>
</g>
</svg>
