<?xml version="1.0" encoding="utf-8"?>
<!-- Generator: Adobe Illustrator 16.0.0, SVG Export Plug-In . SVG Version: 6.00 Build 0)  -->
<!DOCTYPE svg PUBLIC "-//W3C//DTD SVG 1.1//EN" "http://www.w3.org/Graphics/SVG/1.1/DTD/svg11.dtd">
<svg version="1.1" xmlns="http://www.w3.org/2000/svg" xmlns:xlink="http://www.w3.org/1999/xlink" x="0px" y="0px"
	 width="388.234px" height="300px" viewBox="0 0 388.234 300" enable-background="new 0 0 388.234 300" xml:space="preserve">
<g id="Calque_2">
</g>
<g id="Calque_1">
	<g>
		<path fill="#FFFFFF" d="M132.773,70.209c-9.904-0.261-23.024,3.278-39.909,13.687c-17.758,10.943-27.148,22.13-31.018,33.533
			h0.005c0,0-49.95,42.776-5.374,84.728l-0.493,1.85c-2.188,9.703,0.97,20.451,12.757,28.834
			c19.812,14.101,50.381,17.595,61.813,10.002l-0.01-0.02c0,0,35.479,9.536,58.65-1.808l0,0
			c20.167,10.033,52.796,17.691,81.503-16.932v0.018c11.283,5.148,26.937,6.939,43.226,2.185
			c30.484-8.902,57.076-40.599,25.305-82.601l-0.377-0.075c5.488-26.521-49.608-58.066-66.682-58.099v-0.02
			c-5.813-10.309-12.66-17.542-27.733-16.62c-4.896,0.298-8.834,1.331-11.99,2.875l0.007,0.008
			c-44.131-33.75-101.57-1.536-101.57-1.536L132.773,70.209z"/>
		<g>
		</g>
	</g>
	<g>
		<g>
			<path fill="none" stroke="#101A29" stroke-width="2" stroke-linecap="round" stroke-linejoin="round" stroke-miterlimit="10" d="
				M62.385,117.58c0,0-49.949,42.775-5.374,84.729"/>
			<path fill="none" stroke="#101A29" stroke-width="2" stroke-linecap="round" stroke-linejoin="round" stroke-miterlimit="10" d="
				M211.662,194.445c0,0-22.025,15.474-52.97,13.633c-30.945-1.834-52.973-33.305-76.043-28.717
				c-23.083,4.594-39.625,34.953-13.377,53.629c24.831,17.677,66.56,18.688,66.342,2.072c0.866-27.047-41.436-24.885-41.436-24.885"
				/>
			<path fill="none" stroke="#101A29" stroke-width="2" stroke-linecap="round" stroke-linejoin="round" stroke-miterlimit="10" d="
				M229.23,226.438c0,0-18.746-0.022-34.81-23.612"/>
			<path fill="none" stroke="#101A29" stroke-width="2" stroke-linecap="round" stroke-linejoin="round" stroke-miterlimit="10" d="
				M69.795,164.811c-13.637-28.054-18.091-55.062,23.602-80.763c40.433-24.919,59.283-10.469,64.043,1.258
				c8.335,20.506-2.987,66.67,53.65,64.05"/>
			<path fill="none" stroke="#101A29" stroke-width="2" stroke-linecap="round" stroke-linejoin="round" stroke-miterlimit="10" d="
				M81.042,92.753c10.083-7.271,34.312-18.193,38.577,1.784c3.7,17.314-8.917,24.91-13.114,48.773
				c-4.19,23.86,0.104,35.588,14.089,49.766"/>
			<path fill="none" stroke="#101A29" stroke-width="2" stroke-linecap="round" stroke-linejoin="round" stroke-miterlimit="10" d="
				M174.846,139.432c0,0-23.493,3.618-30.05,34.557"/>
			<path fill="none" stroke="#101A29" stroke-width="2" stroke-linecap="round" stroke-linejoin="round" stroke-miterlimit="10" d="
				M131.412,70.37c0,0,57.439-32.214,101.57,1.536"/>
			<path fill="none" stroke="#101A29" stroke-width="2" stroke-linecap="round" stroke-linejoin="round" stroke-miterlimit="10" d="
				M222.414,106.599c0,0-10.504-35.558,22.557-37.576c34.354-2.099,25.957,38.102,60.049,60.651"/>
			<path fill="none" stroke="#101A29" stroke-width="2" stroke-linecap="round" stroke-linejoin="round" stroke-miterlimit="10" d="
				M182.195,83.158c0,0,19.479-3.306,38.631,5.608"/>
			<path fill="none" stroke="#101A29" stroke-width="2" stroke-linecap="round" stroke-linejoin="round" stroke-miterlimit="10" d="
				M257.816,117.58c0,0,38.018,66.085,72.109,39.82c36.047-27.768-37.08-71.698-57.227-71.739"/>
			<path fill="none" stroke="#101A29" stroke-width="2" stroke-linecap="round" stroke-linejoin="round" stroke-miterlimit="10" d="
				M236.052,137.018c0,0,15.89,30.184,46.617,11.811"/>
			<path fill="none" stroke="#101A29" stroke-width="2" stroke-linecap="round" stroke-linejoin="round" stroke-miterlimit="10" d="
				M339.761,143.836c31.771,42.002,5.184,73.697-25.305,82.602c-35.927,10.488-68.767-10.861-58.476-29.895
				c10.483-19.408,37.234,12.85,63.98-10.49"/>
			<path fill="none" stroke="#101A29" stroke-width="2" stroke-linecap="round" stroke-linejoin="round" stroke-miterlimit="10" d="
				M207.73,123.38c0,0-4.196,54.021,48.252,73.164"/>
			<path fill="none" stroke="#101A29" stroke-width="2" stroke-linecap="round" stroke-linejoin="round" stroke-miterlimit="10" d="
				M170.755,229.205c0,0,56.211,48.431,100.479-4.967"/>
			<path fill="none" stroke="#101A29" stroke-width="2" stroke-linecap="round" stroke-linejoin="round" stroke-miterlimit="10" d="
				M131.078,242.975c0,0,35.479,9.537,58.65-1.808"/>
		</g>
	</g>
</g>
</svg>
