<?xml version="1.0" encoding="utf-8"?>
<!-- Generator: Adobe Illustrator 16.0.0, SVG Export Plug-In . SVG Version: 6.00 Build 0)  -->
<!DOCTYPE svg PUBLIC "-//W3C//DTD SVG 1.1//EN" "http://www.w3.org/Graphics/SVG/1.1/DTD/svg11.dtd">
<svg version="1.1" id="Calque_1" xmlns="http://www.w3.org/2000/svg" xmlns:xlink="http://www.w3.org/1999/xlink" x="0px" y="0px"
	 width="388.234px" height="300px" viewBox="0 0 388.234 300" enable-background="new 0 0 388.234 300" xml:space="preserve">
<g>
	<defs>
		<filter id="Adobe_OpacityMaskFilter" filterUnits="userSpaceOnUse" x="37.969" y="56.344" width="315.617" height="193.14">
			<feFlood  style="flood-color:white;flood-opacity:1" result="back"/>
			<feBlend  in="SourceGraphic" in2="back" mode="normal"/>
		</filter>
	</defs>
	<mask maskUnits="userSpaceOnUse" x="37.969" y="56.344" width="315.617" height="193.14" id="SVGID_1_">
		<g filter="url(#Adobe_OpacityMaskFilter)">
			<g>
				
					<path fill="none" stroke="#101A29" stroke-width="2" stroke-linecap="round" stroke-linejoin="round" stroke-miterlimit="10" d="
					M61.852,117.429c0,0-49.949,42.776-5.374,84.727"/>
				
					<path fill="none" stroke="#101A29" stroke-width="2" stroke-linecap="round" stroke-linejoin="round" stroke-miterlimit="10" d="
					M211.13,194.294c0,0-22.026,15.474-52.97,13.633c-30.945-1.834-52.973-33.305-76.043-28.717
					c-23.083,4.594-39.625,34.953-13.377,53.629c24.831,17.676,66.56,18.688,66.342,2.072c0.866-27.047-41.436-24.884-41.436-24.884
					"/>
				
					<path fill="none" stroke="#101A29" stroke-width="2" stroke-linecap="round" stroke-linejoin="round" stroke-miterlimit="10" d="
					M228.699,226.285c0,0-18.746-0.023-34.809-23.613"/>
				
					<path fill="none" stroke="#101A29" stroke-width="2" stroke-linecap="round" stroke-linejoin="round" stroke-miterlimit="10" d="
					M69.263,164.658c-13.637-28.053-18.091-55.063,23.601-80.762c40.433-24.919,59.283-10.469,64.043,1.258
					c8.335,20.506-2.987,66.671,53.65,64.05"/>
				
					<path fill="none" stroke="#101A29" stroke-width="2" stroke-linecap="round" stroke-linejoin="round" stroke-miterlimit="10" d="
					M80.51,92.602c10.083-7.271,34.312-18.193,38.577,1.784c3.7,17.314-8.917,24.91-13.114,48.773
					c-4.191,23.861,0.103,35.588,14.088,49.766"/>
				
					<path fill="none" stroke="#101A29" stroke-width="2" stroke-linecap="round" stroke-linejoin="round" stroke-miterlimit="10" d="
					M174.314,139.28c0,0-23.493,3.618-30.049,34.557"/>
				
					<path fill="none" stroke="#101A29" stroke-width="2" stroke-linecap="round" stroke-linejoin="round" stroke-miterlimit="10" d="
					M130.88,70.219c0,0,57.439-32.214,101.57,1.536"/>
				
					<path fill="none" stroke="#101A29" stroke-width="2" stroke-linecap="round" stroke-linejoin="round" stroke-miterlimit="10" d="
					M221.882,106.447c0,0-10.504-35.558,22.555-37.576c34.354-2.099,25.958,38.102,60.049,60.651"/>
				
					<path fill="none" stroke="#101A29" stroke-width="2" stroke-linecap="round" stroke-linejoin="round" stroke-miterlimit="10" d="
					M181.663,83.007c0,0,19.479-3.306,38.631,5.608"/>
				
					<path fill="none" stroke="#101A29" stroke-width="2" stroke-linecap="round" stroke-linejoin="round" stroke-miterlimit="10" d="
					M257.284,117.429c0,0,38.018,66.085,72.111,39.821c36.047-27.767-37.082-71.699-57.226-71.74"/>
				
					<path fill="none" stroke="#101A29" stroke-width="2" stroke-linecap="round" stroke-linejoin="round" stroke-miterlimit="10" d="
					M235.52,136.866c0,0,15.889,30.184,46.618,11.811"/>
				
					<path fill="none" stroke="#101A29" stroke-width="2" stroke-linecap="round" stroke-linejoin="round" stroke-miterlimit="10" d="
					M339.229,143.685c31.772,42.003,5.182,73.697-25.304,82.602c-35.926,10.489-68.767-10.863-58.475-29.895
					c10.484-19.407,37.235,12.85,63.982-10.49"/>
				
					<path fill="none" stroke="#101A29" stroke-width="2" stroke-linecap="round" stroke-linejoin="round" stroke-miterlimit="10" d="
					M207.199,123.229c0,0-4.197,54.021,48.251,73.163"/>
				
					<path fill="none" stroke="#101A29" stroke-width="2" stroke-linecap="round" stroke-linejoin="round" stroke-miterlimit="10" d="
					M170.223,229.054c0,0,56.21,48.43,100.478-4.967"/>
				
					<path fill="none" stroke="#101A29" stroke-width="2" stroke-linecap="round" stroke-linejoin="round" stroke-miterlimit="10" d="
					M130.546,242.822c0,0,35.479,9.537,58.65-1.807"/>
			</g>
		</g>
	</mask>
	<path mask="url(#SVGID_1_)" fill="#C33A78" d="M132.773,70.209c-9.904-0.261-23.024,3.278-39.909,13.687
		c-17.758,10.943-27.148,22.13-31.017,33.533h0.004c0,0-49.95,42.776-5.374,84.727l-0.493,1.85
		c-2.188,9.703,0.97,20.451,12.757,28.834c19.813,14.099,50.381,17.594,61.814,10.002l-0.01-0.02c0,0,35.479,9.537,58.65-1.807l0,0
		c20.167,10.035,52.796,17.693,81.503-16.93v0.017c11.283,5.149,26.937,6.94,43.226,2.183c30.484-8.902,57.076-40.598,25.304-82.601
		l-0.377-0.075c5.489-26.521-49.61-58.066-66.681-58.099v-0.02c-5.814-10.309-12.66-17.542-27.734-16.62
		c-4.895,0.298-8.835,1.331-11.991,2.875l0.006,0.008c-44.131-33.75-101.57-1.536-101.57-1.536L132.773,70.209z"/>
</g>
</svg>
