<?xml version="1.0" encoding="utf-8"?>
<!-- Generator: Adobe Illustrator 16.0.0, SVG Export Plug-In . SVG Version: 6.00 Build 0)  -->
<!DOCTYPE svg PUBLIC "-//W3C//DTD SVG 1.1//EN" "http://www.w3.org/Graphics/SVG/1.1/DTD/svg11.dtd">
<svg version="1.1" id="Calque_1" xmlns="http://www.w3.org/2000/svg" xmlns:xlink="http://www.w3.org/1999/xlink" x="0px" y="0px"
	 width="388.235px" height="299.999px" viewBox="0 0 388.235 299.999" enable-background="new 0 0 388.235 299.999"
	 xml:space="preserve">
<g>
	<path fill="#E6E6E6" d="M132.773,70.209c-9.905-0.261-23.025,3.278-39.91,13.687c-17.757,10.943-27.148,22.13-31.016,33.533h0.004
		c0,0-49.95,42.776-5.374,84.727l-0.493,1.85c-2.188,9.703,0.969,20.45,12.756,28.834c19.814,14.098,50.381,17.593,61.815,10.002
		l-0.01-0.02c0,0,35.48,9.537,58.65-1.807l0,0c20.167,10.036,52.796,17.694,81.503-16.929v0.016
		c11.284,5.15,26.937,6.941,43.226,2.183c30.484-8.902,57.076-40.598,25.304-82.601l-0.377-0.075
		c5.489-26.521-49.611-58.066-66.681-58.099v-0.02c-5.814-10.309-12.66-17.542-27.734-16.62c-4.895,0.298-8.835,1.331-11.992,2.875
		l0.006,0.008c-44.131-33.75-101.57-1.536-101.57-1.536L132.773,70.209z"/>
	<g>
		<path fill="none" stroke="#101A29" stroke-linecap="round" stroke-linejoin="round" stroke-miterlimit="10" d="M61.852,117.429
			c0,0-49.95,42.776-5.374,84.727"/>
		<path fill="none" stroke="#101A29" stroke-linecap="round" stroke-linejoin="round" stroke-miterlimit="10" d="M211.13,194.295
			c0,0-22.026,15.473-52.97,13.633c-30.945-1.835-52.972-33.306-76.043-28.717c-23.083,4.594-39.625,34.952-13.377,53.629
			c24.831,17.675,66.56,18.687,66.342,2.071c0.866-27.047-41.435-24.883-41.435-24.883"/>
		<path fill="none" stroke="#101A29" stroke-linecap="round" stroke-linejoin="round" stroke-miterlimit="10" d="M228.699,226.285
			c0,0-18.746-0.024-34.808-23.614"/>
		<path fill="none" stroke="#101A29" stroke-linecap="round" stroke-linejoin="round" stroke-miterlimit="10" d="M69.263,164.658
			c-13.637-28.053-18.091-55.063,23.6-80.762c40.433-24.919,59.284-10.469,64.043,1.258c8.335,20.506-2.987,66.671,53.651,64.05"/>
		<path fill="none" stroke="#101A29" stroke-linecap="round" stroke-linejoin="round" stroke-miterlimit="10" d="M80.51,92.602
			c10.083-7.271,34.312-18.193,38.577,1.784c3.7,17.314-8.917,24.91-13.114,48.773c-4.192,23.861,0.102,35.588,14.088,49.767"/>
		<path fill="none" stroke="#101A29" stroke-linecap="round" stroke-linejoin="round" stroke-miterlimit="10" d="M174.314,139.28
			c0,0-23.494,3.618-30.049,34.558"/>
		<path fill="none" stroke="#101A29" stroke-linecap="round" stroke-linejoin="round" stroke-miterlimit="10" d="M130.88,70.219
			c0,0,57.439-32.214,101.57,1.536"/>
		<path fill="none" stroke="#101A29" stroke-linecap="round" stroke-linejoin="round" stroke-miterlimit="10" d="M221.882,106.447
			c0,0-10.504-35.558,22.555-37.576c34.354-2.099,25.958,38.102,60.048,60.651"/>
		<path fill="none" stroke="#101A29" stroke-linecap="round" stroke-linejoin="round" stroke-miterlimit="10" d="M181.663,83.007
			c0,0,19.48-3.306,38.631,5.608"/>
		<path fill="none" stroke="#101A29" stroke-linecap="round" stroke-linejoin="round" stroke-miterlimit="10" d="M257.284,117.429
			c0,0,38.018,66.085,72.112,39.82c36.047-27.766-37.082-71.698-57.226-71.739"/>
		<path fill="none" stroke="#101A29" stroke-linecap="round" stroke-linejoin="round" stroke-miterlimit="10" d="M235.52,136.866
			c0,0,15.888,30.184,46.618,11.812"/>
		<path fill="none" stroke="#101A29" stroke-linecap="round" stroke-linejoin="round" stroke-miterlimit="10" d="M339.229,143.685
			c31.772,42.003,5.181,73.698-25.304,82.601c-35.926,10.49-68.767-10.863-58.475-29.894c10.485-19.407,37.236,12.849,63.983-10.49"
			/>
		<path fill="none" stroke="#101A29" stroke-linecap="round" stroke-linejoin="round" stroke-miterlimit="10" d="M207.199,123.229
			c0,0-4.197,54.021,48.251,73.163"/>
		<path fill="none" stroke="#101A29" stroke-linecap="round" stroke-linejoin="round" stroke-miterlimit="10" d="M170.223,229.055
			c0,0,56.21,48.429,100.477-4.968"/>
		<path fill="none" stroke="#101A29" stroke-linecap="round" stroke-linejoin="round" stroke-miterlimit="10" d="M130.546,242.822
			c0,0,35.48,9.537,58.65-1.807"/>
	</g>
	<path fill="none" stroke="#101A29" stroke-linecap="round" stroke-linejoin="round" stroke-miterlimit="10" d="M174.314,139.28"/>
</g>
</svg>
