<?xml version="1.0" encoding="utf-8"?>
<!-- Generator: Adobe Illustrator 16.0.0, SVG Export Plug-In . SVG Version: 6.00 Build 0)  -->
<!DOCTYPE svg PUBLIC "-//W3C//DTD SVG 1.1//EN" "http://www.w3.org/Graphics/SVG/1.1/DTD/svg11.dtd">
<svg version="1.1" xmlns="http://www.w3.org/2000/svg" xmlns:xlink="http://www.w3.org/1999/xlink" x="0px" y="0px"
	 width="388.234px" height="300px" viewBox="0 0 388.234 300" enable-background="new 0 0 388.234 300" xml:space="preserve">
<g id="Calque_2">
</g>
<g id="Calque_1">
	<g>
		<path fill="#F7F0F7" stroke="#000000" stroke-width="2" stroke-miterlimit="10" d="M334.812,150.935
			c0,77.972-63.198,141.18-141.177,141.18c-77.969,0-141.167-63.208-141.167-141.18c0-77.968,63.198-141.174,141.167-141.174
			C271.614,9.761,334.812,72.966,334.812,150.935z"/>
		<path fill="#CCCCCC" stroke="#000000" stroke-width="1.5" stroke-miterlimit="10" d="M322.062,150.935
			c0,70.929-57.496,128.42-128.427,128.42c-70.926,0-128.418-57.491-128.418-128.42c0-70.925,57.492-128.422,128.418-128.422
			C264.566,22.512,322.062,80.009,322.062,150.935z"/>
		<path fill="#2E3754" d="M195.908,148.851c-0.406,1.279-2.098,1.881-3.784,1.346l0,0c-1.688-0.532-2.717-2-2.306-3.282
			L225.07,35.759c0.409-1.278,2.098-1.883,3.789-1.347l0,0c1.682,0.534,2.716,2.001,2.312,3.286L195.908,148.851z"/>
		<path fill="#2E3754" d="M247.818,155.664c0.275-2.183-0.979-4.139-2.809-4.37l-49.37-6.241c-1.829-0.233-3.533,1.35-3.812,3.535
			l-0.054,0.452c-0.28,2.187,0.98,4.14,2.809,4.373l49.371,6.238c1.829,0.23,3.532-1.347,3.806-3.533L247.818,155.664z"/>
		<path fill="#2E3138" stroke="#2E3754" stroke-miterlimit="10" d="M205.224,148.038c0,6.257-5.071,11.322-11.32,11.322
			c-6.254,0-11.326-5.064-11.326-11.322c0-6.254,5.071-11.322,11.326-11.322C200.152,136.715,205.224,141.783,205.224,148.038z"/>
		<g>
			<polygon points="194.136,245.5 193.636,274.997 193.136,245.5 			"/>
		</g>
		<g>
			<polygon points="193.136,56.5 193.636,27.009 194.136,56.5 			"/>
		</g>
		<g>
			<polygon points="98.617,151.435 69.126,150.935 98.617,150.435 			"/>
		</g>
		<g>
			<polygon points="288.617,150.435 318.114,150.935 288.617,151.435 			"/>
		</g>
		<g>
			<polygon points="142.043,230.456 125.716,255.017 141.624,230.183 			"/>
		</g>
		<g>
			<polygon points="245.238,71.412 261.565,46.852 245.656,71.685 			"/>
		</g>
		<g>
			<polygon points="114.117,99.337 89.555,83.01 114.391,98.918 			"/>
		</g>
		<g>
			<polygon points="273.164,202.53 297.72,218.862 272.891,202.948 			"/>
		</g>
		<g>
			<polygon points="239.267,234.032 253.17,260.034 238.827,234.272 			"/>
		</g>
		<g>
			<polygon points="148.01,67.842 134.112,41.83 148.449,67.603 			"/>
		</g>
		<g>
			<polygon points="110.545,196.563 84.539,210.467 110.306,196.124 			"/>
		</g>
		<g>
			<polygon points="276.735,105.307 302.737,91.403 276.976,105.746 			"/>
		</g>
	</g>
</g>
</svg>
