<?xml version="1.0" encoding="utf-8"?>
<!-- Generator: Adobe Illustrator 16.0.0, SVG Export Plug-In . SVG Version: 6.00 Build 0)  -->
<!DOCTYPE svg PUBLIC "-//W3C//DTD SVG 1.1//EN" "http://www.w3.org/Graphics/SVG/1.1/DTD/svg11.dtd">
<svg version="1.1" id="Calque_1" xmlns="http://www.w3.org/2000/svg" xmlns:xlink="http://www.w3.org/1999/xlink" x="0px" y="0px"
	 width="388.234px" height="300px" viewBox="0 0 388.234 300" enable-background="new 0 0 388.234 300" xml:space="preserve">
<g>
	<g>
		<g>
			<path fill="#E6E6E6" stroke="#101A29" stroke-width="2" stroke-miterlimit="10" d="M47.805,257.89
				c4.273-7.631,51.583-24.113,55.855-29.303c4.272-5.188,2.062-27.705,2.062-27.705l41.354-5.623c0,0-1.449,24.783,3.737,31.193
				c5.19,6.407,61.044,25.334,67.457,31.438"/>
			<g>
				
					<path fill="#E6E6E6" stroke="#101A29" stroke-width="2" stroke-linecap="round" stroke-linejoin="round" stroke-miterlimit="10" d="
					M125.332,39.958c-32.049,0-68.371,73.865-68.371,94.01c0,20.145,31.743,39.067,31.743,39.067s12.209,36.629,36.627,36.629
					c24.419,0,36.627-36.629,36.627-36.629s30.521-14.648,30.521-39.067C192.48,109.549,157.381,39.958,125.332,39.958z"/>
				
					<path fill="none" stroke="#101A29" stroke-width="2" stroke-linecap="round" stroke-linejoin="round" stroke-miterlimit="10" d="
					M114.04,187.688c0,0.338,10.681-6.411,24.113,0.612"/>
				
					<path fill="none" stroke="#101A29" stroke-width="2" stroke-linecap="round" stroke-linejoin="round" stroke-miterlimit="10" d="
					M121.283,160.125c-0.605-0.703-2.494-0.07-4.22,1.416c-1.722,1.485-2.634,3.254-2.026,3.957
					c0.604,0.703,2.494,0.071,4.216-1.412C120.978,162.601,121.89,160.828,121.283,160.125z"/>
				
					<path fill="none" stroke="#101A29" stroke-width="2" stroke-linecap="round" stroke-linejoin="round" stroke-miterlimit="10" d="
					M128.312,160.125c0.605-0.703,2.495-0.07,4.217,1.416c1.727,1.485,2.638,3.254,2.032,3.957
					c-0.606,0.703-2.496,0.071-4.222-1.412C128.618,162.601,127.708,160.828,128.312,160.125z"/>
				<path fill="#101A29" stroke="#101A29" stroke-linecap="round" stroke-linejoin="round" stroke-miterlimit="10" d="
					M69.781,115.96c33.574,0,40.594,10.681,40.594,23.806C110.375,139.766,69.781,151.671,69.781,115.96z"/>
				<path fill="#101A29" stroke="#101A29" stroke-linecap="round" stroke-linejoin="round" stroke-miterlimit="10" d="
					M178.748,115.96c-33.577,0-40.596,10.681-40.596,23.806C138.153,139.766,178.748,151.671,178.748,115.96z"/>
				<polygon fill="none" stroke="#101A29" stroke-width="2" stroke-miterlimit="10" points="134.003,103.141 125.241,119.215 
					116.481,103.141 				"/>
				<polygon fill="none" stroke="#101A29" stroke-width="2" stroke-miterlimit="10" points="119.59,93.982 125.241,83.203 
					130.888,93.982 				"/>
				<polygon fill="none" stroke="#101A29" stroke-width="2" stroke-miterlimit="10" points="121.24,73.292 125.241,65.951 
					129.243,73.292 				"/>
				<path fill="#FFFFFF" d="M83.268,126.604c1.989-2.942,2.415-6.13,0.944-7.12c-1.463-0.99-4.263,0.59-6.252,3.534
					c-1.987,2.939-2.407,6.129-0.942,7.119C78.484,131.126,81.284,129.544,83.268,126.604z"/>
				<path fill="#FFFFFF" d="M91.628,126.211c1.335-1.972,1.598-4.122,0.593-4.8c-1.002-0.678-2.9,0.37-4.229,2.342
					c-1.332,1.972-1.599,4.122-0.594,4.801C88.405,129.232,90.298,128.184,91.628,126.211z"/>
				<path fill="#FFFFFF" d="M165.574,126.604c1.988-2.942,2.406-6.13,0.943-7.12c-1.467-0.99-4.269,0.59-6.256,3.534
					c-1.984,2.939-2.409,6.129-0.939,7.119C160.787,131.126,163.586,129.544,165.574,126.604z"/>
				
					<ellipse transform="matrix(0.5598 -0.8286 0.8286 0.5598 -27.7973 197.6331)" fill="#FFFFFF" cx="172.11" cy="124.979" rx="4.309" ry="2.196"/>
			</g>
		</g>
		<g>
			<path fill="#E6E6E6" stroke="#101A29" stroke-width="2" stroke-miterlimit="10" d="M188.509,257.89
				c4.273-7.631,51.583-24.113,55.855-29.303c4.272-5.188,2.062-27.705,2.062-27.705l41.353-5.623c0,0-1.445,24.783,3.739,31.193
				c5.191,6.407,61.045,25.334,67.456,31.438"/>
			<g>
				
					<path fill="#E6E6E6" stroke="#101A29" stroke-width="2" stroke-linecap="round" stroke-linejoin="round" stroke-miterlimit="10" d="
					M266.036,39.958c-32.049,0-68.37,73.865-68.37,94.01c0,20.145,31.741,39.067,31.741,39.067s12.21,36.629,36.629,36.629
					s36.629-36.629,36.629-36.629s30.521-14.648,30.521-39.067C333.186,109.549,298.085,39.958,266.036,39.958z"/>
				
					<path fill="none" stroke="#101A29" stroke-width="2" stroke-linecap="round" stroke-linejoin="round" stroke-miterlimit="10" d="
					M254.745,187.688c0,0.338,10.679-6.411,24.112,0.612"/>
				
					<ellipse transform="matrix(-0.6522 -0.7581 0.7581 -0.6522 304.2419 465.2426)" fill="none" stroke="#101A29" stroke-width="2" stroke-linecap="round" stroke-linejoin="round" stroke-miterlimit="10" cx="258.858" cy="162.821" rx="1.678" ry="4.12"/>
				
					<path fill="none" stroke="#101A29" stroke-width="2" stroke-linecap="round" stroke-linejoin="round" stroke-miterlimit="10" d="
					M269.017,160.125c0.604-0.703,2.495-0.07,4.217,1.416c1.728,1.485,2.638,3.254,2.032,3.957s-2.495,0.071-4.222-1.412
					C269.323,162.601,268.413,160.828,269.017,160.125z"/>
				<path fill="#101A29" stroke="#101A29" stroke-linecap="round" stroke-linejoin="round" stroke-miterlimit="10" d="
					M210.483,115.96c33.578,0,40.597,10.681,40.597,23.806C251.079,139.766,210.483,151.671,210.483,115.96z"/>
				<path fill="#101A29" stroke="#101A29" stroke-linecap="round" stroke-linejoin="round" stroke-miterlimit="10" d="
					M319.45,115.96c-33.574,0-40.593,10.681-40.593,23.806C278.858,139.766,319.45,151.671,319.45,115.96z"/>
				<polygon fill="none" stroke="#101A29" stroke-width="2" stroke-miterlimit="10" points="274.707,103.141 265.946,119.215 
					257.185,103.141 				"/>
				<polygon fill="none" stroke="#101A29" stroke-width="2" stroke-miterlimit="10" points="260.294,93.982 265.946,83.203 
					271.594,93.982 				"/>
				<polygon fill="none" stroke="#101A29" stroke-width="2" stroke-miterlimit="10" points="261.945,73.292 265.946,65.951 
					269.949,73.292 				"/>
				<path fill="#FFFFFF" d="M223.972,126.604c1.988-2.942,2.414-6.13,0.945-7.12c-1.464-0.99-4.267,0.59-6.253,3.534
					c-1.987,2.939-2.407,6.129-0.944,7.119C219.188,131.126,221.99,129.544,223.972,126.604z"/>
				<path fill="#FFFFFF" d="M232.334,126.211c1.333-1.972,1.597-4.122,0.59-4.8c-1.001-0.678-2.896,0.37-4.229,2.342
					c-1.33,1.972-1.598,4.122-0.591,4.801C229.106,129.232,231.001,128.184,232.334,126.211z"/>
				<path fill="#FFFFFF" d="M306.278,126.604c1.989-2.942,2.409-6.13,0.945-7.12c-1.469-0.99-4.27,0.59-6.258,3.534
					c-1.984,2.939-2.406,6.129-0.938,7.119C301.491,131.126,304.292,129.544,306.278,126.604z"/>
				<path fill="#FFFFFF" d="M314.64,126.211c1.329-1.972,1.597-4.122,0.592-4.8c-1.006-0.678-2.899,0.37-4.229,2.342
					c-1.336,1.972-1.6,4.122-0.592,4.801C311.409,129.232,313.304,128.184,314.64,126.211z"/>
			</g>
		</g>
	</g>
</g>
</svg>
