<?xml version="1.0" encoding="utf-8"?>
<!-- Generator: Adobe Illustrator 16.0.0, SVG Export Plug-In . SVG Version: 6.00 Build 0)  -->
<!DOCTYPE svg PUBLIC "-//W3C//DTD SVG 1.1//EN" "http://www.w3.org/Graphics/SVG/1.1/DTD/svg11.dtd">
<svg version="1.1" id="Calque_2" xmlns="http://www.w3.org/2000/svg" xmlns:xlink="http://www.w3.org/1999/xlink" x="0px" y="0px"
	 width="388.234px" height="300px" viewBox="0 0 388.234 300" enable-background="new 0 0 388.234 300" xml:space="preserve">
<g>
	<g>
		<path fill="#C33A78" stroke="#101A29" stroke-width="2" stroke-miterlimit="10" d="M112.213,257.561
			c4.285-7.651,51.716-24.177,56-29.38c4.284-5.2,2.067-27.777,2.067-27.777l41.46-5.639c0,0-1.452,24.847,3.749,31.273
			c5.203,6.426,61.202,25.398,67.631,31.521"/>
		<g>
			
				<path fill="#C33A78" stroke="#101A29" stroke-width="2" stroke-linecap="round" stroke-linejoin="round" stroke-miterlimit="10" d="
				M189.941,39.062c-32.132,0-68.547,74.057-68.547,94.253c0,20.196,31.825,39.169,31.825,39.169s12.241,36.727,36.722,36.727
				c24.482,0,36.725-36.727,36.725-36.727s30.6-14.688,30.6-39.169C257.265,108.833,222.074,39.062,189.941,39.062z"/>
			<path fill="none" stroke="#101A29" stroke-width="2" stroke-linecap="round" stroke-linejoin="round" stroke-miterlimit="10" d="
				M178.62,187.175c0,0.339,10.709-6.426,24.176,0.613"/>
			
				<ellipse transform="matrix(-0.652 -0.7582 0.7582 -0.652 178.8884 406.5734)" fill="none" stroke="#101A29" stroke-width="2" stroke-linecap="round" stroke-linejoin="round" stroke-miterlimit="10" cx="182.741" cy="162.237" rx="1.683" ry="4.131"/>
			<path fill="none" stroke="#101A29" stroke-width="2" stroke-linecap="round" stroke-linejoin="round" stroke-miterlimit="10" d="
				M192.929,159.541c0.607-0.705,2.502-0.07,4.229,1.418c1.73,1.488,2.645,3.267,2.038,3.971c-0.609,0.705-2.503,0.07-4.233-1.418
				C193.238,162.021,192.324,160.246,192.929,159.541z"/>
			<path fill="#101A29" stroke="#101A29" stroke-linecap="round" stroke-linejoin="round" stroke-miterlimit="10" d="
				M134.247,115.261c33.662,0,40.699,10.709,40.699,23.868C174.947,139.129,134.247,151.064,134.247,115.261z"/>
			<path fill="#101A29" stroke="#101A29" stroke-linecap="round" stroke-linejoin="round" stroke-miterlimit="10" d="
				M243.494,115.261c-33.661,0-40.698,10.709-40.698,23.868C202.796,139.129,243.494,151.064,243.494,115.261z"/>
			<polygon fill="none" stroke="#101A29" stroke-width="2" stroke-miterlimit="10" points="198.635,102.408 189.851,118.524 
				181.068,102.408 			"/>
			<polygon fill="none" stroke="#101A29" stroke-width="2" stroke-miterlimit="10" points="184.185,93.227 189.851,82.419 
				195.513,93.227 			"/>
			<polygon fill="none" stroke="#101A29" stroke-width="2" stroke-miterlimit="10" points="185.839,72.482 189.851,65.122 
				193.864,72.482 			"/>
			<path fill="#FFFFFF" d="M147.769,125.933c1.995-2.95,2.421-6.146,0.947-7.139c-1.467-0.992-4.274,0.592-6.269,3.544
				c-1.993,2.947-2.414,6.145-0.945,7.137C142.973,130.467,145.781,128.881,147.769,125.933z"/>
			<path fill="#FFFFFF" d="M156.15,125.539c1.34-1.978,1.604-4.132,0.596-4.812c-1.005-0.68-2.909,0.37-4.242,2.348
				c-1.334,1.978-1.603,4.132-0.594,4.813C152.918,128.568,154.817,127.517,156.15,125.539z"/>
			<path fill="#FFFFFF" d="M230.287,125.933c1.995-2.95,2.415-6.146,0.949-7.139c-1.474-0.992-4.281,0.592-6.274,3.544
				c-1.989,2.947-2.414,6.145-0.942,7.137C225.489,130.467,228.298,128.881,230.287,125.933z"/>
			<path fill="#FFFFFF" d="M238.67,125.539c1.333-1.978,1.602-4.132,0.595-4.812c-1.009-0.68-2.908,0.37-4.242,2.348
				c-1.338,1.978-1.603,4.132-0.594,4.813C235.432,128.568,237.331,127.517,238.67,125.539z"/>
		</g>
	</g>
</g>
</svg>
