<?xml version="1.0" encoding="utf-8"?>
<!-- Generator: Adobe Illustrator 16.0.0, SVG Export Plug-In . SVG Version: 6.00 Build 0)  -->
<!DOCTYPE svg PUBLIC "-//W3C//DTD SVG 1.1//EN" "http://www.w3.org/Graphics/SVG/1.1/DTD/svg11.dtd">
<svg version="1.1" id="Calque_1" xmlns="http://www.w3.org/2000/svg" xmlns:xlink="http://www.w3.org/1999/xlink" x="0px" y="0px"
	 width="388.235px" height="299.999px" viewBox="0 0 388.235 299.999" enable-background="new 0 0 388.235 299.999"
	 xml:space="preserve">
<g>
	<g>
		<path fill="#E6E6E6" stroke="#101A29" stroke-linecap="round" stroke-linejoin="round" stroke-miterlimit="10" d="
			M309.935,115.735c0,0-0.215,40.266-12.857,69.958c-47.672,14.047-81.637,7.307-81.637,7.307s-21.76-15.891-33.936-53.241
			c1.624-41.553,6.493-73.987,6.493-73.987"/>
		<path fill="#E6E6E6" stroke="#101A29" stroke-linecap="round" stroke-linejoin="round" stroke-miterlimit="10" d="M187.998,65.771
			c0,0,53.134-12.841,94.416-11.809c16.561,22.694,27.521,61.773,27.521,61.773s-50.84,10.388-99.568,11.686
			C192.219,100.619,187.998,65.771,187.998,65.771z"/>
		<path fill="#101A29" d="M240.046,138.317c-5.434,0.428-9.451,3.917-8.98,7.798c0.465,3.881,5.252,6.679,10.68,6.253
			c5.434-0.428,9.451-3.919,8.982-7.8C250.257,140.689,245.476,137.892,240.046,138.317z"/>
		<path fill="#101A29" d="M283.466,134.607c-5.434,0.428-9.451,3.917-8.98,7.797c0.469,3.881,5.25,6.679,10.68,6.253
			c5.434-0.428,9.451-3.919,8.98-7.8C293.677,136.979,288.896,134.181,283.466,134.607z"/>
		<path fill="#101A29" d="M280.347,166.171c-5.434,0.428-9.451,3.914-8.982,7.799c0.471,3.877,5.252,6.68,10.686,6.252
			c5.43-0.429,9.449-3.92,8.977-7.801C290.562,168.54,285.774,165.743,280.347,166.171z"/>
		<path fill="#101A29" d="M238.247,170.139c-5.434,0.431-9.449,3.923-8.98,7.8c0.469,3.881,5.252,6.678,10.686,6.254
			c5.428-0.432,9.445-3.922,8.98-7.799C248.462,172.513,243.677,169.714,238.247,170.139z"/>
		<path fill="#101A29" d="M258.224,85.489c0.764,4.78-4.211,9.551-11.117,10.656c-6.902,1.107-13.119-1.872-13.887-6.652
			c-0.766-4.778,4.211-9.551,11.115-10.656C251.237,77.731,257.454,80.709,258.224,85.489z"/>
	</g>
	<g>
		<path fill="#E6E6E6" stroke="#101A29" stroke-linecap="round" stroke-linejoin="round" stroke-miterlimit="10" d="
			M218.188,132.939c0,0,2.924,40.255,0,72.396c-33.761,31.485-77.26,39.925-77.26,39.925s-37.336-15.255-60.382-47.065
			c-3.249-46.426,0-72.072,0-72.072"/>
		<path fill="#E6E6E6" stroke="#101A29" stroke-linecap="round" stroke-linejoin="round" stroke-miterlimit="10" d="M81.194,126.123
			c0,0,36.684-28.243,76.287-39.929c47.907,30.186,60.708,46.746,60.708,46.746s-32.462,21.751-77.26,40.255
			C111.907,154.367,81.194,126.123,81.194,126.123z"/>
		
			<line fill="#E6E6E6" stroke="#101A29" stroke-linecap="round" stroke-linejoin="round" stroke-miterlimit="10" x1="140.928" y1="173.194" x2="140.928" y2="245.26"/>
		<ellipse fill="#101A29" cx="149.365" cy="127.421" rx="12.985" ry="8.441"/>
		<path fill="#101A29" d="M103.445,162.565c1.238,4.848-0.575,9.496-4.051,10.383c-3.476,0.885-7.292-2.325-8.53-7.172
			c-1.238-4.846,0.579-9.488,4.051-10.377C98.39,154.513,102.21,157.724,103.445,162.565z"/>
		<path fill="#101A29" d="M127.105,210.34c1.896,4.63,0.742,9.48-2.575,10.844c-3.32,1.355-7.546-1.295-9.438-5.922
			c-1.896-4.626-0.742-9.48,2.574-10.839C120.983,203.063,125.211,205.714,127.105,210.34z"/>
		<path fill="#101A29" d="M163.653,214.944c-2.325,4.43-1.636,9.367,1.537,11.032c3.177,1.67,7.633-0.567,9.957-4.997
			c2.325-4.43,1.636-9.367-1.541-11.033C170.433,208.28,165.977,210.519,163.653,214.944z"/>
		<path fill="#101A29" d="M180.849,188.153c-2.324,4.43-1.636,9.367,1.541,11.033c3.173,1.669,7.633-0.568,9.958-4.998
			c2.324-4.43,1.636-9.367-1.541-11.033C187.634,181.485,183.174,183.724,180.849,188.153z"/>
		<path fill="#101A29" d="M197.49,161.157c-2.321,4.43-1.632,9.367,1.541,11.033c3.177,1.666,7.632-0.572,9.957-4.998
			c2.326-4.43,1.637-9.367-1.541-11.036C204.274,154.486,199.818,156.728,197.49,161.157z"/>
	</g>
</g>
</svg>
