<?xml version="1.0" encoding="utf-8"?>
<!-- Generator: Adobe Illustrator 16.0.0, SVG Export Plug-In . SVG Version: 6.00 Build 0)  -->
<!DOCTYPE svg PUBLIC "-//W3C//DTD SVG 1.1//EN" "http://www.w3.org/Graphics/SVG/1.1/DTD/svg11.dtd">
<svg version="1.1" id="Calque_1" xmlns="http://www.w3.org/2000/svg" xmlns:xlink="http://www.w3.org/1999/xlink" x="0px" y="0px"
	 width="388.234px" height="300px" viewBox="0 0 388.234 300" enable-background="new 0 0 388.234 300" xml:space="preserve">
<g>
	<g>
		
			<path fill="#C33A78" stroke="#101A29" stroke-width="2" stroke-linecap="round" stroke-linejoin="round" stroke-miterlimit="10" d="
			M309.935,115.735c0,0-0.215,40.267-12.856,69.958C249.406,199.74,215.441,193,215.441,193s-21.76-15.891-33.936-53.241
			c1.624-41.553,6.493-73.987,6.493-73.987"/>
		
			<path fill="#C33A78" stroke="#101A29" stroke-width="2" stroke-linecap="round" stroke-linejoin="round" stroke-miterlimit="10" d="
			M187.998,65.771c0,0,53.134-12.841,94.416-11.809c16.561,22.694,27.521,61.773,27.521,61.773s-50.84,10.388-99.567,11.686
			C192.219,100.619,187.998,65.771,187.998,65.771z"/>
		<path fill="#101A29" d="M240.046,138.317c-5.434,0.428-9.451,3.917-8.98,7.798c0.466,3.881,5.253,6.679,10.681,6.253
			c5.434-0.429,9.451-3.919,8.981-7.801C250.257,140.689,245.476,137.892,240.046,138.317z"/>
		<path fill="#101A29" d="M283.466,134.607c-5.434,0.428-9.451,3.917-8.979,7.797c0.469,3.881,5.25,6.679,10.68,6.253
			c5.434-0.428,9.451-3.919,8.979-7.8C293.677,136.979,288.896,134.181,283.466,134.607z"/>
		<path fill="#101A29" d="M280.347,166.171c-5.434,0.428-9.451,3.914-8.981,7.799c0.471,3.877,5.252,6.68,10.686,6.252
			c5.43-0.43,9.449-3.92,8.978-7.801C290.562,168.541,285.774,165.744,280.347,166.171z"/>
		<path fill="#101A29" d="M238.247,170.139c-5.435,0.431-9.449,3.923-8.98,7.8c0.47,3.881,5.252,6.678,10.687,6.254
			c5.428-0.432,9.444-3.922,8.979-7.799C248.462,172.513,243.677,169.714,238.247,170.139z"/>
		<path fill="#101A29" d="M258.224,85.489c0.765,4.78-4.211,9.551-11.117,10.656c-6.901,1.107-13.118-1.872-13.887-6.652
			c-0.766-4.778,4.211-9.551,11.115-10.656C251.238,77.731,257.454,80.709,258.224,85.489z"/>
	</g>
	<g>
		
			<path fill="#C33A78" stroke="#101A29" stroke-width="2" stroke-linecap="round" stroke-linejoin="round" stroke-miterlimit="10" d="
			M218.188,132.939c0,0,2.925,40.255,0,72.396c-33.761,31.484-77.26,39.924-77.26,39.924s-37.336-15.254-60.382-47.064
			c-3.249-46.426,0-72.072,0-72.072"/>
		
			<path fill="#C33A78" stroke="#101A29" stroke-width="2" stroke-linecap="round" stroke-linejoin="round" stroke-miterlimit="10" d="
			M81.195,126.123c0,0,36.684-28.243,76.286-39.929c47.907,30.186,60.708,46.746,60.708,46.746s-32.462,21.751-77.26,40.255
			C111.907,154.367,81.195,126.123,81.195,126.123z"/>
		
			<line fill="none" stroke="#101A29" stroke-width="2" stroke-linecap="round" stroke-linejoin="round" stroke-miterlimit="10" x1="140.928" y1="173.194" x2="140.928" y2="245.259"/>
		<ellipse fill="#101A29" cx="149.365" cy="127.421" rx="12.984" ry="8.441"/>
		<path fill="#101A29" d="M103.446,162.565c1.237,4.849-0.575,9.496-4.052,10.384c-3.476,0.885-7.292-2.326-8.529-7.173
			c-1.238-4.846,0.579-9.487,4.051-10.377C98.39,154.513,102.21,157.724,103.446,162.565z"/>
		<path fill="#101A29" d="M127.105,210.339c1.896,4.631,0.742,9.48-2.574,10.845c-3.32,1.354-7.547-1.295-9.438-5.923
			c-1.896-4.625-0.742-9.479,2.574-10.838C120.983,203.063,125.211,205.714,127.105,210.339z"/>
		<path fill="#101A29" d="M163.654,214.944c-2.325,4.431-1.637,9.367,1.536,11.032c3.178,1.67,7.634-0.566,9.957-4.997
			c2.325-4.431,1.637-9.366-1.541-11.032C170.433,208.281,165.977,210.519,163.654,214.944z"/>
		<path fill="#101A29" d="M180.849,188.153c-2.324,4.431-1.636,9.367,1.541,11.033c3.173,1.669,7.633-0.567,9.958-4.998
			c2.324-4.431,1.636-9.366-1.541-11.032C187.634,181.485,183.174,183.724,180.849,188.153z"/>
		<path fill="#101A29" d="M197.49,161.158c-2.321,4.43-1.633,9.366,1.541,11.032c3.177,1.666,7.632-0.571,9.957-4.998
			c2.325-4.431,1.637-9.366-1.541-11.036C204.274,154.486,199.818,156.728,197.49,161.158z"/>
	</g>
</g>
</svg>
