<?xml version="1.0" encoding="iso-8859-1"?>
<!-- Generator: Adobe Illustrator 18.1.1, SVG Export Plug-In . SVG Version: 6.00 Build 0)  -->
<svg xmlns="http://www.w3.org/2000/svg" xmlns:xlink="http://www.w3.org/1999/xlink" version="1.1" id="Capa_1" x="0px" y="0px" viewBox="0 0 58.432 58.432" style="enable-background:new 0 0 58.432 58.432;" xml:space="preserve" width="512px" height="512px">
<g>
	<g>
		<circle cx="9.458" cy="11.875" r="4.187" fill="#FFFFFF"/>
		<path d="M12.717,33.738c0-0.004-0.002-0.012-0.003-0.019c-0.932-3.474-1.222-7.1-1.539-10.729l3.118,1.751    c0.317,0.18,0.669,0.269,1.022,0.269c0.379,0,0.756-0.104,1.092-0.311l5.761-3.543c0.984-0.604,1.289-1.889,0.685-2.871    c-0.326-0.529-0.854-0.855-1.423-0.954v-2.582l1.291-1.546l1.51-1.806h-6.709l2.624,3.352l0.002,2.772    c-0.055,0.028-0.112,0.048-0.166,0.081l-4.715,2.899c0,0-4.986-2.794-5.923-3.294c-0.48-0.272-1.07-0.438-1.719-0.441    c-1.648-0.013-3.501,1.35-3.327,3.279c0.456,5.064,0.715,10.466,2.037,15.382c0.479,1.786,1.702,2.127,3.373,2.345    c0.305,0.043,7.194,0.799,8.066,1.123c0.361,0.637,0.804,3.471,0.059,8.893c-0.161,1.17,0.657,2.246,1.827,2.41    c0.099,0.014,0.197,0.021,0.294,0.021c1.051,0,1.967-0.778,2.115-1.846c0.912-6.64,0.456-10.875-1.352-12.597    C19.362,34.492,15.953,33.951,12.717,33.738z M19.19,12.557l-0.437-0.558h4.198l-0.747,0.893c-0.329,0.102-0.85,0.181-1.309-0.12    C20.246,12.347,19.621,12.396,19.19,12.557z" fill="#FFFFFF"/>
		<polygon points="2.021,24.516 0,25.03 3.242,40.106 3.242,50.744 5.329,50.744 5.329,41.217 14.367,42.285     14.367,50.744 16.453,50.744 16.453,40.533 5.13,39.065   " fill="#FFFFFF"/>
		<circle cx="48.974" cy="11.875" r="4.187" fill="#FFFFFF"/>
		<path d="M48.724,37.774c1.672-0.217,2.895-0.558,3.373-2.344c1.321-4.916,1.581-10.317,2.037-15.382    c0.174-1.93-1.68-3.292-3.327-3.279c-0.649,0.004-1.237,0.169-1.719,0.441c-0.937,0.5-5.924,3.294-5.924,3.294l-4.716-2.899    c-0.053-0.033-0.109-0.053-0.164-0.081l0.002-2.772l2.623-3.352H34.2l1.51,1.807l1.291,1.545v2.582    c-0.568,0.099-1.098,0.425-1.424,0.954c-0.604,0.982-0.299,2.267,0.686,2.871l5.762,3.543c0.336,0.206,0.713,0.311,1.092,0.311    c0.354,0,0.705-0.089,1.022-0.269l3.118-1.751c-0.316,3.63-0.605,7.255-1.539,10.729c-0.002,0.007-0.003,0.016-0.004,0.02    c-3.234,0.213-6.645,0.752-7.998,2.039c-1.809,1.722-2.264,5.957-1.354,12.597c0.147,1.067,1.064,1.846,2.115,1.846    c0.098,0,0.195-0.008,0.295-0.021c1.17-0.164,1.986-1.24,1.826-2.41c-0.746-5.422-0.304-8.256,0.059-8.893    C41.53,38.572,48.419,37.817,48.724,37.774z M36.228,12.892l-0.746-0.893h4.197l-0.438,0.558c-0.432-0.161-1.057-0.21-1.705,0.215    C37.077,13.071,36.556,12.993,36.228,12.892z" fill="#FFFFFF"/>
		<polygon points="56.411,24.516 53.303,39.065 41.98,40.533 41.98,50.744 44.066,50.744 44.066,42.285     53.103,41.217 53.103,50.744 55.191,50.744 55.191,40.106 58.432,25.03   " fill="#FFFFFF"/>
		<rect x="19.602" y="27.206" width="19.227" height="4.021" fill="#FFFFFF"/>
	</g>
</g>
<g>
</g>
<g>
</g>
<g>
</g>
<g>
</g>
<g>
</g>
<g>
</g>
<g>
</g>
<g>
</g>
<g>
</g>
<g>
</g>
<g>
</g>
<g>
</g>
<g>
</g>
<g>
</g>
<g>
</g>
</svg>
